<svg xmlns="http://www.w3.org/2000/svg" xmlns:xlink="http://www.w3.org/1999/xlink" version="1.1" id="Layer_1" x="0" y="0" width="12px" height="20px" viewBox="0 0 12 20" enable-background="new 0 0 12 20" xml:space="preserve"><g><path fill="#D92C27" d="M12.061 6.395c0 1.077-0.219 2.28-0.657 3.608c-0.437 1.327-0.916 2.498-1.442 3.5 s-1.131 2.056-1.818 3.118C7.455 17.7 7 18.4 6.7 18.776c-0.262 0.364-0.483 0.646-0.657 0.845l-0.6-0.827 c-0.426-0.526-0.931-1.258-1.519-2.198c-0.588-0.939-1.176-1.954-1.763-3.043c-0.588-1.089-1.088-2.286-1.5-3.589 c-0.411-1.302-0.618-2.492-0.618-3.57c0-1.653 0.588-3.067 1.763-4.246c1.175-1.177 2.587-1.767 4.237-1.767S9.124 1 10.3 2.1 C11.473 3.3 12.1 4.7 12.1 6.395z M9.286 6.471c0-0.902-0.312-1.665-0.938-2.291C7.724 3.6 7 3.2 6.1 3.2 S4.398 3.6 3.8 4.178S2.836 5.6 2.8 6.471s0.312 1.7 0.9 2.292c0.624 0.6 1.4 0.9 2.3 0.9 s1.663-0.314 2.287-0.939C8.974 8.1 9.3 7.4 9.3 6.471z"/></g></svg>