<svg xmlns="http://www.w3.org/2000/svg" xmlns:xlink="http://www.w3.org/1999/xlink" version="1.1" x="0" y="0" width="126px" height="41px" viewBox="0 0 126 41" enable-background="new 0 0 126 41" xml:space="preserve"><path fill="none" d="z"/><g><path fill="#D92C26" d="M33.253 26.713c-0.03-0.167-0.055-0.344-0.078-0.534h0.009l6.658-6.622l5.143-5.13 c0 0 1.933-2.029 1.775-4.749c-0.804-4.928-1.458-8.831-1.458-8.831L32.385 6.105l-0.059 0.029l0.241 0.9 c0 0 3.288-1.258 4.384-0.047c0.138 0.1 0.3 0.2 0.5 0.802c0.306 1 0.8 3 1.6 7.4 c0.165 0.972-0.215 1.607-0.412 1.875c-0.029 0.037-0.052 0.057-0.052 0.057l-5.806 5.854c-0.228-1.483-0.16-1.034-0.004 0 l-0.007 0.008C31.4 14.6 29.1 0.9 29.1 0.883L16.145 6.162l0.242 0.964c0 0 3.289-1.267 4.385-0.057 c0.139 0.2 0.3 0.3 0.5 0.814c0.301 1 0.8 3 1.6 7.411c0.205 1.306-0.528 2.018-0.528 2.018l-5.744 5.8 C15.238 14.6 13 1 13 0.978L0 6.258l0.239 0.958c0 0 3.285-1.261 4.384-0.042c0.52 0.6 0.9 0.3 5.2 25.9 c0 0 0.7 3.477-2.983 6.559l0.991 1.194c0 0 10.366-6.76 9.321-14.017c-0.022-0.194-0.056-0.389-0.089-0.593l6.625-6.577 c0.605 3.4 1.4 7.7 2.3 13.336c0 0 0.7 3.469-2.987 6.557l1.002 1.188C23.939 40.7 34.3 34 33.3 26.7 L33.253 26.713z"/><path fill="#D92C26" d="M79.549 18.194c-0.059 0.269-0.126 0.541-0.197 0.807c-0.224 0.904-0.427 1.743-0.432 1.743h3.669 c0 0 0.224-0.913 0.481-1.884c0.286-1.11 0.604-2.305 0.604-2.312c0.471-1.923-0.774-5.123-3.813-4.589 c-1.106 0.201-2.103 0.732-3.072 1.302c-1.418 0.826-2.73 1.894-3.984 2.984l-2.23 7.573l-5.075 0 c1.078-4.082 1.822-4.524-0.063-6.778l-2.826 1.341c0.382 0.9 0.2 1.5 0.1 2.173c-0.339 1.113-0.95 3.291-0.95 3.3 h-1.988l-0.597 1.86l2.05-0.007l-3.146 12.687c0.064 0.6 1.4 2.4 3 2.45l4.631-2.88l-0.563-0.967 c-2.733 1.778-3.047 0.534-3.029-0.049c0.975-3.724 2.806-11.225 2.806-11.225h4.454c0 0 0.786-0.091 0.6 0.577l-3.477 14.2 l3.814-0.033l3.642-14.713l2.533-0.004c0.705 0.1 1.2 0.3 1 1.196c0 0-2.817 11.403-2.839 11.5 c0.055 0.6 1.4 2.4 3 2.45l4.631-2.88l-0.559-0.963c-1.213 0.781-1.944 0.971-2.38 0.9l-0.04-0.016l-0.055-0.012 l-0.055-0.017h-0.023c-0.409-0.17-0.486-0.613-0.475-0.907c0.978-3.724 3.265-13.12 3.265-13.12h-7.542l1.869-7.104 c0.427-1.082 1.783-2.031 2.82-1.866c1.128 0.2 0.9 1.6 0.5 3.126C79.584 18.1 79.6 18.1 79.5 18.2 L79.549 18.194z"/><path fill="#D92C26" d="M44.885 37.266h0.009H44.885z"/><path fill="#D92C26" d="M6.493 3.968L6.493 3.968z"/><path fill="#D92C26" d="M58.902 27.333L58.902 27.333c-0.087-0.184-0.174-0.372-0.268-0.542c-0.868-1.771-1.957-2.582-3.072-2.898 c-0.048-0.022-0.109-0.029-0.16-0.048c-0.252-0.059-0.554-0.093-0.869-0.093c-2.159 0.015-5.479 1.445-6.32 3.6 c-0.441 1.126-1.058 3.122-0.9 4.252c0.02 0.1 0 0.3 0.1 0.37c0.145 0.3 0.4 0.6 0.7 0.9 c0.794 0.6 2.1 0.9 3.3 1.25l0.052 0.022c0.1 0 0.2 0.1 0.3 0.099c0.475 0.2 0.8 0.5 0.9 0.9 c0.126 0.713-0.251 2.017-0.751 2.824c-1.182 1.961-2.711 0.775-4.152-2.342l-0.033 0.011h-0.004 c-0.101 0.056-2.733 1.611-2.823 1.671c0.082 0.2 0.2 0.4 0.3 0.541c0.86 1.8 1.9 2.6 3.1 2.9 c0.055 0 0.1 0 0.2 0.045c0.253 0.1 0.6 0.1 0.9 0.089c2.15-0.011 5.479-1.445 6.32-3.608 c0.438-1.13 1.049-3.118 0.897-4.248c-0.016-0.142-0.051-0.263-0.096-0.375c-0.141-0.343-0.38-0.617-0.684-0.841 c-0.801-0.622-2.1-0.889-3.273-1.264l-0.05-0.01c-0.106-0.039-0.204-0.074-0.303-0.109c-0.484-0.196-0.859-0.451-0.937-0.889 c-0.126-0.715 0.253-2.011 0.748-2.819c1.191-1.966 2.722-0.772 4.2 2.333l0.016-0.01h0.011 C56.18 29 58.8 27.4 58.9 27.333L58.902 27.333z"/><path fill="#D92C26" d="M114.101 27.903l-2.091 7.568c-0.115 0.452-0.348 0.638-0.508 0.817c-2.523 2.029-5.481 2.84-4.42-1.486 c0 0 1.798-7.039 2.114-7.522C110.793 25.2 114.3 24.9 114.1 27.903L114.101 27.903z M125.942 12.2 c-2.702-0.063-5.68 0.184-7.672 2.29c-1.14 2.15-3.376 10.169-3.376 10.169c-0.683-0.969-6.15-2.212-9.29 1.976l-0.023 0 c-0.409 0.824-2.724 9.971-2.749 9.984c-0.755 0.543-2.832 1.313-3.136 1.283c-0.465-0.206-0.714-0.564-0.636-1.08 c2.046-6.977 3.459-14.116 5.762-20.99c0.858-1.745 2.759-2.515 4.577-2.728l-0.075-0.944c-2.691-0.063-5.668 0.184-7.664 2.3 c-1.492 2.453-6.465 22.926-6.465 22.926c-0.246 1.7 1.6 3.6 2.8 3.417c1.783-0.767 3.378-1.831 5.041-2.818 c0.549 0.7 1.4 1.7 2.2 2.232c2.147 1.5 6.369-1.202 6.393-1.163c0.598 0.9 1.5 1.9 3.1 1.6 c1.22-0.397 5.978-3.499 5.978-3.499l-0.636-1.037c0 0-2.518 1.6-3.963 1.757c0 0-0.858-0.062-0.598-1.057l5.943-21.006 c0.866-1.745 2.769-2.515 4.576-2.728L125.942 12.204z"/><path fill="#D92C26" d="M92.447 29.134c-0.824 2.375-3.778 2.068-4.242 1.99v0.003c-0.078-0.038-0.049-0.178-0.049-0.178 l0.744-2.846c0.457-1.622 2.452-2.574 3.281-2.353C93.547 26.3 92.4 29.1 92.4 29.134L92.447 29.134z M95.59 24.4 c-1.245-1.218-3.949-0.523-5.668-0.1c-1.82 0.579-3.835 1.205-4.699 3.284c-0.692 2.401-1.854 6.849-2.497 9.8 c-0.028 0.8 2.5 3.4 4.5 3.515c0.566 0.2 6.462-3.604 6.462-3.604l-0.629-1.053c0 0-2.391 1.522-3.848 1.7 c-0.067 0.006-0.141-0.007-0.141-0.007c-0.848-0.125-1.899-0.764-2.192-1.505c-0.107-0.238 0.729-3.217 0.729-3.217 s5.665 0.3 7.358-1.882C96.136 29.3 97 25.9 95.6 24.364L95.59 24.364z"/><path fill="#D92C26" d="M42.771 29.134c-0.828 2.375-3.775 2.068-4.238 1.99v0.003c-0.083-0.038-0.048-0.178-0.048-0.178 l0.746-2.846c0.461-1.622 2.445-2.574 3.277-2.353C43.879 26.3 42.8 29.1 42.8 29.134L42.771 29.134z M45.919 24.4 c-1.249-1.218-3.953-0.523-5.677-0.1c-1.814 0.579-3.834 1.205-4.695 3.284c-0.695 2.401-1.85 6.849-2.487 9.8 c-0.034 0.8 2.5 3.4 4.4 3.515c0.569 0.2 6.461-3.604 6.461-3.604l-0.627-1.053c0 0-2.401 1.522-3.853 1.7 c-0.06 0.006-0.138-0.007-0.138-0.007c-0.848-0.125-1.89-0.764-2.185-1.505c-0.119-0.238 0.718-3.217 0.718-3.217 s5.677 0.3 7.363-1.882C46.464 29.3 47.3 25.9 45.9 24.364L45.919 24.364z"/></g><path fill="none" d="z"/><g opacity="0.4"><path fill="#242424" d="M98.003 1.327h2.649c1.229 0 2.1 0.2 2.7 0.537c0.547 0.4 0.8 0.9 0.8 1.7 c0 0.521-0.135 0.954-0.403 1.3c-0.269 0.346-0.655 0.564-1.159 0.653v0.061c0.626 0.1 1.1 0.4 1.4 0.7 c0.295 0.3 0.4 0.8 0.4 1.413c0 0.802-0.279 1.429-0.839 1.883c-0.56 0.454-1.338 0.681-2.335 0.681h-3.223V1.327z M99.462 5.013h1.404c0.609 0 1.056-0.097 1.336-0.29c0.281-0.193 0.422-0.522 0.422-0.986c0-0.419-0.152-0.722-0.455-0.909 c-0.304-0.187-0.784-0.281-1.443-0.281h-1.264V5.013z M99.462 6.197v2.826h1.551c0.609 0 1.07-0.117 1.382-0.351 s0.467-0.604 0.467-1.108c0-0.464-0.158-0.808-0.476-1.031c-0.317-0.224-0.8-0.336-1.447-0.336H99.462z"/><path fill="#242424" d="M110.565 10.25h-5.048V1.327h5.048V2.56h-3.589v2.429h3.363v1.221h-3.363v2.801h3.589V10.25z"/><path fill="#242424" d="M115.847 10.25h-1.458V2.578h-2.625V1.327h6.708v1.251h-2.625V10.25z"/><path fill="#242424" d="M124.45 10.25l-0.892-2.478h-3.411l-0.873 2.478h-1.538l3.339-8.96h1.587L126 10.25H124.45z M123.175 6.5 l-0.837-2.429c-0.061-0.163-0.146-0.419-0.253-0.769s-0.182-0.606-0.223-0.769c-0.11 0.5-0.271 1.048-0.482 1.642l-0.806 2.3 H123.175z"/></g></svg>