<svg viewBox="0 0 50 50" style="background-color:#ffffff00" version="1.1" xmlns="http://www.w3.org/2000/svg" xmlns:xlink="http://www.w3.org/1999/xlink" xml:space="preserve" x="0" y="0" width="50px" height="50px">
	<g>
		<g>
			<g>
				<path d="M 50 50 L 0 50 L 0 0 L 50 0 L 50 50 Z" fill="#d92c26"/>
			</g>
			<path d="M 32.5618 29.5684 C 32.5387 29.438 32.5198 29.3008 32.5016 29.1526 L 32.5082 29.1526 L 37.6091 23.9995 L 41.5496 20.0073 C 41.5496 20.0073 43.0306 18.4281 42.9093 16.312 C 42.2936 12.4772 41.7926 9.4403 41.7926 9.4403 L 31.8962 13.5315 L 31.8508 13.5541 L 32.0353 14.2926 C 32.0353 14.2926 34.5546 13.3134 35.3939 14.2563 C 35.4998 14.3718 35.5991 14.4497 35.7468 14.8802 C 35.9808 15.6472 36.3275 17.2131 36.9534 20.6602 C 37.0798 21.4163 36.7883 21.9106 36.6376 22.1194 C 36.6156 22.1482 36.598 22.1639 36.598 22.1639 L 32.1497 26.719 C 31.9752 25.5647 32.0267 25.9146 32.1469 26.7222 L 32.1412 26.7284 C 31.1418 20.1465 29.4055 9.4679 29.4055 9.4679 L 19.4539 13.576 L 19.6395 14.3258 C 19.6395 14.3258 22.1593 13.3401 22.9995 14.2814 C 23.1057 14.405 23.2065 14.4816 23.354 14.9148 C 23.5844 15.6705 23.9324 17.2369 24.5615 20.6821 C 24.7183 21.6981 24.1569 22.2522 24.1569 22.2522 L 19.7557 26.7516 C 18.759 20.1696 17.0289 9.5415 17.0289 9.5415 L 7.0836 13.6509 L 7.2668 14.3964 C 7.2668 14.3964 9.7834 13.4148 10.6259 14.3635 C 11.0239 14.8051 11.2848 14.6155 14.5728 34.5261 C 14.5728 34.5261 15.0746 37.2318 12.2875 39.6304 L 13.0465 40.5597 C 13.0465 40.5597 20.989 35.2993 20.1886 29.6523 C 20.1716 29.5013 20.1461 29.3495 20.1202 29.1909 L 25.1967 24.0732 C 25.6599 26.7172 26.2322 30.0966 26.9459 34.4513 C 26.9459 34.4513 27.4443 37.1508 24.6577 39.5536 L 25.4257 40.4784 C 25.4257 40.4784 33.3623 35.2227 32.5618 29.5684 L 32.5618 29.5684 Z" fill="#ffffff"/>
		</g>
	</g>
</svg>