<svg xmlns="http://www.w3.org/2000/svg" xmlns:xlink="http://www.w3.org/1999/xlink" viewBox="0 0 126 41" style="background-color:#ffffff00" version="1.1" xml:space="preserve" x="0" y="0" width="126px" height="41px"><g><path d="M 33 26 C 33 26 33 26 33 26 L 33 26 L 39 19 L 44 14 C 44 14 46 12 46 9 C 45 4 45 0 45 0 L 32 6 L 32 6 L 32 7 C 32 7 35 5 36 7 C 37 7 37 7 37 7 C 37 8 38 10 38 15 C 39 16 38 16 38 17 C 38 17 38 17 38 17 L 32 23 C 32 21 32 22 32 23 L 32 23 C 31 14 29 0 29 0 L 16 6 L 16 7 C 16 7 19 5 20 7 C 20 7 21 7 21 7 C 21 8 21 10 22 15 C 23 16 22 17 22 17 L 16 23 C 15 14 12 0 12 0 L 0 6 L 0 7 C 0 7 3 5 4 7 C 5 7 5 7 9 33 C 9 33 10 36 6 39 L 7 40 C 7 40 18 34 17 26 C 17 26 17 26 17 26 L 23 19 C 24 23 24 27 25 32 C 25 32 26 36 22 39 L 23 40 C 23 40 34 33 33 26 L 33 26 Z" fill="#d92c26"/><path d="M 79 18 C 79 18 79 18 79 19 C 79 19 78 20 78 20 L 82 20 C 82 20 82 19 83 18 C 83 17 83 16 83 16 C 84 14 82 11 79 11 C 78 12 77 12 76 13 C 75 14 74 15 72 16 L 70 23 L 65 23 C 66 19 67 19 65 17 L 62 18 C 62 19 62 19 62 20 C 62 21 61 23 61 23 L 59 23 L 59 25 L 61 25 L 58 38 C 58 38 59 40 61 40 L 65 37 L 65 36 C 62 38 62 37 62 36 C 63 33 64 25 64 25 L 69 25 C 69 25 70 25 69 26 L 66 40 L 70 40 L 73 25 L 76 25 C 77 25 77 26 77 26 C 77 26 74 38 74 38 C 74 38 76 40 77 40 L 82 37 L 81 36 C 80 37 79 37 79 37 L 79 37 L 79 37 L 79 37 L 79 37 C 78 37 78 37 78 36 C 79 33 81 23 81 23 L 74 23 L 76 16 C 76 15 78 14 79 14 C 80 15 79 16 79 17 C 79 18 79 18 79 18 L 79 18 Z" fill="#d92c26"/><path d="M 44 37 L 44 37 L 44 37 Z" fill="#d92c26"/><path d="M 6 3 L 6 3 Z" fill="#d92c26"/><path d="M 58 27 L 58 27 C 58 27 58 26 58 26 C 57 25 56 24 55 23 C 55 23 55 23 55 23 C 55 23 54 23 54 23 C 52 23 49 25 48 27 C 47 28 47 30 47 31 C 47 31 47 31 47 31 C 47 32 47 32 48 32 C 48 33 50 33 51 34 L 51 34 C 51 34 51 34 51 34 C 52 34 52 34 52 35 C 52 35 52 37 51 37 C 50 39 49 38 47 35 L 47 35 L 47 35 C 47 35 44 37 44 37 C 44 37 45 37 45 37 C 46 39 47 40 48 40 C 48 40 48 40 48 40 C 48 40 48 40 49 40 C 51 40 54 39 55 37 C 56 36 56 34 56 32 C 56 32 56 32 56 32 C 56 32 56 31 55 31 C 54 31 53 30 52 30 L 52 30 C 52 30 52 30 52 30 C 51 30 51 29 51 29 C 51 28 51 27 51 26 C 53 24 54 25 56 29 L 56 29 L 56 29 C 56 28 58 27 58 27 L 58 27 Z" fill="#d92c26"/><path d="M 114 27 L 112 35 C 111 35 111 36 111 36 C 108 38 106 39 107 34 C 107 34 108 27 109 27 C 110 25 114 24 114 27 L 114 27 ZM 125 12 C 123 12 120 12 118 14 C 117 16 114 24 114 24 C 114 23 108 22 105 26 L 105 26 C 105 27 102 36 102 36 C 102 37 99 37 99 37 C 99 37 98 37 99 36 C 101 29 102 22 104 15 C 105 14 107 13 109 13 L 109 12 C 106 12 103 12 101 14 C 100 16 95 37 95 37 C 94 39 96 40 97 40 C 99 40 101 39 103 38 C 103 38 104 39 105 40 C 107 41 111 39 111 39 C 112 40 113 41 114 40 C 115 40 120 37 120 37 L 120 36 C 120 36 117 37 116 37 C 116 37 115 37 115 36 L 121 15 C 122 14 124 13 126 13 L 125 12 Z" fill="#d92c26"/><path d="M 92 29 C 91 31 88 31 88 31 L 88 31 C 88 31 88 30 88 30 L 88 28 C 89 26 91 25 92 25 C 93 26 92 29 92 29 L 92 29 ZM 95 24 C 94 23 91 23 89 24 C 88 24 86 25 85 27 C 84 29 83 34 82 37 C 82 38 85 40 87 40 C 87 41 93 37 93 37 L 93 36 C 93 36 90 37 89 37 C 89 37 89 37 89 37 C 88 37 87 37 86 36 C 86 36 87 33 87 33 C 87 33 93 33 94 31 C 96 29 96 25 95 24 L 95 24 Z" fill="#d92c26"/><path d="M 42 29 C 41 31 38 31 38 31 L 38 31 C 38 31 38 30 38 30 L 39 28 C 39 26 41 25 42 25 C 43 26 42 29 42 29 L 42 29 ZM 45 24 C 44 23 41 23 40 24 C 38 24 36 25 35 27 C 34 29 33 34 33 37 C 33 38 35 40 37 40 C 38 41 43 37 43 37 L 43 36 C 43 36 40 37 39 37 C 39 37 39 37 39 37 C 38 37 37 37 37 36 C 37 36 37 33 37 33 C 37 33 43 33 45 31 C 46 29 47 25 45 24 L 45 24 Z" fill="#d92c26"/></g></svg>