<svg xmlns="http://www.w3.org/2000/svg" xmlns:xlink="http://www.w3.org/1999/xlink" viewBox="0 0 50 50" style="background-color:#ffffff00" version="1.1" xml:space="preserve" x="0" y="0" width="50px" height="50px"><g><g><g><path d="M 50 50 L 0 50 L 0 0 L 50 0 L 50 50 Z" fill="#d92c26"/></g><path d="M 32.6 29.6 C 32.5 29.4 32.5 29.3 32.5 29.2 L 32.5 29.2 L 37.6 24 L 41.5 20 C 41.5 20 43 18.4 42.9 16.3 C 42.3 12.5 41.8 9.4 41.8 9.4 L 31.9 13.5 L 31.9 13.6 L 32 14.3 C 32 14.3 34.6 13.3 35.4 14.3 C 35.5 14.4 35.6 14.4 35.7 14.9 C 36 15.6 36.3 17.2 37 20.7 C 37.1 21.4 36.8 21.9 36.6 22.1 C 36.6 22.1 36.6 22.2 36.6 22.2 L 32.1 26.7 C 32 25.6 32 25.9 32.1 26.7 L 32.1 26.7 C 31.1 20.1 29.4 9.5 29.4 9.5 L 19.5 13.6 L 19.6 14.3 C 19.6 14.3 22.2 13.3 23 14.3 C 23.1 14.4 23.2 14.5 23.4 14.9 C 23.6 15.7 23.9 17.2 24.6 20.7 C 24.7 21.7 24.2 22.3 24.2 22.3 L 19.8 26.8 C 18.8 20.2 17 9.5 17 9.5 L 7.1 13.7 L 7.3 14.4 C 7.3 14.4 9.8 13.4 10.6 14.4 C 11 14.8 11.3 14.6 14.6 34.5 C 14.6 34.5 15.1 37.2 12.3 39.6 L 13 40.6 C 13 40.6 21 35.3 20.2 29.7 C 20.2 29.5 20.1 29.3 20.1 29.2 L 25.2 24.1 C 25.7 26.7 26.2 30.1 26.9 34.5 C 26.9 34.5 27.4 37.2 24.7 39.6 L 25.4 40.5 C 25.4 40.5 33.4 35.2 32.6 29.6 L 32.6 29.6 Z" fill="#ffffff"/></g></g></svg>