<svg version="1.1" xmlns="http://www.w3.org/2000/svg" xmlns:xlink="http://www.w3.org/1999/xlink" x="0" y="0" width="126px" height="41px" viewBox="0 0 126 41" enable-background="new 0 0 126 41" xml:space="preserve">
<g id="Layer_2">
</g>
<g id="Layer_1">
	<g>
		<path fill="#FFFFFF" d="M33.253,26.713c-0.03-0.167-0.055-0.344-0.078-0.534h0.009l6.658-6.622l5.143-5.13
			c0,0,1.933-2.029,1.775-4.749c-0.804-4.928-1.458-8.831-1.458-8.831L32.385,6.105l-0.059,0.029l0.241,0.949
			c0,0,3.288-1.258,4.384-0.047c0.138,0.148,0.268,0.249,0.461,0.802c0.306,0.986,0.758,2.998,1.575,7.428
			c0.165,0.972-0.215,1.607-0.412,1.875c-0.029,0.037-0.052,0.057-0.052,0.057l-5.806,5.854c-0.228-1.483-0.16-1.034-0.004,0.004
			l-0.007,0.008C31.4,14.606,29.134,0.883,29.134,0.883L16.145,6.162l0.242,0.964c0,0,3.289-1.267,4.385-0.057
			c0.139,0.159,0.27,0.257,0.463,0.814c0.301,0.971,0.755,2.984,1.576,7.411c0.205,1.306-0.528,2.018-0.528,2.018l-5.744,5.782
			C15.238,14.635,12.98,0.978,12.98,0.978L0,6.258l0.239,0.958c0,0,3.285-1.261,4.384-0.042c0.52,0.567,0.86,0.324,5.151,25.91
			c0,0,0.655,3.477-2.983,6.559l0.991,1.194c0,0,10.366-6.76,9.321-14.017c-0.022-0.194-0.056-0.389-0.089-0.593l6.625-6.577
			c0.605,3.398,1.352,7.74,2.283,13.336c0,0,0.65,3.469-2.987,6.557l1.002,1.188C23.939,40.733,34.298,33.979,33.253,26.713
			L33.253,26.713z"/>
		<path fill="#FFFFFF" d="M79.549,18.194c-0.059,0.269-0.126,0.541-0.197,0.807c-0.224,0.904-0.427,1.743-0.432,1.743h3.669
			c0,0,0.224-0.913,0.481-1.884c0.286-1.11,0.604-2.305,0.604-2.312c0.471-1.923-0.774-5.123-3.813-4.589
			c-1.106,0.201-2.103,0.732-3.072,1.302c-1.418,0.826-2.73,1.894-3.984,2.984l-2.23,7.573l-5.075,0.005
			c1.078-4.082,1.822-4.524-0.063-6.778l-2.826,1.341c0.382,0.897,0.237,1.458,0.092,2.173c-0.339,1.113-0.95,3.291-0.95,3.291
			h-1.988l-0.597,1.86l2.05-0.007l-3.146,12.687c0.064,0.593,1.398,2.435,3.014,2.45l4.631-2.88l-0.563-0.967
			c-2.733,1.778-3.047,0.534-3.029-0.049c0.975-3.724,2.806-11.225,2.806-11.225h4.454c0,0,0.786-0.091,0.594,0.577l-3.477,14.173
			l3.814-0.033l3.642-14.713l2.533-0.004c0.705,0.091,1.192,0.341,0.97,1.196c0,0-2.817,11.403-2.839,11.474
			c0.055,0.593,1.394,2.435,3.006,2.45l4.631-2.88l-0.559-0.963c-1.213,0.781-1.944,0.971-2.38,0.9l-0.04-0.016l-0.055-0.012
			l-0.055-0.017h-0.023c-0.409-0.17-0.486-0.613-0.475-0.907c0.978-3.724,3.265-13.12,3.265-13.12h-7.542l1.869-7.104
			c0.427-1.082,1.783-2.031,2.82-1.866c1.128,0.178,0.861,1.637,0.519,3.126C79.584,18.052,79.569,18.135,79.549,18.194
			L79.549,18.194z"/>
		<path fill="#FFFFFF" d="M44.885,37.266h0.009H44.885z"/>
		<path fill="#FFFFFF" d="M6.493,3.968"/>
		<path fill="#FFFFFF" d="M58.902,27.333L58.902,27.333c-0.087-0.184-0.174-0.372-0.268-0.542c-0.868-1.771-1.957-2.582-3.072-2.898
			c-0.048-0.022-0.109-0.029-0.16-0.048c-0.252-0.059-0.554-0.093-0.869-0.093c-2.159,0.015-5.479,1.445-6.32,3.61
			c-0.441,1.126-1.058,3.122-0.9,4.252c0.02,0.131,0.047,0.261,0.091,0.37c0.145,0.349,0.384,0.619,0.695,0.851
			c0.794,0.612,2.094,0.878,3.264,1.25l0.052,0.022c0.1,0.03,0.211,0.067,0.313,0.099c0.475,0.196,0.847,0.453,0.928,0.894
			c0.126,0.713-0.251,2.017-0.751,2.824c-1.182,1.961-2.711,0.775-4.152-2.342l-0.033,0.011h-0.004
			c-0.101,0.056-2.733,1.611-2.823,1.671c0.082,0.193,0.177,0.372,0.271,0.541c0.86,1.775,1.945,2.586,3.072,2.905
			c0.055,0.016,0.111,0.033,0.164,0.045c0.253,0.067,0.55,0.097,0.866,0.089c2.15-0.011,5.479-1.445,6.32-3.608
			c0.438-1.13,1.049-3.118,0.897-4.248c-0.016-0.142-0.051-0.263-0.096-0.375c-0.141-0.343-0.38-0.617-0.684-0.841
			c-0.801-0.622-2.1-0.889-3.273-1.264l-0.05-0.01c-0.106-0.039-0.204-0.074-0.303-0.109c-0.484-0.196-0.859-0.451-0.937-0.889
			c-0.126-0.715,0.253-2.011,0.748-2.819c1.191-1.966,2.722-0.772,4.165,2.333l0.016-0.01h0.011
			C56.18,28.955,58.812,27.392,58.902,27.333L58.902,27.333z"/>
		<path fill="#FFFFFF" d="M114.101,27.903l-2.091,7.568c-0.115,0.452-0.348,0.638-0.508,0.817c-2.523,2.029-5.481,2.84-4.42-1.486
			c0,0,1.798-7.039,2.114-7.522C110.793,25.199,114.329,24.923,114.101,27.903L114.101,27.903z M125.942,12.204
			c-2.702-0.063-5.68,0.184-7.672,2.29c-1.14,2.15-3.376,10.169-3.376,10.169c-0.683-0.969-6.15-2.212-9.29,1.976l-0.023,0.04
			c-0.409,0.824-2.724,9.971-2.749,9.984c-0.755,0.543-2.832,1.313-3.136,1.283c-0.465-0.206-0.714-0.564-0.636-1.08
			c2.046-6.977,3.459-14.116,5.762-20.99c0.858-1.745,2.759-2.515,4.577-2.728l-0.075-0.944c-2.691-0.063-5.668,0.184-7.664,2.29
			c-1.492,2.453-6.465,22.926-6.465,22.926c-0.246,1.696,1.559,3.551,2.781,3.417c1.783-0.767,3.378-1.831,5.041-2.818
			c0.549,0.74,1.433,1.713,2.17,2.232c2.147,1.541,6.369-1.202,6.393-1.163c0.598,0.925,1.523,1.928,3.119,1.63
			c1.22-0.397,5.978-3.499,5.978-3.499l-0.636-1.037c0,0-2.518,1.6-3.963,1.757c0,0-0.858-0.062-0.598-1.057l5.943-21.006
			c0.866-1.745,2.769-2.515,4.576-2.728L125.942,12.204z"/>
		<path fill="#FFFFFF" d="M92.447,29.134c-0.824,2.375-3.778,2.068-4.242,1.99v0.003c-0.078-0.038-0.049-0.178-0.049-0.178
			l0.744-2.846c0.457-1.622,2.452-2.574,3.281-2.353C93.547,26.291,92.447,29.134,92.447,29.134L92.447,29.134z M95.59,24.364
			c-1.245-1.218-3.949-0.523-5.668-0.1c-1.82,0.579-3.835,1.205-4.699,3.284c-0.692,2.401-1.854,6.849-2.497,9.777
			c-0.028,0.792,2.549,3.364,4.45,3.515c0.566,0.212,6.462-3.604,6.462-3.604l-0.629-1.053c0,0-2.391,1.522-3.848,1.712
			c-0.067,0.006-0.141-0.007-0.141-0.007c-0.848-0.125-1.899-0.764-2.192-1.505c-0.107-0.238,0.729-3.217,0.729-3.217
			s5.665,0.263,7.358-1.882C96.136,29.296,96.994,25.933,95.59,24.364L95.59,24.364z"/>
		<path fill="#FFFFFF" d="M42.771,29.134c-0.828,2.375-3.775,2.068-4.238,1.99v0.003c-0.083-0.038-0.048-0.178-0.048-0.178
			l0.746-2.846c0.461-1.622,2.445-2.574,3.277-2.353C43.879,26.291,42.771,29.134,42.771,29.134L42.771,29.134z M45.919,24.364
			c-1.249-1.218-3.953-0.523-5.677-0.1c-1.814,0.579-3.834,1.205-4.695,3.284c-0.695,2.401-1.85,6.849-2.487,9.777
			c-0.034,0.792,2.546,3.364,4.443,3.515c0.569,0.212,6.461-3.604,6.461-3.604l-0.627-1.053c0,0-2.401,1.522-3.853,1.712
			c-0.06,0.006-0.138-0.007-0.138-0.007c-0.848-0.125-1.89-0.764-2.185-1.505c-0.119-0.238,0.718-3.217,0.718-3.217
			s5.677,0.263,7.363-1.882C46.464,29.296,47.322,25.933,45.919,24.364L45.919,24.364z"/>
	</g>
	<g opacity="0.3">
		<path fill="#FFFFFF" d="M96.178,1.36h2.65c1.229,0,2.115,0.179,2.664,0.537c0.547,0.358,0.82,0.924,0.82,1.697
			c0,0.521-0.135,0.954-0.402,1.3c-0.27,0.346-0.656,0.564-1.16,0.653v0.061c0.627,0.118,1.088,0.351,1.383,0.699
			c0.295,0.348,0.441,0.819,0.441,1.413c0,0.802-0.279,1.429-0.838,1.883c-0.561,0.454-1.338,0.681-2.336,0.681h-3.223V1.36z
			 M97.637,5.046h1.404c0.609,0,1.057-0.097,1.336-0.29c0.281-0.193,0.422-0.522,0.422-0.986c0-0.419-0.152-0.722-0.455-0.909
			S99.561,2.581,98.9,2.581h-1.264V5.046z M97.637,6.23v2.826h1.551c0.609,0,1.07-0.117,1.383-0.351
			c0.311-0.234,0.467-0.604,0.467-1.108c0-0.464-0.158-0.808-0.477-1.031c-0.316-0.224-0.799-0.336-1.447-0.336H97.637z"/>
		<path fill="#FFFFFF" d="M109.49,10.283h-5.048V1.36h5.048v1.233h-3.589v2.429h3.363v1.221h-3.363v2.801h3.589V10.283z"/>
		<path fill="#FFFFFF" d="M114.772,10.283h-1.458V2.611h-2.625V1.36h6.708v1.251h-2.625V10.283z"/>
		<path fill="#FFFFFF" d="M123.622,10.283l-0.892-2.478h-3.411l-0.873,2.478h-1.538l3.339-8.96h1.587l3.338,8.96H123.622z
			 M122.347,6.548l-0.837-2.429c-0.061-0.163-0.146-0.419-0.253-0.769s-0.182-0.606-0.223-0.769c-0.11,0.5-0.271,1.048-0.482,1.642
			l-0.806,2.325H122.347z"/>
	</g>
</g>
</svg>
