<svg viewBox="0 0 126 41" style="background-color:#ffffff00" version="1.1" xmlns="http://www.w3.org/2000/svg" xmlns:xlink="http://www.w3.org/1999/xlink" xml:space="preserve" x="0" y="0" width="126px" height="41px">
	<g>
		<path d="M 33.2532 26.7132 C 33.2231 26.5457 33.1984 26.3694 33.1747 26.1789 L 33.1833 26.1789 L 39.8409 19.5569 L 44.9838 14.4268 C 44.9838 14.4268 46.9169 12.3974 46.7585 9.6781 C 45.9549 4.7501 45.301 0.8475 45.301 0.8475 L 32.3846 6.1049 L 32.3253 6.134 L 32.566 7.083 C 32.566 7.083 35.8541 5.8246 36.9496 7.0364 C 37.0878 7.1848 37.2175 7.2849 37.4102 7.8382 C 37.7157 8.8238 38.1681 10.8361 38.985 15.2657 C 39.15 16.2373 38.7696 16.8726 38.573 17.1409 C 38.5441 17.1779 38.5212 17.1981 38.5212 17.1981 L 32.7153 23.0516 C 32.4878 21.5683 32.5549 22.0179 32.7116 23.0557 L 32.7043 23.0637 C 31.3999 14.6056 29.1337 0.883 29.1337 0.883 L 16.1451 6.1622 L 16.3875 7.1257 C 16.3875 7.1257 19.6762 5.859 20.7728 7.0686 C 20.9114 7.2275 21.043 7.3258 21.2355 7.8826 C 21.5361 8.8537 21.9904 10.8666 22.8115 15.2939 C 23.0161 16.5995 22.2834 17.3115 22.2834 17.3115 L 16.5391 23.0935 C 15.2383 14.6352 12.9802 0.9776 12.9802 0.9776 L 0 6.2584 L 0.239 7.2163 C 0.239 7.2163 3.5236 5.955 4.6231 7.1741 C 5.1426 7.7415 5.4831 7.4979 9.7744 33.0843 C 9.7744 33.0843 10.4294 36.5613 6.7918 39.6435 L 7.7826 40.8378 C 7.7826 40.8378 18.1488 34.0777 17.1041 26.8211 C 17.0819 26.6271 17.0486 26.432 17.0149 26.2282 L 23.6404 19.6517 C 24.2451 23.0493 24.992 27.392 25.9237 32.9881 C 25.9237 32.9881 26.5741 36.4569 22.937 39.5449 L 23.9393 40.7331 C 23.9393 40.7331 34.298 33.9792 33.2532 26.7132 L 33.2532 26.7132 Z" fill="#d92c26"/>
		<path d="M 79.549 18.1939 C 79.4897 18.4633 79.4233 18.7346 79.3524 19.0007 C 79.1289 19.9049 78.9256 20.7438 78.9205 20.7438 L 82.5891 20.7438 C 82.5891 20.7438 82.8134 19.8307 83.0699 18.8595 C 83.356 17.7498 83.674 16.555 83.674 16.5474 C 84.145 14.6241 82.9 11.4248 79.8606 11.9584 C 78.7545 12.1591 77.7578 12.6902 76.7884 13.26 C 75.3701 14.0857 74.058 15.1543 72.8039 16.2445 L 70.5735 23.817 L 65.4985 23.8223 C 66.5766 19.7406 67.3207 19.2987 65.4354 17.0441 L 62.609 18.3848 C 62.9912 19.2819 62.8458 19.8432 62.701 20.5576 C 62.3625 21.6706 61.7506 23.8485 61.7506 23.8485 L 59.7629 23.8485 L 59.1654 25.7086 L 61.2151 25.7011 L 58.0686 38.3881 C 58.1324 38.9814 59.4666 40.823 61.0824 40.8378 L 65.7139 37.9577 L 65.1508 36.9911 C 62.4175 38.7695 62.104 37.5251 62.1221 36.9424 C 63.097 33.2183 64.9278 25.7179 64.9278 25.7179 L 69.3823 25.7179 C 69.3823 25.7179 70.1685 25.6271 69.9764 26.2948 L 66.4991 40.4676 L 70.3132 40.4343 L 73.9549 25.7217 L 76.4881 25.7179 C 77.1931 25.8092 77.6801 26.0589 77.4585 26.9142 C 77.4585 26.9142 74.6417 38.3171 74.6191 38.3881 C 74.6742 38.9814 76.0128 40.823 77.625 40.8378 L 82.2564 37.9577 L 81.6975 36.9945 C 80.485 37.7757 79.7534 37.9652 79.3178 37.8949 L 79.2778 37.879 L 79.2227 37.8667 L 79.1674 37.8498 L 79.1443 37.8498 C 78.7357 37.6794 78.6579 37.2364 78.6691 36.9424 C 79.647 33.2183 81.9342 23.8223 81.9342 23.8223 L 74.3921 23.8223 L 76.2614 16.7179 C 76.6887 15.6362 78.0442 14.6871 79.0811 14.8514 C 80.2094 15.0293 79.9422 16.4881 79.5998 17.9773 C 79.584 18.0521 79.5686 18.1345 79.549 18.1939 L 79.549 18.1939 Z" fill="#d92c26"/>
		<path d="M 44.8852 37.2656 L 44.8943 37.2656 L 44.8852 37.2656 Z" fill="#d92c26"/>
		<path d="M 6.493 3.9684 L 6.493 3.9684 Z" fill="#d92c26"/>
		<path d="M 58.9019 27.3328 L 58.9019 27.3328 C 58.8154 27.1492 58.7282 26.9604 58.6341 26.7912 C 57.7661 25.0203 56.6773 24.2088 55.5619 23.8929 C 55.5144 23.8713 55.453 23.8637 55.4019 23.8447 C 55.1498 23.7858 54.8483 23.7516 54.5325 23.7516 C 52.3735 23.7669 49.0535 25.1968 48.2126 27.362 C 47.7719 28.4877 47.155 30.4841 47.3126 31.6138 C 47.3327 31.7448 47.3593 31.875 47.4039 31.9836 C 47.5487 32.3331 47.7876 32.6024 48.0992 32.8347 C 48.8934 33.4468 50.193 33.7132 51.3634 34.085 L 51.4156 34.1075 C 51.5159 34.1377 51.6269 34.1747 51.7282 34.2067 C 52.2033 34.4029 52.5753 34.6599 52.656 35.1005 C 52.7817 35.813 52.4047 37.1175 51.9054 37.924 C 50.7229 39.8853 49.1947 38.6986 47.7533 35.5824 L 47.7205 35.5934 L 47.7165 35.5934 C 47.6152 35.6499 44.9838 37.2041 44.893 37.2642 C 44.9747 37.4576 45.0698 37.6358 45.1642 37.8055 C 46.0242 39.5803 47.1095 40.3912 48.2362 40.7107 C 48.291 40.727 48.3474 40.744 48.3998 40.7562 C 48.6523 40.823 48.9503 40.8528 49.2657 40.8447 C 51.4156 40.8337 54.7452 39.3996 55.5854 37.2364 C 56.0229 36.1068 56.6344 34.1184 56.4823 32.9881 C 56.4659 32.8463 56.4311 32.7246 56.3868 32.6132 C 56.2454 32.2703 56.007 31.9961 55.7032 31.7724 C 54.9019 31.1501 53.6028 30.8836 52.4304 30.5084 L 52.3808 30.4983 C 52.2744 30.4597 52.1769 30.424 52.0778 30.3895 C 51.5934 30.1931 51.2187 29.9383 51.1407 29.5002 C 51.0146 28.7851 51.3941 27.4894 51.889 26.6817 C 53.0803 24.7157 54.611 25.9093 56.0539 29.0148 L 56.0701 29.0052 L 56.0814 29.0052 C 56.1797 28.9547 58.8119 27.392 58.9019 27.3328 L 58.9019 27.3328 Z" fill="#d92c26"/>
		<path d="M 114.101 27.9031 L 112.0102 35.471 C 111.8948 35.923 111.6621 36.1092 111.5018 36.2877 C 108.9786 38.3171 106.0209 39.1281 107.0814 34.8018 C 107.0814 34.8018 108.8793 27.7625 109.1956 27.2801 C 110.7928 25.1993 114.3288 24.9229 114.101 27.9031 L 114.101 27.9031 ZM 125.9417 12.2039 C 123.2393 12.1406 120.2614 12.3883 118.2695 14.4944 C 117.1292 16.6444 114.8939 24.6633 114.8939 24.6633 C 114.2104 23.694 108.7436 22.4514 105.6042 26.6392 L 105.5807 26.6795 C 105.1718 27.504 102.8568 36.6501 102.8318 36.6632 C 102.0769 37.206 99.9995 37.9765 99.6958 37.9462 C 99.2312 37.7403 98.9818 37.3826 99.0601 36.8667 C 101.1063 29.89 102.5193 22.7511 104.8222 15.8764 C 105.68 14.1309 107.581 13.3612 109.3989 13.1484 L 109.324 12.2039 C 106.6334 12.1406 103.6555 12.3883 101.6596 14.4944 C 100.1674 16.9473 95.1943 37.4203 95.1943 37.4203 C 94.9478 39.1168 96.7531 40.9711 97.9755 40.8378 C 99.7589 40.0705 101.3531 39.0071 103.0164 38.0198 C 103.5659 38.7601 104.4491 39.7325 105.1867 40.2519 C 107.3334 41.7931 111.5561 39.05 111.5794 39.0885 C 112.1778 40.0139 113.1028 41.0161 114.6989 40.7189 C 115.9193 40.3223 120.677 37.2198 120.677 37.2198 L 120.0413 36.1826 C 120.0413 36.1826 117.5232 37.7829 116.0782 37.9395 C 116.0782 37.9395 115.2206 37.8774 115.4804 36.8828 L 121.4239 15.8764 C 122.2897 14.1309 124.193 13.3612 126 13.1484 L 125.9417 12.2039 Z" fill="#d92c26"/>
		<path d="M 92.4467 29.1337 C 91.623 31.5089 88.6685 31.2017 88.2052 31.1239 L 88.2052 31.1274 C 88.1268 31.0899 88.1561 30.9489 88.1561 30.9489 L 88.9 28.1028 C 89.3566 26.4804 91.3518 25.5287 92.1806 25.7494 C 93.5469 26.2909 92.4467 29.1337 92.4467 29.1337 L 92.4467 29.1337 ZM 95.5901 24.3637 C 94.3455 23.1457 91.6411 23.8408 89.9217 24.2636 C 88.1021 24.8421 86.0865 25.4685 85.2227 27.5471 C 84.5312 29.9481 83.3684 34.3962 82.7254 37.3236 C 82.6977 38.1158 85.2743 40.6872 87.1753 40.839 C 87.7412 41.051 93.6371 37.2352 93.6371 37.2352 L 93.0079 36.1826 C 93.0079 36.1826 90.6164 37.7045 89.1598 37.8949 C 89.0927 37.9006 89.0185 37.8879 89.0185 37.8879 C 88.1707 37.7629 87.1197 37.1243 86.8264 36.3828 C 86.7193 36.1446 87.5558 33.1657 87.5558 33.1657 C 87.5558 33.1657 93.2209 33.4283 94.9136 31.2833 C 96.1361 29.2964 96.994 25.9325 95.5901 24.3637 L 95.5901 24.3637 Z" fill="#d92c26"/>
		<path d="M 42.7713 29.1337 C 41.9433 31.5089 38.9968 31.2017 38.533 31.1239 L 38.533 31.1274 C 38.45 31.0899 38.4849 30.9489 38.4849 30.9489 L 39.2311 28.1028 C 39.6917 26.4804 41.6758 25.5287 42.5079 25.7494 C 43.8786 26.2909 42.7713 29.1337 42.7713 29.1337 L 42.7713 29.1337 ZM 45.9187 24.3637 C 44.6693 23.1457 41.9653 23.8408 40.2415 24.2636 C 38.4277 24.8421 36.4075 25.4685 35.5465 27.5471 C 34.8515 29.9481 33.6961 34.3962 33.0599 37.3236 C 33.0255 38.1158 35.6054 40.6872 37.5031 40.839 C 38.0724 41.051 43.9643 37.2352 43.9643 37.2352 L 43.3369 36.1826 C 43.3369 36.1826 40.9362 37.7045 39.4837 37.8949 C 39.4239 37.9006 39.3462 37.8879 39.3462 37.8879 C 38.4979 37.7629 37.4558 37.1243 37.1615 36.3828 C 37.0428 36.1446 37.8791 33.1657 37.8791 33.1657 C 37.8791 33.1657 43.5561 33.4283 45.2419 31.2833 C 46.4637 29.2964 47.3217 25.9325 45.9187 24.3637 L 45.9187 24.3637 Z" fill="#d92c26"/>
	</g>
</svg>