<svg xmlns="http://www.w3.org/2000/svg" width="30" height="30" viewBox="0 0 49.844 49.849" enable-background="new 0 0 49.844 49.849"><g><path d="M.172 24.846c-.041 13.643 11.018 24.785 24.667 24.831 13.647.046 24.793-11.032 24.832-24.674.046-13.64-11.02-24.784-24.667-24.83-13.644-.044-24.786 11.028-24.832 24.673" fill="#fff"/><path d="M.172 24.846c-.041 13.643 11.018 24.785 24.667 24.831 13.647.046 24.793-11.032 24.832-24.674.046-13.64-11.02-24.784-24.667-24.83-13.644-.044-24.786 11.028-24.832 24.673z" stroke="#232020" stroke-width=".344" fill="none"/><path d="M24.849 46.307c11.814.048 21.421-9.497 21.457-21.317.041-11.8-9.501-21.412-21.308-21.448-11.807-.037-21.419 9.505-21.46 21.312-.039 11.81 9.504 21.416 21.311 21.453" fill="#144C8D"/><path d="M18.18 12.146l1.269 15.054 10.892.039 4.729 10.58 5.718-2.526-.913-1.973-3.705 1.654-4.426-9.972-10.254-.037-.172-2.118 7.503.028.009-2.278-7.702-.032-.53-6.557c.06.011.229.011.372 0 1.528-.096 2.691-1.409 2.593-2.937-.087-1.533-1.402-2.687-2.93-2.59-1.528.08-2.687 1.397-2.59 2.925.004.263.057.506.137.74m13.588 22.733l-1.427-3.173c-.599 3.772-3.467 6.75-7.771 7.016-4.442.275-8.248-3.329-8.515-7.723-.186-2.98 1.397-5.849 3.632-7.289l-.223-2.496c-3.568 1.84-5.94 5.667-5.681 9.93.356 5.745 5.25 10.21 11.004 9.852 4-.243 7.432-2.703 8.981-6.117" fill="#fff"/></g></svg>