<?xml version="1.0" encoding="iso-8859-1"?>
<!-- Generator: Adobe Illustrator 17.0.0, SVG Export Plug-In . SVG Version: 6.00 Build 0)  -->
<!DOCTYPE svg PUBLIC "-//W3C//DTD SVG 1.1//EN" "http://www.w3.org/Graphics/SVG/1.1/DTD/svg11.dtd">
<svg version="1.1" xmlns="http://www.w3.org/2000/svg" xmlns:xlink="http://www.w3.org/1999/xlink" x="0px" y="0px"
	 width="30px" height="30px" viewBox="0 0 49.844 49.849" style="enable-background:new 0 0 49.844 49.849;"
	 xml:space="preserve">
<g id="accessible">
	<g>
		<path style="fill:#FFFFFF;" d="M0.172,24.846C0.131,38.489,11.19,49.631,24.839,49.677c13.647,0.046,24.793-11.032,24.832-24.674
			c0.046-13.64-11.02-24.784-24.667-24.83C11.36,0.129,0.218,11.201,0.172,24.846"/>
		<path style="fill:none;stroke:#232020;stroke-width:0.344;" d="M0.172,24.846C0.131,38.489,11.19,49.631,24.839,49.677
			c13.647,0.046,24.793-11.032,24.832-24.674c0.046-13.64-11.02-24.784-24.667-24.83C11.36,0.129,0.218,11.201,0.172,24.846z"/>
		<path style="fill:#144C8D;" d="M24.849,46.307c11.814,0.048,21.421-9.497,21.457-21.317c0.041-11.8-9.501-21.412-21.308-21.448
			C13.191,3.505,3.579,13.047,3.538,24.854C3.499,36.664,13.042,46.27,24.849,46.307"/>
		<path style="fill:#FFFFFF;" d="M18.18,12.146L19.449,27.2l10.892,0.039l4.729,10.58l5.718-2.526l-0.913-1.973l-3.705,1.654
			l-4.426-9.972l-10.254-0.037l-0.172-2.118l7.503,0.028l0.009-2.278l-7.702-0.032l-0.53-6.557c0.06,0.011,0.229,0.011,0.372,0
			c1.528-0.096,2.691-1.409,2.593-2.937c-0.087-1.533-1.402-2.687-2.93-2.59c-1.528,0.08-2.687,1.397-2.59,2.925
			C18.047,11.669,18.1,11.912,18.18,12.146 M31.768,34.879l-1.427-3.173c-0.599,3.772-3.467,6.75-7.771,7.016
			c-4.442,0.275-8.248-3.329-8.515-7.723c-0.186-2.98,1.397-5.849,3.632-7.289l-0.223-2.496c-3.568,1.84-5.94,5.667-5.681,9.93
			c0.356,5.745,5.25,10.21,11.004,9.852C26.787,40.753,30.219,38.293,31.768,34.879"/>
	</g>
</g>
<g id="Layer_1">
</g>
</svg>
