<?xml version="1.0" encoding="iso-8859-1"?>
<!-- Generator: Adobe Illustrator 17.0.0, SVG Export Plug-In . SVG Version: 6.00 Build 0)  -->
<!DOCTYPE svg PUBLIC "-//W3C//DTD SVG 1.1//EN" "http://www.w3.org/Graphics/SVG/1.1/DTD/svg11.dtd">
<svg version="1.1" id="Layer_1" xmlns="http://www.w3.org/2000/svg" xmlns:xlink="http://www.w3.org/1999/xlink" x="0px" y="0px"
	 width="50px" height="50px" viewBox="0 0 50 50" style="enable-background:new 0 0 50 50;" xml:space="preserve">
<g>
	<path style="fill:#FFFFFF;" d="M0.25,24.924c-0.041,13.643,11.018,24.784,24.667,24.83C38.565,49.8,49.711,38.723,49.75,25.08
		C49.796,11.44,38.73,0.296,25.083,0.25C11.438,0.207,0.296,11.279,0.25,24.924"/>
	<path style="fill:none;stroke:#232020;stroke-width:0.344;" d="M0.25,24.924c-0.041,13.643,11.018,24.784,24.667,24.83
		C38.565,49.8,49.711,38.723,49.75,25.08C49.796,11.44,38.73,0.296,25.083,0.25C11.438,0.207,0.296,11.279,0.25,24.924z"/>
	<path style="fill:#144C8D;" d="M24.927,46.385c11.814,0.048,21.421-9.497,21.457-21.317c0.041-11.8-9.501-21.412-21.308-21.448
		C13.269,3.583,3.657,13.125,3.616,24.932C3.577,36.742,13.12,46.348,24.927,46.385"/>
	<path style="fill:#FFFFFF;" d="M18.258,12.224l1.269,15.054l10.892,0.039l4.729,10.58l5.718-2.526l-0.913-1.973l-3.705,1.654
		l-4.426-9.972l-10.254-0.037l-0.172-2.118l7.503,0.028l0.009-2.278l-7.702-0.032l-0.53-6.557c0.06,0.011,0.229,0.011,0.372,0
		c1.528-0.096,2.691-1.409,2.593-2.937c-0.087-1.533-1.402-2.687-2.93-2.59c-1.528,0.08-2.687,1.397-2.59,2.925
		C18.125,11.747,18.178,11.99,18.258,12.224 M31.846,34.957l-1.427-3.173c-0.599,3.772-3.467,6.75-7.771,7.016
		c-4.442,0.275-8.248-3.329-8.515-7.723c-0.186-2.98,1.397-5.849,3.632-7.289l-0.223-2.496c-3.568,1.84-5.94,5.667-5.681,9.93
		c0.356,5.745,5.25,10.21,11.004,9.852C26.865,40.831,30.297,38.371,31.846,34.957"/>
</g>
</svg>
