<svg xmlns="http://www.w3.org/2000/svg" width="30" height="30" viewBox="0 0 49.844 49.839" enable-background="new 0 0 49.844 49.839"><g><path d="M.172 24.931c0 13.64 11.103 24.736 24.743 24.736 13.647 0 24.757-11.089 24.757-24.736 0-13.64-11.103-24.75-24.745-24.759-13.645 0-24.75 11.11-24.755 24.759" fill="#fff"/><path d="M.172 24.931c0 13.64 11.103 24.736 24.743 24.736 13.647 0 24.757-11.089 24.757-24.736 0-13.64-11.103-24.75-24.745-24.759-13.645 0-24.75 11.11-24.755 24.759z" stroke="#232020" stroke-width=".344" fill="none"/><path d="M24.916 46.315c11.815.009 21.39-9.579 21.395-21.383 0-11.809-9.566-21.395-21.381-21.395-11.818 0-21.397 9.572-21.397 21.381-.001 11.818 9.572 21.397 21.383 21.397" fill="#372620"/><path d="M11.029 17.41l4.216.009 3.57 14.332h-3.497l-.516-2.729h-3.435l-.502 2.729h-3.49l3.654-14.341zm2.046 2.615h-.037l-1.185 6.382h2.444l-1.222-6.382" fill="#fff"/><polygon points="20.387,20.148 17.37,20.148 17.377,17.411 26.776,17.411 26.776,20.148 23.761,20.148 23.761,31.753 20.381,31.753" fill="#fff"/><polygon points="28.037,17.411 32.977,17.411 34.741,26.835 34.784,26.835 36.49,17.411 41.371,17.42 41.371,31.762 38.231,31.762 38.231,20.584 38.194,20.584 36.006,31.753 33.395,31.753 31.086,20.584 31.047,20.584 31.043,31.762 28.037,31.762" fill="#fff"/></g></svg>