<?xml version="1.0" encoding="iso-8859-1"?>
<!-- Generator: Adobe Illustrator 17.0.0, SVG Export Plug-In . SVG Version: 6.00 Build 0)  -->
<!DOCTYPE svg PUBLIC "-//W3C//DTD SVG 1.1//EN" "http://www.w3.org/Graphics/SVG/1.1/DTD/svg11.dtd">
<svg version="1.1" id="Layer_1" xmlns="http://www.w3.org/2000/svg" xmlns:xlink="http://www.w3.org/1999/xlink" x="0px" y="0px"
	 width="50px" height="50px" viewBox="0 0 50 50" style="enable-background:new 0 0 50 50;" xml:space="preserve">
<g>
	<path style="fill:#FFFFFF;" d="M0.25,25.009c0,13.64,11.103,24.736,24.743,24.736c13.647,0,24.757-11.089,24.757-24.736
		c0-13.64-11.103-24.75-24.745-24.759C11.36,0.25,0.255,11.36,0.25,25.009"/>
	<path style="fill:none;stroke:#232020;stroke-width:0.344;" d="M0.25,25.009c0,13.64,11.103,24.736,24.743,24.736
		c13.647,0,24.757-11.089,24.757-24.736c0-13.64-11.103-24.75-24.745-24.759C11.36,0.25,0.255,11.36,0.25,25.009z"/>
	<path style="fill:#372620;" d="M24.994,46.393c11.815,0.009,21.39-9.579,21.395-21.383c0-11.809-9.566-21.395-21.381-21.395
		C13.19,3.615,3.61,13.187,3.61,24.996C3.61,36.814,13.183,46.393,24.994,46.393"/>
	<path style="fill:#FFFFFF;" d="M11.107,17.488l4.216,0.009l3.57,14.332h-3.497L14.88,29.1h-3.435l-0.502,2.729h-3.49L11.107,17.488
		z M13.153,20.103h-0.037l-1.185,6.382h2.444L13.153,20.103"/>
	<polygon style="fill:#FFFFFF;" points="20.465,20.226 17.448,20.226 17.455,17.489 26.854,17.489 26.854,20.226 23.839,20.226 
		23.839,31.831 20.459,31.831 	"/>
	<polygon style="fill:#FFFFFF;" points="28.115,17.489 33.055,17.489 34.819,26.913 34.862,26.913 36.568,17.489 41.449,17.498 
		41.449,31.84 38.309,31.84 38.309,20.662 38.272,20.662 36.084,31.831 33.473,31.831 31.164,20.662 31.125,20.662 31.121,31.84 
		28.115,31.84 	"/>
</g>
</svg>
