<?xml version="1.0" encoding="iso-8859-1"?>
<!-- Generator: Adobe Illustrator 17.0.0, SVG Export Plug-In . SVG Version: 6.00 Build 0)  -->
<!DOCTYPE svg PUBLIC "-//W3C//DTD SVG 1.1//EN" "http://www.w3.org/Graphics/SVG/1.1/DTD/svg11.dtd">
<svg version="1.1" xmlns="http://www.w3.org/2000/svg" xmlns:xlink="http://www.w3.org/1999/xlink" x="0px" y="0px"
	 width="30px" height="30px" viewBox="0 0 49.844 49.839" style="enable-background:new 0 0 49.844 49.839;"
	 xml:space="preserve">
<g id="atm">
	<g>
		<path style="fill:#FFFFFF;" d="M0.172,24.931c0,13.64,11.103,24.736,24.743,24.736c13.647,0,24.757-11.089,24.757-24.736
			c0-13.64-11.103-24.75-24.745-24.759C11.282,0.172,0.177,11.282,0.172,24.931"/>
		<path style="fill:none;stroke:#232020;stroke-width:0.344;" d="M0.172,24.931c0,13.64,11.103,24.736,24.743,24.736
			c13.647,0,24.757-11.089,24.757-24.736c0-13.64-11.103-24.75-24.745-24.759C11.282,0.172,0.177,11.282,0.172,24.931z"/>
		<path style="fill:#372620;" d="M24.916,46.315c11.815,0.009,21.39-9.579,21.395-21.383c0-11.809-9.566-21.395-21.381-21.395
			c-11.818,0-21.397,9.572-21.397,21.381C3.532,36.736,13.105,46.315,24.916,46.315"/>
		<path style="fill:#FFFFFF;" d="M11.029,17.41l4.216,0.009l3.57,14.332h-3.497l-0.516-2.729h-3.435l-0.502,2.729h-3.49
			L11.029,17.41z M13.075,20.025h-0.037l-1.185,6.382h2.444L13.075,20.025"/>
		<polygon style="fill:#FFFFFF;" points="20.387,20.148 17.37,20.148 17.377,17.411 26.776,17.411 26.776,20.148 23.761,20.148 
			23.761,31.753 20.381,31.753 		"/>
		<polygon style="fill:#FFFFFF;" points="28.037,17.411 32.977,17.411 34.741,26.835 34.784,26.835 36.49,17.411 41.371,17.42 
			41.371,31.762 38.231,31.762 38.231,20.584 38.194,20.584 36.006,31.753 33.395,31.753 31.086,20.584 31.047,20.584 
			31.043,31.762 28.037,31.762 		"/>
	</g>
</g>
<g id="Layer_1">
</g>
</svg>
