<svg xmlns="http://www.w3.org/2000/svg" width="30" height="30" viewBox="0 0 49.844 49.844" enable-background="new 0 0 49.844 49.844"><g><path d="M.172 24.929c0 13.636 11.102 24.743 24.748 24.743 13.641 0 24.752-11.107 24.752-24.743 0-13.657-11.111-24.757-24.752-24.757-13.646 0-24.748 11.1-24.748 24.757" fill="#fff"/><path d="M.172 24.929c0 13.636 11.102 24.743 24.748 24.743 13.641 0 24.752-11.107 24.752-24.743 0-13.657-11.111-24.757-24.752-24.757-13.646 0-24.748 11.1-24.748 24.757z" stroke="#232020" stroke-width=".344" fill="none"/><path d="M24.92 46.31c11.812 0 21.394-9.575 21.394-21.38 0-11.819-9.582-21.399-21.394-21.399-11.814 0-21.392 9.58-21.392 21.399 0 11.804 9.577 21.38 21.392 21.38" fill="#372620"/><path d="M31.648 35.258v1.946c0 .909.728 1.628 1.634 1.628.897 0 1.628-.719 1.628-1.628 0-.499-.025-1.946-.025-1.946h2.149v-11.56s-.591-5.837-.831-8.172c-.279-2.587-.874-3.344-2.692-4.205-2.616-1.22-5.535-1.74-8.628-1.74-3.079 0-6.004.52-8.621 1.74-1.824.861-2.42 1.618-2.692 4.205-.245 2.335-.836 8.172-.836 8.172v11.56h2.154s-.025 1.447-.025 1.946c0 .909.726 1.628 1.625 1.628.906 0 1.632-.719 1.632-1.628v-1.946h13.528zm-16.772-5.445c0-.897.721-1.623 1.628-1.623.893 0 1.618.726 1.618 1.623 0 .902-.726 1.621-1.618 1.621-.907-.001-1.628-.72-1.628-1.621m16.772 0c0-.897.737-1.623 1.634-1.623.893 0 1.618.726 1.618 1.623 0 .902-.726 1.621-1.618 1.621-.897-.001-1.634-.72-1.634-1.621m-11.777-16.565c-.405 0-.739-.323-.739-.739 0-.403.334-.737.739-.737h10.093c.414 0 .746.334.746.737 0 .417-.332.739-.746.739h-10.093zm-3.866 10.546c-.664 0-1.152-.533-1.103-1.193.192-2.598.339-4.059.659-6.677.069-.545.549-.952 1.268-.952h16.141c.723 0 1.202.451 1.277 1.003.343 2.745.467 3.951.664 6.611.057.76-.462 1.209-1.042 1.209h-17.864" fill="#fff"/></g></svg>