<?xml version="1.0" encoding="utf-8"?>
<!-- Generator: Adobe Illustrator 17.0.0, SVG Export Plug-In . SVG Version: 6.00 Build 0)  -->
<!DOCTYPE svg PUBLIC "-//W3C//DTD SVG 1.1//EN" "http://www.w3.org/Graphics/SVG/1.1/DTD/svg11.dtd" [
	<!ENTITY ns_flows "http://ns.adobe.com/Flows/1.0/">
	<!ENTITY ns_extend "http://ns.adobe.com/Extensibility/1.0/">
	<!ENTITY ns_ai "http://ns.adobe.com/AdobeIllustrator/10.0/">
	<!ENTITY ns_graphs "http://ns.adobe.com/Graphs/1.0/">
]>
<svg version="1.1" id="Layer_1" xmlns:x="&ns_extend;" xmlns:i="&ns_ai;" xmlns:graph="&ns_graphs;"
	 xmlns="http://www.w3.org/2000/svg" xmlns:xlink="http://www.w3.org/1999/xlink" xmlns:a="http://ns.adobe.com/AdobeSVGViewerExtensions/3.0/"
	 x="0px" y="0px" width="30px" height="30px" viewBox="0 0 30 30" enable-background="new 0 0 30 30" xml:space="preserve">
<g>
	<path fill="#FFFFFF" d="M0,14.899c0,8.207,6.682,14.891,14.894,14.891c8.209,0,14.897-6.684,14.897-14.891
		C29.791,6.68,23.103,0,14.894,0C6.682,0,0,6.68,0,14.899"/>
	<path fill="none" stroke="#232020" stroke-width="0.344" d="M0,14.899c0,8.207,6.682,14.891,14.894,14.891
		c8.209,0,14.897-6.684,14.897-14.891C29.791,6.68,23.103,0,14.894,0C6.682,0,0,6.68,0,14.899z"/>
	<path fill="#362620" d="M14.894,27.767c7.109,0,12.876-5.763,12.876-12.867c0-7.113-5.767-12.878-12.876-12.878
		c-7.11,0-12.874,5.766-12.874,12.878C2.019,22.004,7.784,27.767,14.894,27.767"/>
	<path fill="#FFFFFF" d="M18.944,21.116v1.171c0,0.547,0.438,0.98,0.984,0.98c0.54,0,0.98-0.433,0.98-0.98
		c0-0.3-0.015-1.171-0.015-1.171h1.294v-6.957c0,0-0.355-3.513-0.5-4.918c-0.168-1.557-0.526-2.013-1.62-2.531
		c-1.575-0.734-3.331-1.047-5.192-1.047c-1.853,0-3.614,0.313-5.188,1.047c-1.098,0.518-1.456,0.974-1.62,2.531
		c-0.147,1.405-0.503,4.918-0.503,4.918v6.957h1.296c0,0-0.015,0.871-0.015,1.171c0,0.547,0.437,0.98,0.978,0.98
		c0.546,0,0.982-0.433,0.982-0.98v-1.171H18.944z M8.849,17.839c0-0.54,0.434-0.977,0.98-0.977c0.537,0,0.974,0.437,0.974,0.977
		c0,0.543-0.437,0.975-0.974,0.975C9.283,18.814,8.849,18.381,8.849,17.839 M18.944,17.839c0-0.54,0.444-0.977,0.984-0.977
		c0.537,0,0.974,0.437,0.974,0.977c0,0.543-0.437,0.975-0.974,0.975C19.387,18.814,18.944,18.381,18.944,17.839 M11.855,7.87
		c-0.244,0-0.445-0.194-0.445-0.445c0-0.242,0.201-0.444,0.445-0.444h6.074c0.249,0,0.449,0.201,0.449,0.444
		c0,0.251-0.2,0.445-0.449,0.445H11.855z M9.529,14.217c-0.4,0-0.693-0.321-0.664-0.718c0.116-1.564,0.204-2.443,0.397-4.019
		c0.041-0.328,0.331-0.573,0.763-0.573h9.714c0.435,0,0.723,0.271,0.769,0.603c0.207,1.652,0.281,2.378,0.399,3.979
		c0.034,0.457-0.278,0.727-0.627,0.727H9.529"/>
</g>
</svg>
