<?xml version="1.0" encoding="iso-8859-1"?>
<!-- Generator: Adobe Illustrator 17.0.0, SVG Export Plug-In . SVG Version: 6.00 Build 0)  -->
<!DOCTYPE svg PUBLIC "-//W3C//DTD SVG 1.1//EN" "http://www.w3.org/Graphics/SVG/1.1/DTD/svg11.dtd">
<svg version="1.1" xmlns="http://www.w3.org/2000/svg" xmlns:xlink="http://www.w3.org/1999/xlink" x="0px" y="0px"
	 width="30px" height="30px" viewBox="0 0 49.844 49.844" style="enable-background:new 0 0 49.844 49.844;"
	 xml:space="preserve">
<g id="bus">
	<g>
		<path style="fill:#FFFFFF;" d="M0.172,24.929c0,13.636,11.102,24.743,24.748,24.743c13.641,0,24.752-11.107,24.752-24.743
			c0-13.657-11.111-24.757-24.752-24.757C11.274,0.172,0.172,11.272,0.172,24.929"/>
		<path style="fill:none;stroke:#232020;stroke-width:0.344;" d="M0.172,24.929c0,13.636,11.102,24.743,24.748,24.743
			c13.641,0,24.752-11.107,24.752-24.743c0-13.657-11.111-24.757-24.752-24.757C11.274,0.172,0.172,11.272,0.172,24.929z"/>
		<path style="fill:#372620;" d="M24.92,46.31c11.812,0,21.394-9.575,21.394-21.38c0-11.819-9.582-21.399-21.394-21.399
			c-11.814,0-21.392,9.58-21.392,21.399C3.528,36.734,13.105,46.31,24.92,46.31"/>
		<path style="fill:#FFFFFF;" d="M31.648,35.258v1.946c0,0.909,0.728,1.628,1.634,1.628c0.897,0,1.628-0.719,1.628-1.628
			c0-0.499-0.025-1.946-0.025-1.946h2.149v-11.56c0,0-0.591-5.837-0.831-8.172c-0.279-2.587-0.874-3.344-2.692-4.205
			c-2.616-1.22-5.535-1.74-8.628-1.74c-3.079,0-6.004,0.52-8.621,1.74c-1.824,0.861-2.42,1.618-2.692,4.205
			c-0.245,2.335-0.836,8.172-0.836,8.172v11.56h2.154c0,0-0.025,1.447-0.025,1.946c0,0.909,0.726,1.628,1.625,1.628
			c0.906,0,1.632-0.719,1.632-1.628v-1.946H31.648z M14.876,29.813c0-0.897,0.721-1.623,1.628-1.623
			c0.893,0,1.618,0.726,1.618,1.623c0,0.902-0.726,1.621-1.618,1.621C15.597,31.433,14.876,30.714,14.876,29.813 M31.648,29.813
			c0-0.897,0.737-1.623,1.634-1.623c0.893,0,1.618,0.726,1.618,1.623c0,0.902-0.726,1.621-1.618,1.621
			C32.385,31.433,31.648,30.714,31.648,29.813 M19.871,13.248c-0.405,0-0.739-0.323-0.739-0.739c0-0.403,0.334-0.737,0.739-0.737
			h10.093c0.414,0,0.746,0.334,0.746,0.737c0,0.417-0.332,0.739-0.746,0.739H19.871z M16.005,23.794
			c-0.664,0-1.152-0.533-1.103-1.193c0.192-2.598,0.339-4.059,0.659-6.677c0.069-0.545,0.549-0.952,1.268-0.952h16.141
			c0.723,0,1.202,0.451,1.277,1.003c0.343,2.745,0.467,3.951,0.664,6.611c0.057,0.76-0.462,1.209-1.042,1.209H16.005"/>
	</g>
</g>
<g id="Layer_1">
</g>
</svg>
