<?xml version="1.0" encoding="iso-8859-1"?>
<!-- Generator: Adobe Illustrator 17.0.0, SVG Export Plug-In . SVG Version: 6.00 Build 0)  -->
<!DOCTYPE svg PUBLIC "-//W3C//DTD SVG 1.1//EN" "http://www.w3.org/Graphics/SVG/1.1/DTD/svg11.dtd">
<svg version="1.1" xmlns="http://www.w3.org/2000/svg" xmlns:xlink="http://www.w3.org/1999/xlink" x="0px" y="0px"
	 width="30px" height="30px" viewBox="0 0 49.844 49.837" style="enable-background:new 0 0 49.844 49.837;"
	 xml:space="preserve">
<g id="concierge_x5F_desk">
	<g>
		<path style="fill:#FFFFFF;" d="M0.172,24.924c0,13.64,11.105,24.741,24.748,24.741c13.647,0,24.752-11.1,24.752-24.741
			c0-13.64-11.105-24.752-24.752-24.752C11.277,0.172,0.172,11.284,0.172,24.924"/>
		<path style="fill:none;stroke:#232020;stroke-width:0.344;" d="M0.172,24.924c0,13.64,11.105,24.741,24.748,24.741
			c13.647,0,24.752-11.1,24.752-24.741c0-13.64-11.105-24.752-24.752-24.752C11.277,0.172,0.172,11.284,0.172,24.924"/>
		<path style="fill:none;stroke:#010101;stroke-width:0.153;" d="M0.172,24.924c0,13.64,11.105,24.741,24.748,24.741
			c13.647,0,24.752-11.1,24.752-24.741c0-13.64-11.105-24.752-24.752-24.752C11.277,0.172,0.172,11.284,0.172,24.924z"/>
		<path style="fill:#0F76BC;" d="M24.919,46.31c11.812,0,21.386-9.586,21.386-21.386c0-11.812-9.574-21.391-21.386-21.391
			c-11.814,0-21.391,9.579-21.391,21.391C3.528,36.724,13.105,46.31,24.919,46.31"/>
		<path style="fill:#FFFFFF;" d="M29.451,38.307h1.988v0.787H18.103v-0.787h1.988V20.278h-1.988v-0.789h11.348V38.307z
			 M24.771,9.541c2.313,0,4.222,1.895,4.222,4.21c0,2.32-1.908,4.229-4.222,4.229c-2.313,0-4.217-1.908-4.217-4.229
			C20.554,11.436,22.458,9.541,24.771,9.541"/>
	</g>
</g>
<g id="Layer_1">
</g>
</svg>
