<?xml version="1.0" encoding="iso-8859-1"?>
<!-- Generator: Adobe Illustrator 17.0.0, SVG Export Plug-In . SVG Version: 6.00 Build 0)  -->
<!DOCTYPE svg PUBLIC "-//W3C//DTD SVG 1.1//EN" "http://www.w3.org/Graphics/SVG/1.1/DTD/svg11.dtd">
<svg version="1.1" id="Layer_1" xmlns="http://www.w3.org/2000/svg" xmlns:xlink="http://www.w3.org/1999/xlink" x="0px" y="0px"
	 width="50px" height="50px" viewBox="0 0 50 50" style="enable-background:new 0 0 50 50;" xml:space="preserve">
<g>
	<path style="fill:#FFFFFF;" d="M0.25,25.002c0,13.64,11.105,24.741,24.748,24.741c13.647,0,24.752-11.1,24.752-24.741
		c0-13.64-11.105-24.752-24.752-24.752C11.355,0.25,0.25,11.362,0.25,25.002"/>
	<path style="fill:none;stroke:#232020;stroke-width:0.344;" d="M0.25,25.002c0,13.64,11.105,24.741,24.748,24.741
		c13.647,0,24.752-11.1,24.752-24.741c0-13.64-11.105-24.752-24.752-24.752C11.355,0.25,0.25,11.362,0.25,25.002"/>
	<path style="fill:none;stroke:#010101;stroke-width:0.153;" d="M0.25,25.002c0,13.64,11.105,24.741,24.748,24.741
		c13.647,0,24.752-11.1,24.752-24.741c0-13.64-11.105-24.752-24.752-24.752C11.355,0.25,0.25,11.362,0.25,25.002z"/>
	<path style="fill:#0F76BC;" d="M24.997,46.388c11.812,0,21.386-9.586,21.386-21.386c0-11.812-9.574-21.391-21.386-21.391
		c-11.814,0-21.391,9.579-21.391,21.391C3.606,36.802,13.183,46.388,24.997,46.388"/>
	<path style="fill:#FFFFFF;" d="M29.529,38.385h1.988v0.787H18.181v-0.787h1.988V20.356h-1.988v-0.789h11.348V38.385z M24.849,9.619
		c2.313,0,4.222,1.895,4.222,4.21c0,2.32-1.908,4.229-4.222,4.229c-2.313,0-4.217-1.908-4.217-4.229
		C20.632,11.514,22.536,9.619,24.849,9.619"/>
</g>
</svg>
