<svg xmlns="http://www.w3.org/2000/svg" width="30" height="30" viewBox="0 0 49.844 49.837" enable-background="new 0 0 49.844 49.837"><g><path d="M.172 24.924c0 13.64 11.105 24.741 24.748 24.741 13.647 0 24.752-11.1 24.752-24.741 0-13.64-11.105-24.752-24.752-24.752-13.643 0-24.748 11.112-24.748 24.752" fill="#fff"/><path d="M.172 24.924c0 13.64 11.105 24.741 24.748 24.741 13.647 0 24.752-11.1 24.752-24.741 0-13.64-11.105-24.752-24.752-24.752-13.643 0-24.748 11.112-24.748 24.752" stroke="#232020" stroke-width=".344" fill="none"/><path d="M.172 24.924c0 13.64 11.105 24.741 24.748 24.741 13.647 0 24.752-11.1 24.752-24.741 0-13.64-11.105-24.752-24.752-24.752-13.643 0-24.748 11.112-24.748 24.752z" stroke="#010101" stroke-width=".153" fill="none"/><path d="M24.919 46.31c11.812 0 21.386-9.586 21.386-21.386 0-11.812-9.574-21.391-21.386-21.391-11.814 0-21.391 9.579-21.391 21.391 0 11.8 9.577 21.386 21.391 21.386" fill="#0F76BC"/><path d="M29.451 38.307h1.988v.787h-13.336v-.787h1.988v-18.029h-1.988v-.789h11.348v18.818zm-4.68-28.766c2.313 0 4.222 1.895 4.222 4.21 0 2.32-1.908 4.229-4.222 4.229-2.313 0-4.217-1.908-4.217-4.229 0-2.315 1.904-4.21 4.217-4.21" fill="#fff"/></g></svg>