<svg xmlns="http://www.w3.org/2000/svg" width="30" height="30" viewBox="0 0 49.844 49.849" enable-background="new 0 0 49.844 49.849"><g><path d="M.172 24.843c-.041 13.65 11.021 24.79 24.668 24.834 13.646.048 24.795-11.032 24.831-24.673.049-13.642-11.017-24.791-24.665-24.832-13.646-.043-24.788 11.03-24.834 24.671" fill="#fff"/><path d="M.172 24.843c-.041 13.65 11.021 24.79 24.668 24.834 13.646.048 24.795-11.032 24.831-24.673.049-13.642-11.017-24.791-24.665-24.832-13.646-.043-24.788 11.03-24.834 24.671z" stroke="#232020" stroke-width=".344" fill="none"/><path d="M24.852 46.306c11.812.05 21.419-9.495 21.456-21.314.041-11.803-9.502-21.415-21.307-21.449-11.808-.039-21.419 9.504-21.465 21.311-.037 11.81 9.508 21.413 21.316 21.452" fill="#144C8D"/><path d="M30.159 26.232c-.487 3.329-3.343 5.881-6.813 5.881-3.804 0-6.886-3.079-6.886-6.881 0-2.191 1.021-4.139 2.613-5.394l-.117-2.129c-2.586 1.512-4.314 4.316-4.314 7.524 0 4.809 3.898 8.71 8.703 8.71 3.685 0 6.833-2.297 8.111-5.527l-1.297-2.184z" fill="#fff"/><path d="M30.062 24.149h-7.503c-1.232.009-2.262-.872-2.373-2.109l-.397-7.035c-.055-1.237.879-2.292 2.111-2.366 1.23-.069 2.281.888 2.359 2.111l.278 2.462 2.774.622c2.999.223 2.88 1.342 2.299 1.379l-5.087.067.069 1.317h5.789c.445.007.883.246 1.127.654l4.208 7.104c.358.668 3.692 1.085-1.264 1.847-1 .151-2.086-2.01-2.457-2.613l-1.933-3.44z" fill="#fff"/><path d="M42.512 32.447c.259.982-.321 1.989-1.296 2.246l-25.433 6.822c-.98.259-1.987-.321-2.251-1.301-.259-.98.319-1.989 1.303-2.249l25.423-6.819c.98-.259 1.994.319 2.254 1.301" fill="#fff"/><path d="M19.013 9.356c0-1.271 1.028-2.304 2.299-2.304s2.304 1.033 2.304 2.304-1.033 2.301-2.304 2.301c-1.271.001-2.299-1.029-2.299-2.301" fill="#fff"/></g></svg>