<?xml version="1.0" encoding="iso-8859-1"?>
<!-- Generator: Adobe Illustrator 17.0.0, SVG Export Plug-In . SVG Version: 6.00 Build 0)  -->
<!DOCTYPE svg PUBLIC "-//W3C//DTD SVG 1.1//EN" "http://www.w3.org/Graphics/SVG/1.1/DTD/svg11.dtd">
<svg version="1.1" id="Layer_1" xmlns="http://www.w3.org/2000/svg" xmlns:xlink="http://www.w3.org/1999/xlink" x="0px" y="0px"
	 width="50px" height="50px" viewBox="0 0 50 50" style="enable-background:new 0 0 50 50;" xml:space="preserve">
<g>
	<path style="fill:#FFFFFF;" d="M0.25,24.921c-0.041,13.65,11.021,24.79,24.668,24.834c13.646,0.048,24.795-11.032,24.831-24.673
		C49.798,11.44,38.732,0.291,25.084,0.25C11.438,0.207,0.296,11.28,0.25,24.921"/>
	<path style="fill:none;stroke:#232020;stroke-width:0.344;" d="M0.25,24.921c-0.041,13.65,11.021,24.79,24.668,24.834
		c13.646,0.048,24.795-11.032,24.831-24.673C49.798,11.44,38.732,0.291,25.084,0.25C11.438,0.207,0.296,11.28,0.25,24.921z"/>
	<path style="fill:#144C8D;" d="M24.93,46.384c11.812,0.05,21.419-9.495,21.456-21.314c0.041-11.803-9.502-21.415-21.307-21.449
		C13.271,3.582,3.66,13.125,3.614,24.932C3.577,36.742,13.122,46.345,24.93,46.384"/>
	<path style="fill:#FFFFFF;" d="M30.237,26.31c-0.487,3.329-3.343,5.881-6.813,5.881c-3.804,0-6.886-3.079-6.886-6.881
		c0-2.191,1.021-4.139,2.613-5.394l-0.117-2.129c-2.586,1.512-4.314,4.316-4.314,7.524c0,4.809,3.898,8.71,8.703,8.71
		c3.685,0,6.833-2.297,8.111-5.527L30.237,26.31z"/>
	<path style="fill:#FFFFFF;" d="M30.14,24.227h-7.503c-1.232,0.009-2.262-0.872-2.373-2.109l-0.397-7.035
		c-0.055-1.237,0.879-2.292,2.111-2.366c1.23-0.069,2.281,0.888,2.359,2.111l0.278,2.462l2.774,0.622
		c2.999,0.223,2.88,1.342,2.299,1.379l-5.087,0.067l0.069,1.317h5.789c0.445,0.007,0.883,0.246,1.127,0.654l4.208,7.104
		c0.358,0.668,3.692,1.085-1.264,1.847c-1,0.151-2.086-2.01-2.457-2.613L30.14,24.227z"/>
	<path style="fill:#FFFFFF;" d="M42.59,32.525c0.259,0.982-0.321,1.989-1.296,2.246l-25.433,6.822
		c-0.98,0.259-1.987-0.321-2.251-1.301c-0.259-0.98,0.319-1.989,1.303-2.249l25.423-6.819C41.316,30.965,42.33,31.543,42.59,32.525"
		/>
	<path style="fill:#FFFFFF;" d="M19.091,9.434c0-1.271,1.028-2.304,2.299-2.304c1.271,0,2.304,1.033,2.304,2.304
		c0,1.271-1.033,2.301-2.304,2.301C20.119,11.736,19.091,10.706,19.091,9.434"/>
</g>
</svg>
