<?xml version="1.0" encoding="iso-8859-1"?>
<!-- Generator: Adobe Illustrator 17.0.0, SVG Export Plug-In . SVG Version: 6.00 Build 0)  -->
<!DOCTYPE svg PUBLIC "-//W3C//DTD SVG 1.1//EN" "http://www.w3.org/Graphics/SVG/1.1/DTD/svg11.dtd">
<svg version="1.1" xmlns="http://www.w3.org/2000/svg" xmlns:xlink="http://www.w3.org/1999/xlink" x="0px" y="0px"
	 width="30px" height="30px" viewBox="0 0 49.844 49.849" style="enable-background:new 0 0 49.844 49.849;"
	 xml:space="preserve">
<g id="disabled_x5F_ramp">
	<g>
		<path style="fill:#FFFFFF;" d="M0.172,24.843c-0.041,13.65,11.021,24.79,24.668,24.834c13.646,0.048,24.795-11.032,24.831-24.673
			C49.72,11.362,38.654,0.213,25.006,0.172C11.36,0.129,0.218,11.202,0.172,24.843"/>
		<path style="fill:none;stroke:#232020;stroke-width:0.344;" d="M0.172,24.843c-0.041,13.65,11.021,24.79,24.668,24.834
			c13.646,0.048,24.795-11.032,24.831-24.673C49.72,11.362,38.654,0.213,25.006,0.172C11.36,0.129,0.218,11.202,0.172,24.843z"/>
		<path style="fill:#144C8D;" d="M24.852,46.306c11.812,0.05,21.419-9.495,21.456-21.314c0.041-11.803-9.502-21.415-21.307-21.449
			C13.193,3.504,3.582,13.047,3.536,24.854C3.499,36.664,13.044,46.267,24.852,46.306"/>
		<path style="fill:#FFFFFF;" d="M30.159,26.232c-0.487,3.329-3.343,5.881-6.813,5.881c-3.804,0-6.886-3.079-6.886-6.881
			c0-2.191,1.021-4.139,2.613-5.394l-0.117-2.129c-2.586,1.512-4.314,4.316-4.314,7.524c0,4.809,3.898,8.71,8.703,8.71
			c3.685,0,6.833-2.297,8.111-5.527L30.159,26.232z"/>
		<path style="fill:#FFFFFF;" d="M30.062,24.149h-7.503c-1.232,0.009-2.262-0.872-2.373-2.109l-0.397-7.035
			c-0.055-1.237,0.879-2.292,2.111-2.366c1.23-0.069,2.281,0.888,2.359,2.111l0.278,2.462l2.774,0.622
			c2.999,0.223,2.88,1.342,2.299,1.379l-5.087,0.067l0.069,1.317h5.789c0.445,0.007,0.883,0.246,1.127,0.654l4.208,7.104
			c0.358,0.668,3.692,1.085-1.264,1.847c-1,0.151-2.086-2.01-2.457-2.613L30.062,24.149z"/>
		<path style="fill:#FFFFFF;" d="M42.512,32.447c0.259,0.982-0.321,1.989-1.296,2.246l-25.433,6.822
			c-0.98,0.259-1.987-0.321-2.251-1.301c-0.259-0.98,0.319-1.989,1.303-2.249l25.423-6.819
			C41.238,30.887,42.252,31.465,42.512,32.447"/>
		<path style="fill:#FFFFFF;" d="M19.013,9.356c0-1.271,1.028-2.304,2.299-2.304c1.271,0,2.304,1.033,2.304,2.304
			c0,1.271-1.033,2.301-2.304,2.301C20.041,11.658,19.013,10.628,19.013,9.356"/>
	</g>
</g>
<g id="Layer_1">
</g>
</svg>
