<svg xmlns="http://www.w3.org/2000/svg" width="30" height="30"><g><path fill="#fff" d="M0 14.937c0 8.235 6.703 14.938 14.937 14.938 8.237 0 14.937-6.703 14.937-14.938 0-8.234-6.701-14.937-14.937-14.937-8.234 0-14.937 6.703-14.937 14.937"/><path stroke="#232020" stroke-width=".344" d="M0 14.937c0 8.235 6.703 14.938 14.937 14.938 8.237 0 14.937-6.703 14.937-14.938 0-8.234-6.701-14.937-14.937-14.937-8.234 0-14.937 6.703-14.937 14.937z" fill="none"/><path fill="#059B50" d="M14.937 27.846c7.133 0 12.911-5.779 12.911-12.909 0-7.126-5.777-12.907-12.911-12.907-7.129 0-12.912 5.782-12.912 12.907.001 7.129 5.783 12.909 12.912 12.909"/><path fill="#fff" d="M13.395 9.535l.022 8.833-1.981-2.427-.586-.725c-.213-.254-.51-.41-.837-.448-.332-.03-.655.07-.912.279-.524.435-.601 1.214-.17 1.746l4.899 5.894c.262.276.645.442 1.047.442.409-.006.787-.171 1.071-.463 0-.008 4.856-5.899 4.856-5.899.182-.222.279-.5.279-.779l-.008-.129c-.032-.33-.192-.624-.45-.833-.254-.209-.579-.305-.909-.271-.326.033-.624.188-.833.45-.003 0-2.563 3.148-2.563 3.148l-.008-8.826c0-.803-.658-1.459-1.461-1.464-.802.007-1.456.664-1.456 1.472"/></g></svg>