<?xml version="1.0" encoding="iso-8859-1"?>
<!-- Generator: Adobe Illustrator 17.0.0, SVG Export Plug-In . SVG Version: 6.00 Build 0)  -->
<!DOCTYPE svg PUBLIC "-//W3C//DTD SVG 1.1//EN" "http://www.w3.org/Graphics/SVG/1.1/DTD/svg11.dtd">
<svg version="1.1" xmlns="http://www.w3.org/2000/svg" xmlns:xlink="http://www.w3.org/1999/xlink" x="0px" y="0px"
	 width="30px" height="30px" viewBox="0 0 49.844 49.846" style="enable-background:new 0 0 49.844 49.846;"
	 xml:space="preserve">
<g id="entrance_x5F_exit">
	<g>
		<path style="fill:#FFFFFF;" d="M0.172,24.922c0,13.646,11.107,24.752,24.75,24.752c13.648,0,24.75-11.107,24.75-24.752
			c0-13.643-11.102-24.75-24.75-24.75C11.279,0.172,0.172,11.279,0.172,24.922"/>
		<path style="fill:none;stroke:#232020;stroke-width:0.344;" d="M0.172,24.922c0,13.646,11.107,24.752,24.75,24.752
			c13.648,0,24.75-11.107,24.75-24.752c0-13.643-11.102-24.75-24.75-24.75C11.279,0.172,0.172,11.279,0.172,24.922z"/>
		<path style="fill:#059B50;" d="M24.922,46.312c11.819,0,21.392-9.575,21.392-21.39c0-11.807-9.573-21.387-21.392-21.387
			c-11.812,0-21.394,9.58-21.394,21.387C3.528,36.737,13.111,46.312,24.922,46.312"/>
		<path id="logout-5-icon" style="fill:#FFFFFF;" d="M38.49,13.185v23.684l-7.09-5.451V13.185H38.49z M18.369,21.55l-3.323,3.29
			c-0.408,0.404-0.743,0.876-0.99,1.395l-1.427,2.997c-0.215,0.453-0.672,0.741-1.173,0.742L8.25,29.976v2.414l4.27-0.001
			c0.548,0,1.07-0.229,1.441-0.632l1.489-1.615c0.914-0.992,3.023,0.194,3.041,1.587v4.119h2.485v-4.441
			c0-0.631-0.033-1.104-0.473-1.797l-1.39-1.979l2.569-2.784l1.574,2.119c0.298,0.411,0.65,0.65,1.336,0.65h3.534v-2.079h-2.567
			c-0.562,0-0.8-0.353-0.97-0.604c-0.925-1.367-1.517-2.28-2.096-2.806l-3.647-3.366c-0.531-0.49-1.14-0.721-1.85-0.585L13.208,18.9
			l0.433,2.026l2.761-0.484c0.368-0.065,0.746,0.041,1.027,0.287L18.369,21.55z M24.368,21.393c-1.292,0.247-2.539-0.6-2.786-1.892
			c-0.247-1.292,0.6-2.539,1.892-2.786c1.292-0.247,2.539,0.6,2.786,1.892C26.507,19.898,25.66,21.145,24.368,21.393z"/>
	</g>
</g>
<g id="Layer_1">
</g>
</svg>
