<svg xmlns="http://www.w3.org/2000/svg" width="30" height="30" viewBox="0 0 49.844 49.846" enable-background="new 0 0 49.844 49.846"><g><path d="M.172 24.922c0 13.646 11.107 24.752 24.75 24.752 13.648 0 24.75-11.107 24.75-24.752 0-13.643-11.102-24.75-24.75-24.75-13.643 0-24.75 11.107-24.75 24.75" fill="#fff"/><path d="M.172 24.922c0 13.646 11.107 24.752 24.75 24.752 13.648 0 24.75-11.107 24.75-24.752 0-13.643-11.102-24.75-24.75-24.75-13.643 0-24.75 11.107-24.75 24.75z" stroke="#232020" stroke-width=".344" fill="none"/><path d="M24.922 46.312c11.819 0 21.392-9.575 21.392-21.39 0-11.807-9.573-21.387-21.392-21.387-11.812 0-21.394 9.58-21.394 21.387 0 11.815 9.583 21.39 21.394 21.39" fill="#059B50"/><path d="M38.49 13.185v23.684l-7.09-5.451v-18.233h7.09zm-20.121 8.365l-3.323 3.29c-.408.404-.743.876-.99 1.395l-1.427 2.997c-.215.453-.672.741-1.173.742l-3.206.002v2.414l4.27-.001c.548 0 1.07-.229 1.441-.632l1.489-1.615c.914-.992 3.023.194 3.041 1.587v4.119h2.485v-4.441c0-.631-.033-1.104-.473-1.797l-1.39-1.979 2.569-2.784 1.574 2.119c.298.411.65.65 1.336.65h3.534v-2.079h-2.567c-.562 0-.8-.353-.97-.604-.925-1.367-1.517-2.28-2.096-2.806l-3.647-3.366c-.531-.49-1.14-.721-1.85-.585l-3.788.724.433 2.026 2.761-.484c.368-.065.746.041 1.027.287l.94.821zm5.999-.157c-1.292.247-2.539-.6-2.786-1.892-.247-1.292.6-2.539 1.892-2.786 1.292-.247 2.539.6 2.786 1.892.247 1.291-.6 2.538-1.892 2.786z" fill="#fff"/></g></svg>