<?xml version="1.0" encoding="iso-8859-1"?>
<!-- Generator: Adobe Illustrator 17.0.0, SVG Export Plug-In . SVG Version: 6.00 Build 0)  -->
<!DOCTYPE svg PUBLIC "-//W3C//DTD SVG 1.1//EN" "http://www.w3.org/Graphics/SVG/1.1/DTD/svg11.dtd">
<svg version="1.1" xmlns="http://www.w3.org/2000/svg" xmlns:xlink="http://www.w3.org/1999/xlink" x="0px" y="0px"
	 width="30px" height="30px" viewBox="0 0 49.844 49.846" style="enable-background:new 0 0 49.844 49.846;"
	 xml:space="preserve">
<g id="escalator">
	<g>
		<path style="fill:#FFFFFF;" d="M0.172,24.927c0,13.641,11.102,24.748,24.748,24.748c13.655,0,24.752-11.107,24.752-24.748
			c0-13.65-11.098-24.755-24.752-24.755C11.274,0.172,0.172,11.277,0.172,24.927"/>
		<path style="fill:none;stroke:#232020;stroke-width:0.344;" d="M0.172,24.927c0,13.641,11.102,24.748,24.748,24.748
			c13.655,0,24.752-11.107,24.752-24.748c0-13.65-11.098-24.755-24.752-24.755C11.274,0.172,0.172,11.277,0.172,24.927z"/>
		<path style="fill:#372620;" d="M24.921,46.312c11.819,0,21.394-9.575,21.394-21.385c0-11.814-9.575-21.394-21.394-21.394
			c-11.812,0-21.392,9.58-21.392,21.394C3.529,36.736,13.109,46.312,24.921,46.312"/>
		<path style="fill:#FFFFFF;" d="M35.415,23.881c0.27-0.272,0.529-0.366,0.941-0.366h2.742c2.426,0,4.384-1.969,4.384-4.395
			c0-2.42-1.964-4.391-4.391-4.391H33.98c-1.245,0-2.42,0.554-3.111,1.241c-0.787,0.781-5.05,5.052-5.05,5.052v-1.44
			c0-1.264-1.028-2.294-2.289-2.294c-1.264,0-2.285,1.03-2.285,2.294v5.931c0,0-4.059,4.075-4.287,4.304
			c-0.27,0.27-0.529,0.366-0.948,0.366h-2.733c-2.429,0-4.391,1.959-4.391,4.391c0,2.422,1.969,4.391,4.391,4.391h5.109
			c1.245,0,2.426-0.552,3.118-1.236C22.285,36.941,35.18,24.113,35.415,23.881 M19.778,36.286c-0.275,0.275-0.904,0.483-1.323,0.483
			h-5.178c-1.213,0-2.2-0.98-2.2-2.195s0.98-2.202,2.2-2.202h2.992c0.863,0,1.767-0.469,2.266-0.964
			c0.781-0.783,13.831-13.771,14.06-14c0.27-0.268,0.897-0.483,1.319-0.483h5.178c1.218,0,2.204,0.982,2.204,2.195
			c0,1.22-0.98,2.204-2.198,2.204h-2.994c-0.863,0-1.774,0.465-2.266,0.964C33.055,23.073,20.007,36.064,19.778,36.286
			 M23.53,16.847c1.261,0,2.289-1.021,2.289-2.294c0-1.252-1.028-2.282-2.289-2.282c-1.264,0-2.291,1.03-2.291,2.282
			C21.239,15.826,22.267,16.847,23.53,16.847"/>
	</g>
</g>
<g id="Layer_1">
</g>
</svg>
