<svg xmlns="http://www.w3.org/2000/svg" width="30" height="30" viewBox="0 0 49.844 49.846" enable-background="new 0 0 49.844 49.846"><g><path d="M.172 24.927c0 13.641 11.102 24.748 24.748 24.748 13.655 0 24.752-11.107 24.752-24.748 0-13.65-11.098-24.755-24.752-24.755-13.646 0-24.748 11.105-24.748 24.755" fill="#fff"/><path d="M.172 24.927c0 13.641 11.102 24.748 24.748 24.748 13.655 0 24.752-11.107 24.752-24.748 0-13.65-11.098-24.755-24.752-24.755-13.646 0-24.748 11.105-24.748 24.755z" stroke="#232020" stroke-width=".344" fill="none"/><path d="M24.921 46.312c11.819 0 21.394-9.575 21.394-21.385 0-11.814-9.575-21.394-21.394-21.394-11.812 0-21.392 9.58-21.392 21.394 0 11.809 9.58 21.385 21.392 21.385" fill="#372620"/><path d="M35.415 23.881c.27-.272.529-.366.941-.366h2.742c2.426 0 4.384-1.969 4.384-4.395 0-2.42-1.964-4.391-4.391-4.391h-5.111c-1.245 0-2.42.554-3.111 1.241-.787.781-5.05 5.052-5.05 5.052v-1.44c0-1.264-1.028-2.294-2.289-2.294-1.264 0-2.285 1.03-2.285 2.294v5.931l-4.287 4.304c-.27.27-.529.366-.948.366h-2.733c-2.429 0-4.391 1.959-4.391 4.391 0 2.422 1.969 4.391 4.391 4.391h5.109c1.245 0 2.426-.552 3.118-1.236.781-.788 13.676-13.616 13.911-13.848m-15.637 12.405c-.275.275-.904.483-1.323.483h-5.178c-1.213 0-2.2-.98-2.2-2.195s.98-2.202 2.2-2.202h2.992c.863 0 1.767-.469 2.266-.964.781-.783 13.831-13.771 14.06-14 .27-.268.897-.483 1.319-.483h5.178c1.218 0 2.204.982 2.204 2.195 0 1.22-.98 2.204-2.198 2.204h-2.994c-.863 0-1.774.465-2.266.964-.783.785-13.831 13.776-14.06 13.998m3.752-19.439c1.261 0 2.289-1.021 2.289-2.294 0-1.252-1.028-2.282-2.289-2.282-1.264 0-2.291 1.03-2.291 2.282 0 1.273 1.028 2.294 2.291 2.294" fill="#fff"/></g></svg>