<?xml version="1.0" encoding="iso-8859-1"?>
<!-- Generator: Adobe Illustrator 17.0.0, SVG Export Plug-In . SVG Version: 6.00 Build 0)  -->
<!DOCTYPE svg PUBLIC "-//W3C//DTD SVG 1.1//EN" "http://www.w3.org/Graphics/SVG/1.1/DTD/svg11.dtd">
<svg version="1.1" id="Layer_1" xmlns="http://www.w3.org/2000/svg" xmlns:xlink="http://www.w3.org/1999/xlink" x="0px" y="0px"
	 width="50px" height="50px" viewBox="0 0 50 50" style="enable-background:new 0 0 50 50;" xml:space="preserve">
<g>
	<path style="fill:#FFFFFF;" d="M0.25,25.005c0,13.641,11.102,24.748,24.748,24.748c13.655,0,24.752-11.107,24.752-24.748
		c0-13.65-11.098-24.755-24.752-24.755C11.352,0.25,0.25,11.355,0.25,25.005"/>
	<path style="fill:none;stroke:#232020;stroke-width:0.344;" d="M0.25,25.005c0,13.641,11.102,24.748,24.748,24.748
		c13.655,0,24.752-11.107,24.752-24.748c0-13.65-11.098-24.755-24.752-24.755C11.352,0.25,0.25,11.355,0.25,25.005z"/>
	<path style="fill:#372620;" d="M24.999,46.39c11.819,0,21.394-9.575,21.394-21.385c0-11.814-9.575-21.394-21.394-21.394
		c-11.812,0-21.392,9.58-21.392,21.394C3.607,36.814,13.187,46.39,24.999,46.39"/>
	<path style="fill:#FFFFFF;" d="M35.493,23.959c0.27-0.272,0.529-0.366,0.941-0.366h2.742c2.426,0,4.384-1.969,4.384-4.395
		c0-2.42-1.964-4.391-4.391-4.391h-5.112c-1.245,0-2.42,0.554-3.111,1.241c-0.787,0.781-5.05,5.052-5.05,5.052v-1.44
		c0-1.264-1.028-2.294-2.289-2.294c-1.264,0-2.285,1.03-2.285,2.294v5.931c0,0-4.059,4.075-4.287,4.304
		c-0.27,0.27-0.529,0.366-0.948,0.366h-2.733c-2.429,0-4.391,1.959-4.391,4.391c0,2.422,1.969,4.391,4.391,4.391h5.109
		c1.245,0,2.426-0.552,3.118-1.236C22.363,37.019,35.257,24.191,35.493,23.959 M19.856,36.364c-0.275,0.275-0.904,0.483-1.323,0.483
		h-5.178c-1.213,0-2.2-0.98-2.2-2.195s0.98-2.202,2.2-2.202h2.992c0.863,0,1.767-0.469,2.266-0.964
		c0.781-0.783,13.831-13.771,14.06-14c0.27-0.268,0.897-0.483,1.319-0.483h5.178c1.218,0,2.204,0.982,2.204,2.195
		c0,1.22-0.98,2.204-2.198,2.204h-2.994c-0.863,0-1.774,0.465-2.266,0.964C33.133,23.151,20.085,36.142,19.856,36.364
		 M23.608,16.925c1.261,0,2.289-1.021,2.289-2.294c0-1.252-1.028-2.282-2.289-2.282c-1.264,0-2.291,1.03-2.291,2.282
		C21.317,15.904,22.345,16.925,23.608,16.925"/>
</g>
</svg>
