<svg xmlns="http://www.w3.org/2000/svg" width="30" height="30" viewBox="0 0 49.844 49.839" enable-background="new 0 0 49.844 49.839"><g><path d="M.172 24.926c0 13.64 11.103 24.741 24.748 24.741 13.651 0 24.752-11.101 24.752-24.741 0-13.651-11.101-24.754-24.752-24.754-13.645 0-24.748 11.103-24.748 24.754" fill="#fff"/><path d="M.172 24.926c0 13.64 11.103 24.741 24.748 24.741 13.651 0 24.752-11.101 24.752-24.741 0-13.651-11.101-24.754-24.752-24.754-13.645 0-24.748 11.103-24.748 24.754" stroke="#1B1A19" stroke-width=".344" fill="none"/><path d="M.172 24.926c0 13.64 11.103 24.741 24.748 24.741 13.651 0 24.752-11.101 24.752-24.741 0-13.651-11.101-24.754-24.752-24.754-13.645 0-24.748 11.103-24.748 24.754z" stroke="#030303" stroke-width=".153" fill="none"/><path d="M24.919 46.318c11.822 0 21.399-9.581 21.399-21.392 0-11.815-9.577-21.39-21.399-21.39-11.811 0-21.385 9.574-21.385 21.39-.001 11.81 9.574 21.392 21.385 21.392" fill="#372620"/><path d="M23.644 19.689c0 1.048-.966 2.181-2.211 2.181v17.794c0 2.52-3.44 2.52-3.44 0v-17.793c-1.202 0-2.261-.934-2.261-2.33v-9.792c0-.851 1.238-.89 1.238.032v7.24h1.023v-7.307c0-.787 1.181-.829 1.181.034v7.272h1.071v-7.292c0-.817 1.147-.856 1.147.027v7.265h1.046v-7.292c0-.817 1.206-.842 1.206.027v9.934z" fill="#fff"/><path d="M32.825 12.024v27.629c0 2.467-3.454 2.429-3.454 0v-10.964h-1.836v-16.665c0-3.871 5.29-3.871 5.29 0" fill="#fff"/></g></svg>