<?xml version="1.0" encoding="iso-8859-1"?>
<!-- Generator: Adobe Illustrator 17.0.0, SVG Export Plug-In . SVG Version: 6.00 Build 0)  -->
<!DOCTYPE svg PUBLIC "-//W3C//DTD SVG 1.1//EN" "http://www.w3.org/Graphics/SVG/1.1/DTD/svg11.dtd">
<svg version="1.1" id="Layer_1" xmlns="http://www.w3.org/2000/svg" xmlns:xlink="http://www.w3.org/1999/xlink" x="0px" y="0px"
	 width="50px" height="50px" viewBox="0 0 50 50" style="enable-background:new 0 0 50 50;" xml:space="preserve">
<g>
	<path style="fill:#FFFFFF;" d="M0.25,25.004c0,13.64,11.103,24.741,24.748,24.741c13.651,0,24.752-11.101,24.752-24.741
		c0-13.651-11.101-24.754-24.752-24.754C11.353,0.25,0.25,11.353,0.25,25.004"/>
	<path style="fill:none;stroke:#1B1A19;stroke-width:0.344;" d="M0.25,25.004c0,13.64,11.103,24.741,24.748,24.741
		c13.651,0,24.752-11.101,24.752-24.741c0-13.651-11.101-24.754-24.752-24.754C11.353,0.25,0.25,11.353,0.25,25.004"/>
	<path style="fill:none;stroke:#030303;stroke-width:0.153;" d="M0.25,25.004c0,13.64,11.103,24.741,24.748,24.741
		c13.651,0,24.752-11.101,24.752-24.741c0-13.651-11.101-24.754-24.752-24.754C11.353,0.25,0.25,11.353,0.25,25.004z"/>
	<path style="fill:#372620;" d="M24.997,46.396c11.822,0,21.399-9.581,21.399-21.392c0-11.815-9.577-21.39-21.399-21.39
		c-11.811,0-21.385,9.574-21.385,21.39C3.611,36.814,13.186,46.396,24.997,46.396"/>
	<path style="fill:#FFFFFF;" d="M23.722,19.767c0,1.048-0.966,2.181-2.211,2.181v17.794c0,2.52-3.44,2.52-3.44,0V21.949
		c-1.202,0-2.261-0.934-2.261-2.33V9.827c0-0.851,1.238-0.89,1.238,0.032v7.24h1.023V9.792c0-0.787,1.181-0.829,1.181,0.034v7.272
		h1.071V9.806c0-0.817,1.147-0.856,1.147,0.027v7.265h1.046V9.806c0-0.817,1.206-0.842,1.206,0.027V19.767z"/>
	<path style="fill:#FFFFFF;" d="M32.903,12.102v27.629c0,2.467-3.454,2.429-3.454,0V28.767h-1.836V12.102
		C27.613,8.231,32.903,8.231,32.903,12.102"/>
</g>
</svg>
