<?xml version="1.0" encoding="iso-8859-1"?>
<!-- Generator: Adobe Illustrator 17.0.0, SVG Export Plug-In . SVG Version: 6.00 Build 0)  -->
<!DOCTYPE svg PUBLIC "-//W3C//DTD SVG 1.1//EN" "http://www.w3.org/Graphics/SVG/1.1/DTD/svg11.dtd">
<svg version="1.1" xmlns="http://www.w3.org/2000/svg" xmlns:xlink="http://www.w3.org/1999/xlink" x="0px" y="0px"
	 width="30px" height="30px" viewBox="0 0 49.844 49.849" style="enable-background:new 0 0 49.844 49.849;"
	 xml:space="preserve">
<g id="lifts">
	<g>
		<path style="fill:#FFFFFF;" d="M0.172,24.929c0,13.641,11.102,24.748,24.748,24.748c13.648,0,24.752-11.107,24.752-24.748
			c0-13.648-11.105-24.757-24.752-24.757C11.274,0.172,0.172,11.281,0.172,24.929"/>
		<path style="fill:none;stroke:#232020;stroke-width:0.344;" d="M0.172,24.929c0,13.641,11.102,24.748,24.748,24.748
			c13.648,0,24.752-11.107,24.752-24.748c0-13.648-11.105-24.757-24.752-24.757C11.274,0.172,0.172,11.281,0.172,24.929z"/>
		<path style="fill:#372620;" d="M24.92,46.316c11.819,0,21.394-9.575,21.394-21.387S36.739,3.535,24.92,3.535
			c-11.812,0-21.394,9.582-21.394,21.394S13.108,46.316,24.92,46.316"/>
		<path style="fill:#FFFFFF;" d="M31.831,39.997c1.767,0,3.203-1.435,3.203-3.202V22.982c0-1.767-1.435-3.207-3.203-3.207H18.019
			c-1.774,0-3.216,1.44-3.216,3.207v13.813c0,1.767,1.442,3.202,3.216,3.202H31.831z M17.593,22.563h14.655v14.65H17.593V22.563z
			 M25.014,32.619v3.287c0,0.243,0.19,0.433,0.419,0.433c0.233,0,0.423-0.19,0.423-0.433v-3.287h1.199l-0.508-1.705h0.282
			c0.211,0,0.389-0.208,0.321-0.419c-0.204-0.678-0.733-2.488-0.893-2.974c-0.08-0.259-0.332-0.476-0.616-0.476h-1.46
			c-0.282,0-0.536,0.217-0.62,0.476c-0.153,0.485-0.689,2.296-0.888,2.974c-0.06,0.211,0.105,0.419,0.321,0.419h0.277l-0.504,1.705
			h1.199v3.287c0,0.243,0.185,0.433,0.419,0.433c0.24,0,0.426-0.19,0.426-0.433v-3.287H25.014z M28.02,31.37h0.288v4.507
			c0,0.309,0.245,0.561,0.561,0.561c0.307,0,0.565-0.252,0.565-0.561V31.37h0.204v4.507c0,0.309,0.247,0.561,0.561,0.561
			c0.314,0,0.565-0.252,0.565-0.561V31.37h0.288c0.286,0,0.513-0.234,0.513-0.517V27.54c0-0.284-0.227-0.513-0.513-0.513H28.02
			c-0.291,0-0.517,0.229-0.517,0.513v3.312C27.502,31.136,27.729,31.37,28.02,31.37 M29.533,26.695c0.488,0,0.888-0.387,0.888-0.886
			c0-0.481-0.401-0.888-0.888-0.888c-0.492,0-0.893,0.407-0.893,0.888C28.64,26.308,29.041,26.695,29.533,26.695 M21.761,31.37
			c0.284,0,0.517-0.234,0.517-0.517V27.54c0-0.284-0.233-0.513-0.517-0.513h-3.035c-0.284,0-0.517,0.229-0.517,0.513v3.312
			c0,0.284,0.233,0.517,0.517,0.517h0.291v4.507c0,0.309,0.252,0.561,0.565,0.561c0.309,0,0.561-0.252,0.561-0.561V31.37h0.204
			v4.507c0,0.309,0.252,0.561,0.561,0.561c0.311,0,0.565-0.252,0.565-0.561V31.37H21.761z M20.241,26.695
			c0.485,0,0.886-0.387,0.886-0.886c0-0.481-0.401-0.888-0.886-0.888c-0.488,0-0.888,0.407-0.888,0.888
			C19.353,26.308,19.754,26.695,20.241,26.695 M24.884,26.695c0.499,0,0.893-0.387,0.893-0.886c0-0.481-0.394-0.888-0.893-0.888
			c-0.485,0-0.886,0.407-0.886,0.888C23.998,26.308,24.398,26.695,24.884,26.695 M30.075,7.254c-0.765,0-1.38,0.616-1.38,1.373
			c0,0.401,0.007,5.771,0.007,5.771c-0.481-0.586-1.165-1.422-1.396-1.712c-0.426-0.517-1.19-0.604-1.712-0.165
			c-0.513,0.417-0.593,1.177-0.167,1.699c0.227,0.27,3.64,4.402,3.64,4.402c0.252,0.259,0.609,0.426,1.01,0.426
			c0.394,0,0.751-0.167,1.003-0.426c0,0,3.413-4.132,3.64-4.402c0.426-0.522,0.346-1.282-0.172-1.699
			c-0.517-0.44-1.28-0.353-1.705,0.165c-0.24,0.291-0.918,1.126-1.399,1.712c0,0,0.007-5.37,0.007-5.771
			C31.449,7.869,30.833,7.254,30.075,7.254 M19.761,19.047c0.762,0,1.378-0.616,1.378-1.373c0-0.398-0.011-5.771-0.011-5.771
			c0.481,0.593,1.158,1.424,1.403,1.726c0.421,0.517,1.183,0.591,1.701,0.172c0.524-0.423,0.597-1.188,0.172-1.705
			c-0.222-0.284-3.64-4.402-3.64-4.402c-0.252-0.272-0.609-0.439-1.003-0.439c-0.401,0-0.758,0.167-1.01,0.439
			c0,0-3.413,4.118-3.64,4.402c-0.419,0.517-0.346,1.282,0.172,1.705c0.517,0.419,1.282,0.346,1.705-0.172
			c0.24-0.302,0.925-1.133,1.399-1.726c0,0-0.007,5.373-0.007,5.771C18.38,18.431,18.998,19.047,19.761,19.047"/>
	</g>
</g>
<g id="Layer_1">
</g>
</svg>
