<?xml version="1.0" encoding="utf-8"?>
<!-- Generator: Adobe Illustrator 17.0.0, SVG Export Plug-In . SVG Version: 6.00 Build 0)  -->
<!DOCTYPE svg PUBLIC "-//W3C//DTD SVG 1.1//EN" "http://www.w3.org/Graphics/SVG/1.1/DTD/svg11.dtd" [
	<!ENTITY ns_flows "http://ns.adobe.com/Flows/1.0/">
	<!ENTITY ns_extend "http://ns.adobe.com/Extensibility/1.0/">
	<!ENTITY ns_ai "http://ns.adobe.com/AdobeIllustrator/10.0/">
	<!ENTITY ns_graphs "http://ns.adobe.com/Graphs/1.0/">
]>
<svg version="1.1" xmlns:x="&ns_extend;" xmlns:i="&ns_ai;" xmlns:graph="&ns_graphs;"
	 xmlns="http://www.w3.org/2000/svg" xmlns:xlink="http://www.w3.org/1999/xlink" xmlns:a="http://ns.adobe.com/AdobeSVGViewerExtensions/3.0/"
	 x="0px" y="0px" width="30px" height="30px" viewBox="0 0 30 30" enable-background="new 0 0 30 30" xml:space="preserve">
<g id="Layer_1" display="none">
	<g display="inline">
		<path fill="#FFFFFF" d="M0,14.959c0,8.243,6.711,14.953,14.957,14.953s14.955-6.709,14.955-14.953C29.912,6.709,23.203,0,14.957,0
			S0,6.709,0,14.959"/>
		<path fill="none" stroke="#232020" stroke-width="0.344" d="M0,14.959c0,8.243,6.711,14.953,14.957,14.953
			s14.955-6.709,14.955-14.953C29.912,6.709,23.203,0,14.957,0S0,6.709,0,14.959z"/>
		<path fill="#37251F" d="M14.956,27.881c7.138,0,12.929-5.786,12.929-12.922c0-7.139-5.791-12.927-12.929-12.927
			c-7.141,0-12.931,5.788-12.931,12.927C2.025,22.094,7.815,27.881,14.956,27.881"/>
		<path fill="#FFFFFF" d="M15.742,6.207h-1.563v17.613h1.563V6.207z M9.024,18.078v5.057c0,0.379,0.304,0.685,0.685,0.685
			c0.376,0,0.681-0.306,0.681-0.685c0-0.295,0-2.761,0.004-5.057h1.883l-1.964-6.673h0.335c0,0,1.046,3.544,1.176,3.99
			c0.09,0.295,0.401,0.47,0.707,0.38c0.302-0.086,0.44-0.398,0.35-0.704c-0.066-0.231-0.692-2.46-1.228-4.276
			c-0.201-0.67-0.919-1.35-1.641-1.35H7.692c-0.722,0-1.44,0.681-1.641,1.35c-0.54,1.816-1.195,4.045-1.262,4.276
			c-0.093,0.306,0.077,0.618,0.383,0.704c0.3,0.09,0.614-0.086,0.703-0.38c0.134-0.445,1.18-3.99,1.18-3.99h0.35l-1.964,6.673h1.883
			c0,2.296,0.003,4.763,0.003,5.057c0,0.379,0.306,0.685,0.685,0.685c0.376,0,0.682-0.306,0.682-0.685v-5.057H9.024z M8.861,9.069
			c0.8,0,1.451-0.652,1.451-1.455c0-0.797-0.652-1.447-1.451-1.447c-0.804,0-1.451,0.65-1.451,1.447
			C7.41,8.417,8.057,9.069,8.861,9.069 M22.47,9.441h-3.205c-1.026,0-1.868,0.826-1.868,1.858v4.499c0,0.35,0.275,0.639,0.629,0.639
			c0.35,0,0.632-0.289,0.632-0.639V11.74h0.328v11.213c0,0.473,0.383,0.856,0.852,0.856c0.472,0,0.852-0.383,0.852-0.856v-6.491
			h0.35v6.491c0,0.473,0.383,0.856,0.852,0.856s0.856-0.383,0.856-0.856V11.74h0.326v4.057c0,0.35,0.282,0.639,0.634,0.639
			c0.353,0,0.628-0.289,0.628-0.639v-4.499C24.338,10.267,23.497,9.441,22.47,9.441 M20.87,9.069c0.8,0,1.448-0.652,1.448-1.455
			c0-0.797-0.649-1.447-1.448-1.447c-0.804,0-1.451,0.65-1.451,1.447C19.419,8.417,20.066,9.069,20.87,9.069"/>
	</g>
</g>
<g id="Layer_2" display="none">
	<g display="inline">
		<path fill="none" stroke="#232020" stroke-width="0.344" d="M0,14.815c0,8.164,6.644,14.808,14.811,14.808
			c8.172,0,14.812-6.644,14.812-14.808C29.623,6.644,22.983,0,14.811,0C6.644,0,0,6.644,0,14.815z"/>
		<path fill="#37251F" d="M14.811,27.611c7.073,0,12.807-5.731,12.807-12.796c0-7.073-5.733-12.804-12.807-12.804
			c-7.069,0-12.8,5.731-12.8,12.804C2.012,21.88,7.742,27.611,14.811,27.611"/>
		<path fill="#FFFFFF" d="M14.1,18.99l-2.111-2.112l-1.663,1.663c-0.247,0.247-0.512,0.807-0.512,1.066
			c0,0.271,0.096,0.736,0.362,1.001c0.297,0.299,2.451,2.447,2.75,2.745c0.349,0.351,0.914,0.351,1.263,0
			c0.351-0.345,0.351-0.91,0-1.26c-0.264-0.268-1.595-1.596-1.595-1.596L14.1,18.99z M15.526,18.99l1.507,1.507l-1.6,1.596
			c-0.349,0.351-0.349,0.915,0,1.26c0.351,0.351,0.919,0.351,1.264,0c0.299-0.299,2.455-2.447,2.75-2.745
			c0.27-0.266,0.366-0.73,0.366-1.001c0-0.259-0.27-0.819-0.516-1.066c-0.242-0.247-1.658-1.663-1.658-1.663L15.526,18.99z
			 M17.587,15.872v-1.96c0,0,1.954,1.949,2.207,2.204c0.342,0.342,0.903,0.342,1.245,0c0.347-0.342,0.347-0.904,0-1.247
			c-0.279-0.36-3.417-3.461-3.567-3.611c-0.223-0.229-0.593-0.351-0.954-0.351h-3.413c-0.359,0-0.727,0.122-0.951,0.351
			c-0.148,0.151-3.288,3.251-3.572,3.611c-0.344,0.342-0.344,0.904,0,1.247c0.345,0.342,0.901,0.342,1.249,0
			c0.253-0.255,2.203-2.204,2.203-2.204v1.96H17.587z M14.811,10.377c1.415,0,2.562-1.149,2.562-2.569
			c0-1.411-1.147-2.558-2.562-2.558c-1.411,0-2.562,1.147-2.562,2.558C12.249,9.228,13.4,10.377,14.811,10.377"/>
	</g>
</g>
<g id="Layer_3" display="none">
	<g display="inline">
		<path fill="#FFFFFF" d="M0,14.871c0,8.193,6.669,14.858,14.862,14.858c8.197,0,14.87-6.661,14.87-14.858
			c0-8.193-6.669-14.866-14.863-14.871C6.673,0,0.003,6.673,0,14.871"/>
		<path fill="none" stroke="#232020" stroke-width="0.344" d="M0,14.871c0,8.193,6.669,14.858,14.862,14.858
			c8.197,0,14.87-6.661,14.87-14.858c0-8.193-6.669-14.866-14.863-14.871C6.673,0,0.003,6.673,0,14.871z"/>
		<path fill="#372620" d="M14.862,27.715c7.097,0.006,12.848-5.754,12.85-12.844c0-7.093-5.745-12.85-12.842-12.85
			c-7.098,0-12.852,5.75-12.852,12.842C2.018,21.961,7.768,27.715,14.862,27.715"/>
		<path fill="#FFFFFF" d="M6.521,10.354l2.533,0.005l2.144,8.609h-2.1l-0.31-1.639H6.724l-0.302,1.639H4.326L6.521,10.354z
			 M7.75,11.925H7.728l-0.712,3.833h1.468L7.75,11.925"/>
		<polygon fill="#FFFFFF" points="12.142,11.998 10.33,11.998 10.334,10.355 15.979,10.355 15.979,11.998 14.168,11.998 
			14.168,18.969 12.138,18.969 		"/>
		<polygon fill="#FFFFFF" points="16.737,10.354 19.704,10.354 20.763,16.015 20.789,16.015 21.814,10.354 24.746,10.36 
			24.746,18.974 22.859,18.974 22.859,12.26 22.837,12.26 21.523,18.969 19.955,18.969 18.568,12.26 18.545,12.26 18.542,18.974 
			16.737,18.974 		"/>
	</g>
</g>
<g id="Layer_4" display="none">
	<g display="inline">
		<path fill="#FFFFFF" d="M0,14.983c0,8.255,6.72,14.975,14.979,14.975c8.262,0,14.981-6.719,14.981-14.975
			C29.96,6.72,23.241,0,14.979,0C6.72,0,0,6.72,0,14.983"/>
		<path fill="none" stroke="#1B1A19" stroke-width="0.344" d="M0,14.983c0,8.255,6.72,14.975,14.979,14.975
			c8.262,0,14.981-6.719,14.981-14.975C29.96,6.72,23.241,0,14.979,0C6.72,0,0,6.72,0,14.983"/>
		<path fill="none" stroke="#030303" stroke-width="0.153" d="M0,14.983c0,8.255,6.72,14.975,14.979,14.975
			c8.262,0,14.981-6.719,14.981-14.975C29.96,6.72,23.241,0,14.979,0C6.72,0,0,6.72,0,14.983z"/>
		<path fill="#372620" d="M14.978,27.93c7.155,0,12.952-5.799,12.952-12.948c0-7.151-5.796-12.946-12.952-12.946
			c-7.149,0-12.944,5.795-12.944,12.946C2.035,22.131,7.83,27.93,14.978,27.93"/>
		<path fill="#FFFFFF" d="M14.207,11.813c0,0.635-0.585,1.32-1.338,1.32v10.77c0,1.525-2.082,1.525-2.082,0v-10.77
			c-0.727,0-1.369-0.565-1.369-1.41V5.796c0-0.515,0.749-0.539,0.749,0.019v4.382h0.619V5.776c0-0.477,0.715-0.502,0.715,0.021
			v4.401h0.648V5.784c0-0.495,0.694-0.518,0.694,0.017v4.397h0.633V5.784c0-0.495,0.73-0.51,0.73,0.017V11.813z"/>
		<path fill="#FFFFFF" d="M19.763,7.173v16.723c0,1.493-2.091,1.47-2.091,0V17.26h-1.111V7.173
			C16.562,4.831,19.763,4.831,19.763,7.173"/>
	</g>
</g>
<g id="Layer_5" display="none">
	<g display="inline">
		<path fill="#FFFFFF" d="M0,14.86c0,8.189,6.667,14.853,14.857,14.853c8.193,0,14.86-6.664,14.86-14.853
			C29.716,6.671,23.05,0,14.857,0C6.667,0,0,6.671,0,14.86"/>
		<path fill="none" stroke="#232020" stroke-width="0.344" d="M0,14.86c0,8.189,6.667,14.853,14.857,14.853
			c8.193,0,14.86-6.664,14.86-14.853C29.716,6.671,23.05,0,14.857,0C6.667,0,0,6.671,0,14.86"/>
		<path fill="none" stroke="#010101" stroke-width="0.153" d="M0,14.86c0,8.189,6.667,14.853,14.857,14.853
			c8.193,0,14.86-6.664,14.86-14.853C29.716,6.671,23.05,0,14.857,0C6.667,0,0,6.671,0,14.86z"/>
		<path fill="#0F76BC" d="M14.857,27.698c7.091,0,12.839-5.755,12.839-12.839c0-7.091-5.748-12.842-12.839-12.842
			c-7.093,0-12.842,5.75-12.842,12.842C2.015,21.943,7.764,27.698,14.857,27.698"/>
		<path fill="#FFFFFF" d="M17.577,22.894h1.194v0.473h-8.006v-0.473h1.194V12.07h-1.194v-0.474h6.812V22.894z M14.768,5.625
			c1.389,0,2.534,1.137,2.534,2.528c0,1.393-1.146,2.539-2.534,2.539c-1.389,0-2.532-1.146-2.532-2.539
			C12.236,6.762,13.379,5.625,14.768,5.625"/>
	</g>
</g>
<g id="Layer_6" display="none">
	<g display="inline">
		<path fill="#FFFFFF" d="M0,14.983c0,8.254,6.72,14.975,14.979,14.975s14.977-6.72,14.977-14.975C29.956,6.719,23.237,0,14.979,0
			S0,6.719,0,14.983"/>
		<path fill="none" stroke="#232020" stroke-width="0.344" d="M0,14.983c0,8.254,6.72,14.975,14.979,14.975
			s14.977-6.72,14.977-14.975C29.956,6.719,23.237,0,14.979,0S0,6.719,0,14.983z"/>
		<path fill="#372620" d="M14.979,27.922c7.148,0,12.946-5.795,12.946-12.939c0-7.153-5.798-12.948-12.946-12.948
			C7.83,2.035,2.031,7.83,2.031,14.983C2.031,22.127,7.83,27.922,14.979,27.922"/>
		<path fill="#FFFFFF" d="M23.982,9.877H20.89c-0.754,0-1.137,0.295-1.887,0.748l-6.88,3.829v-1.75c0-0.655-0.533-1.191-1.189-1.191
			c-0.657,0-1.186,0.536-1.186,1.191v3.071l-0.547,0.306c-0.306,0.17-0.37,0.216-0.571,0.216c-0.245,0-1.125,0.004-1.658,0.004
			c-1.468,0-2.657,1.189-2.657,2.661c0,1.464,1.193,2.656,2.657,2.656h3.094c0.756,0,1.294-0.41,1.89-0.752
			c0.831-0.485,9.343-5.206,9.638-5.374c0.201-0.116,0.479-0.302,0.73-0.302h1.658c1.468,0,2.657-1.189,2.657-2.657
			S25.448,9.877,23.982,9.877 M23.982,13.89h-1.658c-0.567,0-1.021,0.265-1.29,0.421l-0.078,0.048l-1.488,0.831l-8.168,4.55
			l-0.28,0.169c-0.429,0.258-0.686,0.402-0.955,0.402H6.973c-0.748,0-1.356-0.603-1.356-1.348c0-0.751,0.608-1.358,1.356-1.358
			l1.656-0.007c0.528,0,0.83-0.168,1.129-0.339c0,0,0.082-0.044,0.078-0.044c0,0,9.801-5.453,9.839-5.479l0.258-0.152
			c0.567-0.355,0.677-0.41,0.959-0.41h3.092c0.749,0,1.358,0.615,1.358,1.36C25.34,13.284,24.732,13.89,23.982,13.89"/>
		<path fill="#FFFFFF" d="M10.935,11.29c0.655,0,1.189-0.533,1.189-1.193c0-0.661-0.533-1.189-1.189-1.189
			c-0.655,0-1.189,0.528-1.189,1.189C9.746,10.756,10.279,11.29,10.935,11.29"/>
		<path fill="#FFFFFF" d="M13.782,12.34l-0.763-0.853c-0.132-0.145-0.359-0.157-0.507-0.03c-0.15,0.134-0.159,0.359-0.03,0.503
			l0.655,0.743l0.447,0.503l0.641-0.357l4.86-2.699V9.401C16.439,10.865,15.057,11.632,13.782,12.34"/>
	</g>
</g>
<g id="Layer_7" display="none">
	<g display="inline">
		<path fill="#FFFFFF" d="M0,14.898c0,8.209,6.682,14.894,14.894,14.894c8.218,0,14.897-6.684,14.897-14.894
			C29.79,6.683,23.111,0,14.894,0C6.682,0,0,6.683,0,14.898"/>
		<path fill="none" stroke="#232020" stroke-width="0.344" d="M0,14.898c0,8.209,6.682,14.894,14.894,14.894
			c8.218,0,14.897-6.684,14.897-14.894C29.79,6.683,23.111,0,14.894,0C6.682,0,0,6.683,0,14.898z"/>
		<path fill="#372620" d="M14.894,27.768c7.113,0,12.875-5.763,12.875-12.87c0-7.11-5.763-12.876-12.875-12.876
			C7.786,2.022,2.02,7.788,2.02,14.898C2.02,22.005,7.786,27.768,14.894,27.768"/>
		<path fill="#FFFFFF" d="M21.21,14.269c0.163-0.164,0.318-0.22,0.566-0.22h1.65c1.46,0,2.638-1.185,2.638-2.645
			c0-1.456-1.182-2.642-2.642-2.642h-3.076c-0.749,0-1.456,0.333-1.872,0.747c-0.474,0.47-3.039,3.04-3.039,3.04v-0.867
			c0-0.76-0.619-1.38-1.378-1.38c-0.76,0-1.375,0.62-1.375,1.38v3.569c0,0-2.443,2.452-2.58,2.59c-0.163,0.163-0.318,0.22-0.57,0.22
			H7.887c-1.462,0-2.642,1.179-2.642,2.642c0,1.458,1.185,2.642,2.642,2.642h3.075c0.749,0,1.46-0.332,1.876-0.744
			C13.308,22.128,21.068,14.408,21.21,14.269 M11.8,21.734c-0.165,0.165-0.544,0.291-0.796,0.291H7.887
			c-0.73,0-1.324-0.59-1.324-1.321c0-0.732,0.59-1.325,1.324-1.325h1.801c0.519,0,1.064-0.282,1.364-0.58
			c0.47-0.471,8.324-8.288,8.462-8.426c0.163-0.161,0.54-0.291,0.794-0.291h3.116c0.733,0,1.327,0.591,1.327,1.321
			c0,0.734-0.59,1.327-1.323,1.327h-1.802c-0.519,0-1.068,0.28-1.364,0.58C19.79,13.783,11.937,21.601,11.8,21.734 M14.058,10.035
			c0.759,0,1.378-0.614,1.378-1.38c0-0.754-0.619-1.374-1.378-1.374c-0.76,0-1.379,0.62-1.379,1.374
			C12.678,9.421,13.297,10.035,14.058,10.035"/>
	</g>
</g>
<g id="Layer_8">
	<g>
		<path fill="#FFFFFF" d="M0,14.941c0,8.232,6.7,14.935,14.935,14.935c8.236,0,14.938-6.703,14.938-14.935
			C29.873,6.704,23.172,0,14.935,0C6.7,0,0,6.704,0,14.941"/>
		<path fill="none" stroke="#232020" stroke-width="0.344" d="M0,14.941c0,8.232,6.7,14.935,14.935,14.935
			c8.236,0,14.938-6.703,14.938-14.935C29.873,6.704,23.172,0,14.935,0C6.7,0,0,6.704,0,14.941z"/>
		<path fill="#372620" d="M14.936,27.848c7.133,0,12.911-5.779,12.911-12.907S22.068,2.029,14.936,2.029
			c-7.128,0-12.911,5.783-12.911,12.911S7.807,27.848,14.936,27.848"/>
		<path fill="#FFFFFF" d="M19.106,24.035c1.067,0,1.933-0.866,1.933-1.933v-8.336c0-1.067-0.866-1.935-1.933-1.935H10.77
			c-1.071,0-1.941,0.869-1.941,1.935v8.336c0,1.067,0.87,1.933,1.941,1.933H19.106z M10.513,13.513h8.844v8.841h-8.844V13.513z
			 M14.992,19.582v1.984c0,0.146,0.115,0.261,0.253,0.261c0.141,0,0.256-0.115,0.256-0.261v-1.984h0.724l-0.307-1.029h0.17
			c0.127,0,0.235-0.126,0.193-0.253c-0.123-0.409-0.442-1.502-0.539-1.795c-0.048-0.156-0.2-0.287-0.372-0.287h-0.881
			c-0.17,0-0.323,0.131-0.374,0.287c-0.093,0.293-0.416,1.386-0.536,1.795c-0.036,0.127,0.064,0.253,0.193,0.253h0.167l-0.304,1.029
			h0.724v1.984c0,0.146,0.112,0.261,0.253,0.261c0.145,0,0.257-0.115,0.257-0.261v-1.984H14.992z M16.806,18.828h0.174v2.72
			c0,0.187,0.148,0.338,0.338,0.338c0.185,0,0.341-0.152,0.341-0.338v-2.72h0.123v2.72c0,0.187,0.149,0.338,0.338,0.338
			c0.189,0,0.341-0.152,0.341-0.338v-2.72h0.174c0.173,0,0.309-0.141,0.309-0.312v-1.999c0-0.171-0.137-0.309-0.309-0.309h-1.83
			c-0.175,0-0.312,0.138-0.312,0.309v1.999C16.494,18.687,16.631,18.828,16.806,18.828 M17.719,16.007
			c0.294,0,0.536-0.233,0.536-0.535c0-0.29-0.242-0.536-0.536-0.536c-0.297,0-0.539,0.246-0.539,0.536
			C17.181,15.773,17.422,16.007,17.719,16.007 M13.029,18.828c0.171,0,0.312-0.141,0.312-0.312v-1.999
			c0-0.171-0.141-0.309-0.312-0.309h-1.832c-0.171,0-0.312,0.138-0.312,0.309v1.999c0,0.171,0.141,0.312,0.312,0.312h0.175v2.72
			c0,0.187,0.152,0.338,0.341,0.338c0.186,0,0.338-0.152,0.338-0.338v-2.72h0.123v2.72c0,0.187,0.152,0.338,0.338,0.338
			c0.188,0,0.341-0.152,0.341-0.338v-2.72H13.029z M12.112,16.007c0.293,0,0.535-0.233,0.535-0.535c0-0.29-0.242-0.536-0.535-0.536
			c-0.294,0-0.536,0.246-0.536,0.536C11.576,15.773,11.818,16.007,12.112,16.007 M14.913,16.007c0.301,0,0.539-0.233,0.539-0.535
			c0-0.29-0.238-0.536-0.539-0.536c-0.293,0-0.535,0.246-0.535,0.536C14.379,15.773,14.621,16.007,14.913,16.007 M18.047,4.274
			c-0.461,0-0.833,0.372-0.833,0.829c0,0.242,0.004,3.483,0.004,3.483c-0.29-0.354-0.703-0.858-0.843-1.033
			c-0.257-0.312-0.718-0.365-1.033-0.099c-0.309,0.251-0.358,0.71-0.101,1.025c0.137,0.163,2.197,2.657,2.197,2.657
			c0.152,0.156,0.368,0.257,0.609,0.257c0.238,0,0.453-0.101,0.605-0.257c0,0,2.06-2.494,2.197-2.657
			c0.257-0.315,0.209-0.774-0.104-1.025c-0.312-0.265-0.772-0.213-1.029,0.099c-0.145,0.175-0.554,0.68-0.844,1.033
			c0,0,0.004-3.241,0.004-3.483C18.876,4.645,18.504,4.274,18.047,4.274 M11.822,11.391c0.46,0,0.832-0.372,0.832-0.829
			c0-0.24-0.007-3.483-0.007-3.483c0.29,0.358,0.699,0.859,0.847,1.042c0.254,0.312,0.714,0.356,1.026,0.104
			c0.316-0.256,0.361-0.717,0.104-1.029c-0.134-0.171-2.197-2.657-2.197-2.657c-0.152-0.164-0.367-0.265-0.605-0.265
			c-0.242,0-0.457,0.101-0.609,0.265c0,0-2.06,2.485-2.197,2.657C8.763,7.508,8.807,7.969,9.12,8.225
			c0.312,0.253,0.774,0.209,1.029-0.104c0.145-0.182,0.558-0.684,0.844-1.042c0,0-0.004,3.242-0.004,3.483
			C10.989,11.02,11.362,11.391,11.822,11.391"/>
	</g>
</g>
</svg>
