<svg xmlns="http://www.w3.org/2000/svg" width="30" height="30" viewBox="0 0 49.844 49.849" enable-background="new 0 0 49.844 49.849"><g><path d="M.172 24.929c0 13.641 11.102 24.748 24.748 24.748 13.648 0 24.752-11.107 24.752-24.748 0-13.648-11.105-24.757-24.752-24.757-13.646 0-24.748 11.109-24.748 24.757" fill="#fff"/><path d="M.172 24.929c0 13.641 11.102 24.748 24.748 24.748 13.648 0 24.752-11.107 24.752-24.748 0-13.648-11.105-24.757-24.752-24.757-13.646 0-24.748 11.109-24.748 24.757z" stroke="#232020" stroke-width=".344" fill="none"/><path d="M24.92 46.316c11.819 0 21.394-9.575 21.394-21.387s-9.575-21.394-21.394-21.394c-11.812 0-21.394 9.582-21.394 21.394s9.582 21.387 21.394 21.387" fill="#372620"/><path d="M31.831 39.997c1.767 0 3.203-1.435 3.203-3.202v-13.813c0-1.767-1.435-3.207-3.203-3.207h-13.812c-1.774 0-3.216 1.44-3.216 3.207v13.813c0 1.767 1.442 3.202 3.216 3.202h13.812zm-14.238-17.434h14.655v14.65h-14.655v-14.65zm7.421 10.056v3.287c0 .243.19.433.419.433.233 0 .423-.19.423-.433v-3.287h1.199l-.508-1.705h.282c.211 0 .389-.208.321-.419-.204-.678-.733-2.488-.893-2.974-.08-.259-.332-.476-.616-.476h-1.46c-.282 0-.536.217-.62.476-.153.485-.689 2.296-.888 2.974-.06.211.105.419.321.419h.277l-.504 1.705h1.199v3.287c0 .243.185.433.419.433.24 0 .426-.19.426-.433v-3.287h.203zm3.006-1.249h.288v4.507c0 .309.245.561.561.561.307 0 .565-.252.565-.561v-4.507h.204v4.507c0 .309.247.561.561.561.314 0 .565-.252.565-.561v-4.507h.288c.286 0 .513-.234.513-.517v-3.313c0-.284-.227-.513-.513-.513h-3.032c-.291 0-.517.229-.517.513v3.312c-.001.284.226.518.517.518m1.513-4.675c.488 0 .888-.387.888-.886 0-.481-.401-.888-.888-.888-.492 0-.893.407-.893.888 0 .499.401.886.893.886m-7.772 4.675c.284 0 .517-.234.517-.517v-3.313c0-.284-.233-.513-.517-.513h-3.035c-.284 0-.517.229-.517.513v3.312c0 .284.233.517.517.517h.291v4.507c0 .309.252.561.565.561.309 0 .561-.252.561-.561v-4.506h.204v4.507c0 .309.252.561.561.561.311 0 .565-.252.565-.561v-4.507h.288zm-1.52-4.675c.485 0 .886-.387.886-.886 0-.481-.401-.888-.886-.888-.488 0-.888.407-.888.888 0 .499.401.886.888.886m4.643 0c.499 0 .893-.387.893-.886 0-.481-.394-.888-.893-.888-.485 0-.886.407-.886.888 0 .499.4.886.886.886m5.191-19.441c-.765 0-1.38.616-1.38 1.373l.007 5.771c-.481-.586-1.165-1.422-1.396-1.712-.426-.517-1.19-.604-1.712-.165-.513.417-.593 1.177-.167 1.699.227.27 3.64 4.402 3.64 4.402.252.259.609.426 1.01.426.394 0 .751-.167 1.003-.426 0 0 3.413-4.132 3.64-4.402.426-.522.346-1.282-.172-1.699-.517-.44-1.28-.353-1.705.165l-1.399 1.712.007-5.771c-.002-.758-.618-1.373-1.376-1.373m-10.314 11.793c.762 0 1.378-.616 1.378-1.373l-.011-5.771 1.403 1.726c.421.517 1.183.591 1.701.172.524-.423.597-1.188.172-1.705-.222-.284-3.64-4.402-3.64-4.402-.252-.272-.609-.439-1.003-.439-.401 0-.758.167-1.01.439 0 0-3.413 4.118-3.64 4.402-.419.517-.346 1.282.172 1.705.517.419 1.282.346 1.705-.172l1.399-1.726-.007 5.771c0 .757.618 1.373 1.381 1.373" fill="#fff"/></g></svg>