<?xml version="1.0" encoding="iso-8859-1"?>
<!-- Generator: Adobe Illustrator 17.0.0, SVG Export Plug-In . SVG Version: 6.00 Build 0)  -->
<!DOCTYPE svg PUBLIC "-//W3C//DTD SVG 1.1//EN" "http://www.w3.org/Graphics/SVG/1.1/DTD/svg11.dtd">
<svg version="1.1" id="Layer_1" xmlns="http://www.w3.org/2000/svg" xmlns:xlink="http://www.w3.org/1999/xlink" x="0px" y="0px"
	 width="50px" height="50px" viewBox="0 0 50 50" style="enable-background:new 0 0 50 50;" xml:space="preserve">
<g>
	<path style="fill:#FFFFFF;" d="M0.25,25.007c0,13.641,11.102,24.748,24.748,24.748c13.648,0,24.752-11.107,24.752-24.748
		c0-13.648-11.105-24.757-24.752-24.757C11.352,0.25,0.25,11.359,0.25,25.007"/>
	<path style="fill:none;stroke:#232020;stroke-width:0.344;" d="M0.25,25.007c0,13.641,11.102,24.748,24.748,24.748
		c13.648,0,24.752-11.107,24.752-24.748c0-13.648-11.105-24.757-24.752-24.757C11.352,0.25,0.25,11.359,0.25,25.007z"/>
	<path style="fill:#372620;" d="M24.998,46.394c11.819,0,21.394-9.575,21.394-21.387S36.817,3.612,24.998,3.612
		c-11.812,0-21.394,9.582-21.394,21.394S13.186,46.394,24.998,46.394"/>
	<path style="fill:#FFFFFF;" d="M31.909,40.075c1.767,0,3.203-1.435,3.203-3.202V23.06c0-1.767-1.435-3.207-3.203-3.207H18.097
		c-1.774,0-3.216,1.44-3.216,3.207v13.813c0,1.767,1.442,3.202,3.216,3.202H31.909z M17.671,22.641h14.655v14.65H17.671V22.641z
		 M25.092,32.697v3.287c0,0.243,0.19,0.433,0.419,0.433c0.233,0,0.423-0.19,0.423-0.433v-3.287h1.199l-0.508-1.705h0.282
		c0.211,0,0.389-0.208,0.321-0.419c-0.204-0.678-0.733-2.488-0.893-2.974c-0.08-0.259-0.332-0.476-0.616-0.476h-1.46
		c-0.282,0-0.536,0.217-0.62,0.476c-0.153,0.485-0.689,2.296-0.888,2.974c-0.06,0.211,0.105,0.419,0.321,0.419h0.277l-0.504,1.705
		h1.199v3.287c0,0.243,0.185,0.433,0.419,0.433c0.24,0,0.426-0.19,0.426-0.433v-3.287H25.092z M28.098,31.448h0.288v4.507
		c0,0.309,0.245,0.561,0.561,0.561c0.307,0,0.565-0.252,0.565-0.561v-4.507h0.204v4.507c0,0.309,0.247,0.561,0.561,0.561
		c0.314,0,0.565-0.252,0.565-0.561v-4.507h0.288c0.286,0,0.513-0.234,0.513-0.517v-3.312c0-0.284-0.227-0.513-0.513-0.513h-3.033
		c-0.291,0-0.517,0.229-0.517,0.513v3.312C27.58,31.214,27.807,31.448,28.098,31.448 M29.611,26.773
		c0.488,0,0.888-0.387,0.888-0.886c0-0.481-0.401-0.888-0.888-0.888c-0.492,0-0.893,0.407-0.893,0.888
		C28.718,26.386,29.119,26.773,29.611,26.773 M21.839,31.448c0.284,0,0.517-0.234,0.517-0.517v-3.312
		c0-0.284-0.233-0.513-0.517-0.513h-3.035c-0.284,0-0.517,0.229-0.517,0.513v3.312c0,0.284,0.233,0.517,0.517,0.517h0.291v4.507
		c0,0.309,0.252,0.561,0.565,0.561c0.309,0,0.561-0.252,0.561-0.561v-4.507h0.204v4.507c0,0.309,0.252,0.561,0.561,0.561
		c0.311,0,0.565-0.252,0.565-0.561v-4.507H21.839z M20.319,26.773c0.485,0,0.886-0.387,0.886-0.886c0-0.481-0.401-0.888-0.886-0.888
		c-0.488,0-0.888,0.407-0.888,0.888C19.431,26.386,19.832,26.773,20.319,26.773 M24.962,26.773c0.499,0,0.893-0.387,0.893-0.886
		c0-0.481-0.394-0.888-0.893-0.888c-0.485,0-0.886,0.407-0.886,0.888C24.076,26.386,24.476,26.773,24.962,26.773 M30.153,7.332
		c-0.765,0-1.38,0.616-1.38,1.373c0,0.401,0.007,5.771,0.007,5.771c-0.481-0.586-1.165-1.422-1.396-1.712
		c-0.426-0.517-1.19-0.604-1.712-0.165c-0.513,0.417-0.593,1.177-0.167,1.699c0.227,0.27,3.64,4.402,3.64,4.402
		c0.252,0.259,0.609,0.426,1.01,0.426c0.394,0,0.751-0.167,1.003-0.426c0,0,3.413-4.132,3.64-4.402
		c0.426-0.522,0.346-1.282-0.172-1.699c-0.517-0.44-1.28-0.353-1.705,0.165c-0.24,0.291-0.918,1.126-1.399,1.712
		c0,0,0.007-5.37,0.007-5.771C31.527,7.947,30.911,7.332,30.153,7.332 M19.839,19.125c0.762,0,1.378-0.616,1.378-1.373
		c0-0.398-0.011-5.771-0.011-5.771c0.481,0.593,1.158,1.424,1.403,1.726c0.421,0.517,1.183,0.591,1.701,0.172
		c0.524-0.423,0.597-1.188,0.172-1.705c-0.222-0.284-3.64-4.402-3.64-4.402c-0.252-0.272-0.609-0.439-1.003-0.439
		c-0.401,0-0.758,0.167-1.01,0.439c0,0-3.413,4.118-3.64,4.402c-0.419,0.517-0.346,1.282,0.172,1.705
		c0.517,0.419,1.282,0.346,1.705-0.172c0.24-0.302,0.925-1.133,1.399-1.726c0,0-0.007,5.373-0.007,5.771
		C18.458,18.509,19.076,19.125,19.839,19.125"/>
</g>
</svg>
