<svg xmlns="http://www.w3.org/2000/svg" width="30" height="30" viewBox="0 0 49.844 49.844" enable-background="new 0 0 49.844 49.844"><g><path d="M.172 24.928c0 13.642 11.103 24.744 24.749 24.744 13.655 0 24.751-11.103 24.751-24.744 0-13.653-11.096-24.756-24.751-24.756-13.646 0-24.749 11.103-24.749 24.756z" stroke="#232020" stroke-width=".344" fill="none"/><path d="M24.922 46.31c11.819 0 21.4-9.576 21.4-21.381 0-11.819-9.58-21.395-21.4-21.395-11.812 0-21.388 9.576-21.388 21.395-.001 11.805 9.575 21.381 21.388 21.381" fill="#37251F"/><path d="M23.733 31.905l-3.528-3.53-2.779 2.779c-.412.412-.856 1.348-.856 1.781 0 .453.16 1.229.604 1.673.497.499 4.095 4.089 4.594 4.588.584.586 1.527.586 2.111 0 .586-.577.586-1.52 0-2.106-.442-.449-2.665-2.667-2.665-2.667l2.519-2.518zm2.383 0l2.518 2.518-2.674 2.667c-.584.586-.584 1.529 0 2.106.586.586 1.536.586 2.113 0 .499-.499 4.102-4.089 4.594-4.588.451-.444.611-1.22.611-1.673 0-.433-.451-1.369-.863-1.781-.405-.412-2.77-2.779-2.77-2.779l-3.529 3.53zm3.443-5.21v-3.276s3.264 3.258 3.688 3.683c.572.572 1.509.572 2.081 0 .579-.572.579-1.511 0-2.083-.467-.602-5.709-5.783-5.961-6.034-.373-.382-.991-.586-1.593-.586h-5.702c-.6 0-1.216.204-1.589.586-.247.252-5.494 5.432-5.968 6.034-.575.572-.575 1.511 0 2.083.577.572 1.506.572 2.088 0 .424-.426 3.681-3.683 3.681-3.683v3.276h9.275zm-4.637-9.182c2.365 0 4.281-1.921 4.281-4.292 0-2.358-1.916-4.274-4.281-4.274-2.358 0-4.281 1.916-4.281 4.274 0 2.371 1.923 4.292 4.281 4.292" fill="#fff"/></g></svg>