<?xml version="1.0" encoding="iso-8859-1"?>
<!-- Generator: Adobe Illustrator 17.0.0, SVG Export Plug-In . SVG Version: 6.00 Build 0)  -->
<!DOCTYPE svg PUBLIC "-//W3C//DTD SVG 1.1//EN" "http://www.w3.org/Graphics/SVG/1.1/DTD/svg11.dtd">
<svg version="1.1" id="Layer_1" xmlns="http://www.w3.org/2000/svg" xmlns:xlink="http://www.w3.org/1999/xlink" x="0px" y="0px"
	 width="50px" height="50px" viewBox="0 0 50 50" style="enable-background:new 0 0 50 50;" xml:space="preserve">
<g>
	<path style="fill:none;stroke:#232020;stroke-width:0.344;" d="M0.25,25.006c0,13.642,11.103,24.744,24.749,24.744
		c13.655,0,24.751-11.103,24.751-24.744c0-13.653-11.096-24.756-24.751-24.756C11.353,0.25,0.25,11.353,0.25,25.006z"/>
	<path style="fill:#37251F;" d="M25,46.388c11.819,0,21.4-9.576,21.4-21.381c0-11.819-9.58-21.395-21.4-21.395
		c-11.812,0-21.388,9.576-21.388,21.395C3.611,36.812,13.187,46.388,25,46.388"/>
	<path style="fill:#FFFFFF;" d="M23.811,31.983l-3.528-3.53l-2.779,2.779c-0.412,0.412-0.856,1.348-0.856,1.781
		c0,0.453,0.16,1.229,0.604,1.673c0.497,0.499,4.095,4.089,4.594,4.588c0.584,0.586,1.527,0.586,2.111,0
		c0.586-0.577,0.586-1.52,0-2.106c-0.442-0.449-2.665-2.667-2.665-2.667L23.811,31.983z M26.194,31.983l2.518,2.518l-2.674,2.667
		c-0.584,0.586-0.584,1.529,0,2.106c0.586,0.586,1.536,0.586,2.113,0c0.499-0.499,4.102-4.089,4.594-4.588
		c0.451-0.444,0.611-1.22,0.611-1.673c0-0.433-0.451-1.369-0.863-1.781c-0.405-0.412-2.77-2.779-2.77-2.779L26.194,31.983z
		 M29.637,26.773v-3.276c0,0,3.264,3.258,3.688,3.683c0.572,0.572,1.509,0.572,2.081,0c0.579-0.572,0.579-1.511,0-2.083
		c-0.467-0.602-5.709-5.783-5.961-6.034c-0.373-0.382-0.991-0.586-1.593-0.586h-5.702c-0.6,0-1.216,0.204-1.589,0.586
		c-0.247,0.252-5.494,5.432-5.968,6.034c-0.575,0.572-0.575,1.511,0,2.083c0.577,0.572,1.506,0.572,2.088,0
		c0.424-0.426,3.681-3.683,3.681-3.683v3.276H29.637z M25,17.591c2.365,0,4.281-1.921,4.281-4.292c0-2.358-1.916-4.274-4.281-4.274
		c-2.358,0-4.281,1.916-4.281,4.274C20.719,15.67,22.642,17.591,25,17.591"/>
</g>
</svg>
