<?xml version="1.0" encoding="utf-8"?>
<!-- Generator: Adobe Illustrator 17.0.0, SVG Export Plug-In . SVG Version: 6.00 Build 0)  -->
<!DOCTYPE svg PUBLIC "-//W3C//DTD SVG 1.1//EN" "http://www.w3.org/Graphics/SVG/1.1/DTD/svg11.dtd" [
	<!ENTITY ns_flows "http://ns.adobe.com/Flows/1.0/">
	<!ENTITY ns_extend "http://ns.adobe.com/Extensibility/1.0/">
	<!ENTITY ns_ai "http://ns.adobe.com/AdobeIllustrator/10.0/">
	<!ENTITY ns_graphs "http://ns.adobe.com/Graphs/1.0/">
]>
<svg version="1.1" xmlns:x="&ns_extend;" xmlns:i="&ns_ai;" xmlns:graph="&ns_graphs;"
	 xmlns="http://www.w3.org/2000/svg" xmlns:xlink="http://www.w3.org/1999/xlink" xmlns:a="http://ns.adobe.com/AdobeSVGViewerExtensions/3.0/"
	 x="0px" y="0px" width="30px" height="30px" viewBox="0 0 30 30" enable-background="new 0 0 30 30" xml:space="preserve">
<g id="Layer_1" display="none">
	<g display="inline">
		<path fill="#FFFFFF" d="M0,14.959c0,8.243,6.711,14.953,14.957,14.953s14.955-6.709,14.955-14.953C29.912,6.709,23.203,0,14.957,0
			S0,6.709,0,14.959"/>
		<path fill="none" stroke="#232020" stroke-width="0.344" d="M0,14.959c0,8.243,6.711,14.953,14.957,14.953
			s14.955-6.709,14.955-14.953C29.912,6.709,23.203,0,14.957,0S0,6.709,0,14.959z"/>
		<path fill="#37251F" d="M14.956,27.881c7.138,0,12.929-5.786,12.929-12.922c0-7.139-5.791-12.927-12.929-12.927
			c-7.141,0-12.931,5.788-12.931,12.927C2.025,22.094,7.815,27.881,14.956,27.881"/>
		<path fill="#FFFFFF" d="M15.742,6.207h-1.563v17.613h1.563V6.207z M9.024,18.078v5.057c0,0.379,0.304,0.685,0.685,0.685
			c0.376,0,0.681-0.306,0.681-0.685c0-0.295,0-2.761,0.004-5.057h1.883l-1.964-6.673h0.335c0,0,1.046,3.544,1.176,3.99
			c0.09,0.295,0.401,0.47,0.707,0.38c0.302-0.086,0.44-0.398,0.35-0.704c-0.066-0.231-0.692-2.46-1.228-4.276
			c-0.201-0.67-0.919-1.35-1.641-1.35H7.692c-0.722,0-1.44,0.681-1.641,1.35c-0.54,1.816-1.195,4.045-1.262,4.276
			c-0.093,0.306,0.077,0.618,0.383,0.704c0.3,0.09,0.614-0.086,0.703-0.38c0.134-0.445,1.18-3.99,1.18-3.99h0.35l-1.964,6.673h1.883
			c0,2.296,0.003,4.763,0.003,5.057c0,0.379,0.306,0.685,0.685,0.685c0.376,0,0.682-0.306,0.682-0.685v-5.057H9.024z M8.861,9.069
			c0.8,0,1.451-0.652,1.451-1.455c0-0.797-0.652-1.447-1.451-1.447c-0.804,0-1.451,0.65-1.451,1.447
			C7.41,8.417,8.057,9.069,8.861,9.069 M22.47,9.441h-3.205c-1.026,0-1.868,0.826-1.868,1.858v4.499c0,0.35,0.275,0.639,0.629,0.639
			c0.35,0,0.632-0.289,0.632-0.639V11.74h0.328v11.213c0,0.473,0.383,0.856,0.852,0.856c0.472,0,0.852-0.383,0.852-0.856v-6.491
			h0.35v6.491c0,0.473,0.383,0.856,0.852,0.856s0.856-0.383,0.856-0.856V11.74h0.326v4.057c0,0.35,0.282,0.639,0.634,0.639
			c0.353,0,0.628-0.289,0.628-0.639v-4.499C24.338,10.267,23.497,9.441,22.47,9.441 M20.87,9.069c0.8,0,1.448-0.652,1.448-1.455
			c0-0.797-0.649-1.447-1.448-1.447c-0.804,0-1.451,0.65-1.451,1.447C19.419,8.417,20.066,9.069,20.87,9.069"/>
	</g>
</g>
<g id="Layer_2" display="none">
	<g display="inline">
		<path fill="none" stroke="#232020" stroke-width="0.344" d="M0,14.815c0,8.164,6.644,14.808,14.811,14.808
			c8.172,0,14.812-6.644,14.812-14.808C29.623,6.644,22.983,0,14.811,0C6.644,0,0,6.644,0,14.815z"/>
		<path fill="#37251F" d="M14.811,27.611c7.073,0,12.807-5.731,12.807-12.796c0-7.073-5.733-12.804-12.807-12.804
			c-7.069,0-12.8,5.731-12.8,12.804C2.012,21.88,7.742,27.611,14.811,27.611"/>
		<path fill="#FFFFFF" d="M14.1,18.99l-2.111-2.112l-1.663,1.663c-0.247,0.247-0.512,0.807-0.512,1.066
			c0,0.271,0.096,0.736,0.362,1.001c0.297,0.299,2.451,2.447,2.75,2.745c0.349,0.351,0.914,0.351,1.263,0
			c0.351-0.345,0.351-0.91,0-1.26c-0.264-0.268-1.595-1.596-1.595-1.596L14.1,18.99z M15.526,18.99l1.507,1.507l-1.6,1.596
			c-0.349,0.351-0.349,0.915,0,1.26c0.351,0.351,0.919,0.351,1.264,0c0.299-0.299,2.455-2.447,2.75-2.745
			c0.27-0.266,0.366-0.73,0.366-1.001c0-0.259-0.27-0.819-0.516-1.066c-0.242-0.247-1.658-1.663-1.658-1.663L15.526,18.99z
			 M17.587,15.872v-1.96c0,0,1.954,1.949,2.207,2.204c0.342,0.342,0.903,0.342,1.245,0c0.347-0.342,0.347-0.904,0-1.247
			c-0.279-0.36-3.417-3.461-3.567-3.611c-0.223-0.229-0.593-0.351-0.954-0.351h-3.413c-0.359,0-0.727,0.122-0.951,0.351
			c-0.148,0.151-3.288,3.251-3.572,3.611c-0.344,0.342-0.344,0.904,0,1.247c0.345,0.342,0.901,0.342,1.249,0
			c0.253-0.255,2.203-2.204,2.203-2.204v1.96H17.587z M14.811,10.377c1.415,0,2.562-1.149,2.562-2.569
			c0-1.411-1.147-2.558-2.562-2.558c-1.411,0-2.562,1.147-2.562,2.558C12.249,9.228,13.4,10.377,14.811,10.377"/>
	</g>
</g>
<g id="Layer_3">
	<g>
		<path fill="#FFFFFF" d="M0.125,15.021c0,8.202,6.675,14.881,14.885,14.881c8.209,0,14.893-6.679,14.893-14.881
			c0-8.217-6.684-14.896-14.893-14.896C6.799,0.125,0.125,6.804,0.125,15.021"/>
		<path fill="none" stroke="#232020" stroke-width="0.344" d="M0.125,15.021c0,8.202,6.675,14.881,14.885,14.881
			c8.209,0,14.893-6.679,14.893-14.881c0-8.217-6.684-14.896-14.893-14.896C6.799,0.125,0.125,6.804,0.125,15.021z"/>
		<path fill="#0F76BC" d="M15.01,27.879c7.106,0,12.873-5.758,12.873-12.858c0-7.117-5.767-12.873-12.873-12.873
			c-7.106,0-12.87,5.756-12.87,12.873C2.139,22.122,7.904,27.879,15.01,27.879"/>
		<path fill="#FFFFFF" d="M16.695,17.929c3.209,0,5.809-2.6,5.809-5.806c0-3.21-2.6-5.807-5.809-5.807H9.393v17.415h3.397v-5.805
			C12.791,17.926,15.687,17.929,16.695,17.929 M12.791,14.724V9.506h3.904c1.449,0,2.616,1.169,2.616,2.616
			c0,1.445-1.168,2.619-2.616,2.619C16.006,14.742,12.791,14.724,12.791,14.724"/>
	</g>
</g>
</svg>
