<svg xmlns="http://www.w3.org/2000/svg" width="30" height="30" viewBox="0 0 49.544 49.541" enable-background="new 0 0 49.544 49.541"><g><path d="M.172 24.783c0 13.551 11.028 24.586 24.593 24.586 13.563 0 24.607-11.035 24.607-24.586 0-13.576-11.044-24.611-24.607-24.611-13.565 0-24.593 11.035-24.593 24.611" fill="#fff"/><path d="M.172 24.783c0 13.551 11.028 24.586 24.593 24.586 13.563 0 24.607-11.035 24.607-24.586 0-13.576-11.044-24.611-24.607-24.611-13.565 0-24.593 11.035-24.593 24.611z" stroke="#232020" stroke-width=".344" fill="none"/><path d="M24.765 46.028c11.74 0 21.269-9.513 21.269-21.244 0-11.758-9.529-21.269-21.269-21.269-11.74 0-21.264 9.511-21.264 21.269 0 11.731 9.524 21.244 21.264 21.244" fill="#0F76BC"/><path d="M27.549 29.588c5.301 0 9.597-4.296 9.597-9.592 0-5.304-4.296-9.595-9.597-9.595h-12.064v28.773h5.613v-9.59l6.451.004m-6.45-5.295v-8.621h6.45c2.394 0 4.323 1.932 4.323 4.323 0 2.387-1.929 4.327-4.323 4.327-1.138.001-6.45-.029-6.45-.029" fill="#fff"/></g></svg>