<?xml version="1.0" encoding="iso-8859-1"?>
<!-- Generator: Adobe Illustrator 17.0.0, SVG Export Plug-In . SVG Version: 6.00 Build 0)  -->
<!DOCTYPE svg PUBLIC "-//W3C//DTD SVG 1.1//EN" "http://www.w3.org/Graphics/SVG/1.1/DTD/svg11.dtd">
<svg version="1.1" xmlns="http://www.w3.org/2000/svg" xmlns:xlink="http://www.w3.org/1999/xlink" x="0px" y="0px"
	 width="30px" height="30px" viewBox="0 0 49.544 49.541" style="enable-background:new 0 0 49.544 49.541;"
	 xml:space="preserve">
<g id="parking">
	<g>
		<path style="fill:#FFFFFF;" d="M0.172,24.783c0,13.551,11.028,24.586,24.593,24.586c13.563,0,24.607-11.035,24.607-24.586
			c0-13.576-11.044-24.611-24.607-24.611C11.2,0.172,0.172,11.207,0.172,24.783"/>
		<path style="fill:none;stroke:#232020;stroke-width:0.344;" d="M0.172,24.783c0,13.551,11.028,24.586,24.593,24.586
			c13.563,0,24.607-11.035,24.607-24.586c0-13.576-11.044-24.611-24.607-24.611C11.2,0.172,0.172,11.207,0.172,24.783z"/>
		<path style="fill:#0F76BC;" d="M24.765,46.028c11.74,0,21.269-9.513,21.269-21.244c0-11.758-9.529-21.269-21.269-21.269
			c-11.74,0-21.264,9.511-21.264,21.269C3.501,36.515,13.025,46.028,24.765,46.028"/>
		<path style="fill:#FFFFFF;" d="M27.549,29.588c5.301,0,9.597-4.296,9.597-9.592c0-5.304-4.296-9.595-9.597-9.595H15.485v28.773
			h5.613v-9.59C21.099,29.583,25.883,29.588,27.549,29.588 M21.099,24.293v-8.621h6.45c2.394,0,4.323,1.932,4.323,4.323
			c0,2.387-1.929,4.327-4.323,4.327C26.411,24.323,21.099,24.293,21.099,24.293"/>
	</g>
</g>
<g id="Layer_1">
</g>
</svg>
