<?xml version="1.0" encoding="iso-8859-1"?>
<!-- Generator: Adobe Illustrator 17.0.0, SVG Export Plug-In . SVG Version: 6.00 Build 0)  -->
<!DOCTYPE svg PUBLIC "-//W3C//DTD SVG 1.1//EN" "http://www.w3.org/Graphics/SVG/1.1/DTD/svg11.dtd">
<svg version="1.1" xmlns="http://www.w3.org/2000/svg" xmlns:xlink="http://www.w3.org/1999/xlink" x="0px" y="0px"
	 width="30px" height="30px" viewBox="0 0 49.728 49.733" style="enable-background:new 0 0 49.728 49.733;"
	 xml:space="preserve">
<g id="paystation">
	<g>
		<path style="fill:#FFFFFF;" d="M0.25,24.773C0.206,38.338,11.197,49.409,24.766,49.457c13.565,0.044,24.642-10.963,24.686-24.53
			C49.501,11.369,38.492,0.294,24.927,0.25C11.369,0.213,0.294,11.208,0.25,24.773"/>
		<path style="fill:none;stroke:#232020;stroke-width:0.551;" d="M0.25,24.773C0.206,38.338,11.197,49.409,24.766,49.457
			c13.565,0.044,24.642-10.963,24.686-24.53C49.501,11.369,38.492,0.294,24.927,0.25C11.369,0.213,0.294,11.208,0.25,24.773"/>
		<path style="fill:#2DA9E1;" d="M46.023,24.848c0,11.743-9.516,21.261-21.257,21.261c-11.738,0-21.25-9.518-21.25-21.261
			c0-11.738,9.511-21.25,21.25-21.25C36.507,3.598,46.023,13.11,46.023,24.848"/>
		<path style="fill:#FFFFFF;" d="M14.928,26.776v1.877h-1.93v-1.877c-1.523-0.216-2.928-0.964-3.77-2.045l1.456-1.258
			c0.952,1.021,2.059,1.493,3.28,1.493c1.838,0,2.648-0.614,2.648-1.753c0-1.003-0.718-1.465-2.864-2.091
			c-2.749-0.817-4.051-1.511-4.051-3.731c0-1.918,1.426-3.131,3.301-3.43v-1.898h1.93v1.898c1.3,0.219,2.353,0.794,3.255,1.702
			l-1.35,1.357c-0.909-0.78-1.693-1.27-3.018-1.27c-1.497,0-2.142,0.612-2.142,1.465c0,0.897,0.52,1.3,2.779,1.98
			c2.604,0.787,4.14,1.472,4.14,3.818C18.592,25.132,17.366,26.457,14.928,26.776"/>
		<path style="fill:#FFFFFF;" d="M31.375,28.653h-5.656v9.107h-5.134V12.064h11.23c4.844,0,8.842,2.682,8.842,8.147
			C40.657,26.165,36.698,28.653,31.375,28.653 M31.63,17.063h-5.912v6.602h5.985c2.39,0,3.671-1.102,3.671-3.342
			C35.375,18.084,33.905,17.063,31.63,17.063"/>
	</g>
</g>
<g id="Layer_1">
</g>
</svg>
