<svg xmlns="http://www.w3.org/2000/svg" width="30" height="30" viewBox="0 0 49.728 49.733" enable-background="new 0 0 49.728 49.733"><g><path d="M.25 24.773c-.044 13.565 10.947 24.636 24.516 24.684 13.565.044 24.642-10.963 24.686-24.53.049-13.558-10.96-24.633-24.525-24.677-13.558-.037-24.633 10.958-24.677 24.523" fill="#fff"/><path d="M.25 24.773c-.044 13.565 10.947 24.636 24.516 24.684 13.565.044 24.642-10.963 24.686-24.53.049-13.558-10.96-24.633-24.525-24.677-13.558-.037-24.633 10.958-24.677 24.523" stroke="#232020" stroke-width=".551" fill="none"/><path d="M46.023 24.848c0 11.743-9.516 21.261-21.257 21.261-11.738 0-21.25-9.518-21.25-21.261 0-11.738 9.511-21.25 21.25-21.25 11.741 0 21.257 9.512 21.257 21.25" fill="#2DA9E1"/><path d="M14.928 26.776v1.877h-1.93v-1.877c-1.523-.216-2.928-.964-3.77-2.045l1.456-1.258c.952 1.021 2.059 1.493 3.28 1.493 1.838 0 2.648-.614 2.648-1.753 0-1.003-.718-1.465-2.864-2.091-2.749-.817-4.051-1.511-4.051-3.731 0-1.918 1.426-3.131 3.301-3.43v-1.898h1.93v1.898c1.3.219 2.353.794 3.255 1.702l-1.35 1.357c-.909-.78-1.693-1.27-3.018-1.27-1.497 0-2.142.612-2.142 1.465 0 .897.52 1.3 2.779 1.98 2.604.787 4.14 1.472 4.14 3.818 0 2.119-1.226 3.444-3.664 3.763" fill="#fff"/><path d="M31.375 28.653h-5.656v9.107h-5.134v-25.696h11.23c4.844 0 8.842 2.682 8.842 8.147 0 5.954-3.959 8.442-9.282 8.442m.255-11.59h-5.912v6.602h5.985c2.39 0 3.671-1.102 3.671-3.342.001-2.239-1.469-3.26-3.744-3.26" fill="#fff"/></g></svg>