<?xml version="1.0" encoding="iso-8859-1"?>
<!-- Generator: Adobe Illustrator 17.0.0, SVG Export Plug-In . SVG Version: 6.00 Build 0)  -->
<!DOCTYPE svg PUBLIC "-//W3C//DTD SVG 1.1//EN" "http://www.w3.org/Graphics/SVG/1.1/DTD/svg11.dtd">
<svg version="1.1" xmlns="http://www.w3.org/2000/svg" xmlns:xlink="http://www.w3.org/1999/xlink" x="0px" y="0px"
	 width="30px" height="30px" viewBox="0 0 49.844 49.844" style="enable-background:new 0 0 49.844 49.844;"
	 xml:space="preserve">
<g id="restroom">
	<g>
		<path style="fill:#FFFFFF;" d="M0.172,24.928c0,13.642,11.105,24.744,24.751,24.744s24.749-11.103,24.749-24.744
			c0-13.653-11.103-24.756-24.749-24.756S0.172,11.275,0.172,24.928"/>
		<path style="fill:none;stroke:#232020;stroke-width:0.344;" d="M0.172,24.928c0,13.642,11.105,24.744,24.751,24.744
			s24.749-11.103,24.749-24.744c0-13.653-11.103-24.756-24.749-24.756S0.172,11.275,0.172,24.928z"/>
		<path style="fill:#37251F;" d="M24.922,46.311c11.812,0,21.395-9.576,21.395-21.384c0-11.815-9.583-21.393-21.395-21.393
			c-11.817,0-21.4,9.578-21.4,21.393C3.523,36.735,13.105,46.311,24.922,46.311"/>
		<path style="fill:#FFFFFF;" d="M26.222,10.443h-2.587V39.59h2.587V10.443z M15.106,30.089v8.369c0,0.627,0.504,1.133,1.133,1.133
			c0.623,0,1.126-0.506,1.126-1.133c0-0.488,0-4.569,0.007-8.369h3.116l-3.251-11.043h0.554c0,0,1.731,5.865,1.946,6.602
			c0.149,0.488,0.664,0.778,1.17,0.63c0.499-0.142,0.728-0.659,0.579-1.165c-0.11-0.382-1.145-4.07-2.033-7.076
			c-0.332-1.108-1.52-2.234-2.715-2.234h-3.837c-1.195,0-2.383,1.126-2.715,2.234c-0.893,3.006-1.978,6.694-2.088,7.076
			c-0.153,0.506,0.128,1.023,0.634,1.165c0.497,0.149,1.016-0.142,1.163-0.63c0.222-0.737,1.953-6.602,1.953-6.602h0.579
			L9.177,30.089h3.116c0,3.8,0.005,7.882,0.005,8.369c0,0.627,0.506,1.133,1.133,1.133c0.623,0,1.129-0.506,1.129-1.133v-8.369
			H15.106z M14.836,15.179c1.323,0,2.401-1.078,2.401-2.408c0-1.319-1.078-2.395-2.401-2.395c-1.33,0-2.401,1.076-2.401,2.395
			C12.434,14.101,13.506,15.179,14.836,15.179 M37.357,15.795h-5.304c-1.699,0-3.09,1.367-3.09,3.074v7.445
			c0,0.579,0.456,1.058,1.042,1.058c0.579,0,1.046-0.478,1.046-1.058V19.6h0.543v18.556c0,0.783,0.634,1.417,1.41,1.417
			c0.781,0,1.41-0.634,1.41-1.417V27.415h0.579v10.741c0,0.783,0.634,1.417,1.41,1.417s1.417-0.634,1.417-1.417V19.6h0.54v6.714
			c0,0.579,0.467,1.058,1.048,1.058c0.584,0,1.039-0.478,1.039-1.058V18.87C40.448,17.162,39.056,15.795,37.357,15.795
			 M34.708,15.179c1.323,0,2.397-1.078,2.397-2.408c0-1.319-1.074-2.395-2.397-2.395c-1.33,0-2.401,1.076-2.401,2.395
			C32.307,14.101,33.378,15.179,34.708,15.179"/>
	</g>
</g>
<g id="Layer_1">
</g>
</svg>
