<?xml version="1.0" encoding="utf-8"?>
<!-- Generator: Adobe Illustrator 17.0.0, SVG Export Plug-In . SVG Version: 6.00 Build 0)  -->
<!DOCTYPE svg PUBLIC "-//W3C//DTD SVG 1.1//EN" "http://www.w3.org/Graphics/SVG/1.1/DTD/svg11.dtd" [
	<!ENTITY ns_flows "http://ns.adobe.com/Flows/1.0/">
	<!ENTITY ns_extend "http://ns.adobe.com/Extensibility/1.0/">
	<!ENTITY ns_ai "http://ns.adobe.com/AdobeIllustrator/10.0/">
	<!ENTITY ns_graphs "http://ns.adobe.com/Graphs/1.0/">
]>
<svg version="1.1" id="Layer_1" xmlns:x="&ns_extend;" xmlns:i="&ns_ai;" xmlns:graph="&ns_graphs;"
	 xmlns="http://www.w3.org/2000/svg" xmlns:xlink="http://www.w3.org/1999/xlink" xmlns:a="http://ns.adobe.com/AdobeSVGViewerExtensions/3.0/"
	 x="0px" y="0px" width="30px" height="30px" viewBox="0 0 30 30" enable-background="new 0 0 30 30" xml:space="preserve">
<g>
	<path fill="#FFFFFF" d="M0,14.959c0,8.243,6.711,14.953,14.957,14.953s14.955-6.709,14.955-14.953C29.912,6.709,23.203,0,14.957,0
		S0,6.709,0,14.959"/>
	<path fill="none" stroke="#232020" stroke-width="0.344" d="M0,14.959c0,8.243,6.711,14.953,14.957,14.953
		s14.955-6.709,14.955-14.953C29.912,6.709,23.203,0,14.957,0S0,6.709,0,14.959z"/>
	<path fill="#37251F" d="M14.956,27.881c7.138,0,12.929-5.786,12.929-12.922c0-7.139-5.791-12.927-12.929-12.927
		c-7.141,0-12.931,5.788-12.931,12.927C2.025,22.094,7.815,27.881,14.956,27.881"/>
	<path fill="#FFFFFF" d="M15.742,6.207h-1.563v17.613h1.563V6.207z M9.024,18.078v5.057c0,0.379,0.304,0.685,0.685,0.685
		c0.376,0,0.681-0.306,0.681-0.685c0-0.295,0-2.761,0.004-5.057h1.883l-1.964-6.673h0.335c0,0,1.046,3.544,1.176,3.99
		c0.09,0.295,0.401,0.47,0.707,0.38c0.302-0.086,0.44-0.398,0.35-0.704c-0.066-0.231-0.692-2.46-1.228-4.276
		c-0.201-0.67-0.919-1.35-1.641-1.35H7.692c-0.722,0-1.44,0.681-1.641,1.35c-0.54,1.816-1.195,4.045-1.262,4.276
		c-0.093,0.306,0.077,0.618,0.383,0.704c0.3,0.09,0.614-0.086,0.703-0.38c0.134-0.445,1.18-3.99,1.18-3.99h0.35l-1.964,6.673h1.883
		c0,2.296,0.003,4.763,0.003,5.057c0,0.379,0.306,0.685,0.685,0.685c0.376,0,0.682-0.306,0.682-0.685v-5.057H9.024z M8.861,9.069
		c0.8,0,1.451-0.652,1.451-1.455c0-0.797-0.652-1.447-1.451-1.447c-0.804,0-1.451,0.65-1.451,1.447
		C7.41,8.417,8.057,9.069,8.861,9.069 M22.47,9.441h-3.205c-1.026,0-1.868,0.826-1.868,1.858v4.499c0,0.35,0.275,0.639,0.629,0.639
		c0.35,0,0.632-0.289,0.632-0.639V11.74h0.328v11.213c0,0.473,0.383,0.856,0.852,0.856c0.472,0,0.852-0.383,0.852-0.856v-6.491h0.35
		v6.491c0,0.473,0.383,0.856,0.852,0.856s0.856-0.383,0.856-0.856V11.74h0.326v4.057c0,0.35,0.282,0.639,0.634,0.639
		c0.353,0,0.628-0.289,0.628-0.639v-4.499C24.338,10.267,23.497,9.441,22.47,9.441 M20.87,9.069c0.8,0,1.448-0.652,1.448-1.455
		c0-0.797-0.649-1.447-1.448-1.447c-0.804,0-1.451,0.65-1.451,1.447C19.419,8.417,20.066,9.069,20.87,9.069"/>
</g>
</svg>
