<?xml version="1.0" encoding="iso-8859-1"?>
<!-- Generator: Adobe Illustrator 17.0.0, SVG Export Plug-In . SVG Version: 6.00 Build 0)  -->
<!DOCTYPE svg PUBLIC "-//W3C//DTD SVG 1.1//EN" "http://www.w3.org/Graphics/SVG/1.1/DTD/svg11.dtd">
<svg version="1.1" id="Layer_1" xmlns="http://www.w3.org/2000/svg" xmlns:xlink="http://www.w3.org/1999/xlink" x="0px" y="0px"
	 width="50px" height="50px" viewBox="0 0 50 50" style="enable-background:new 0 0 50 50;" xml:space="preserve">
<g>
	<path style="fill:#FFFFFF;" d="M0.25,25.006c0,13.642,11.105,24.744,24.751,24.744S49.75,38.647,49.75,25.006
		c0-13.653-11.103-24.756-24.749-24.756S0.25,11.353,0.25,25.006"/>
	<path style="fill:none;stroke:#232020;stroke-width:0.344;" d="M0.25,25.006c0,13.642,11.105,24.744,24.751,24.744
		S49.75,38.647,49.75,25.006c0-13.653-11.103-24.756-24.749-24.756S0.25,11.353,0.25,25.006z"/>
	<path style="fill:#37251F;" d="M25,46.389c11.812,0,21.395-9.576,21.395-21.384C46.396,13.19,36.813,3.612,25,3.612
		c-11.817,0-21.4,9.578-21.4,21.393C3.601,36.813,13.183,46.389,25,46.389"/>
	<path style="fill:#FFFFFF;" d="M26.3,10.521h-2.587v29.146H26.3V10.521z M15.184,30.167v8.369c0,0.627,0.504,1.133,1.133,1.133
		c0.623,0,1.126-0.506,1.126-1.133c0-0.488,0-4.569,0.007-8.369h3.116l-3.251-11.043h0.554c0,0,1.731,5.865,1.946,6.602
		c0.149,0.488,0.664,0.778,1.17,0.63c0.499-0.142,0.728-0.659,0.579-1.165c-0.11-0.382-1.145-4.07-2.033-7.076
		c-0.332-1.108-1.52-2.234-2.715-2.234h-3.837c-1.195,0-2.383,1.126-2.715,2.234c-0.893,3.006-1.978,6.694-2.088,7.076
		c-0.153,0.506,0.128,1.023,0.634,1.165c0.497,0.149,1.016-0.142,1.163-0.63c0.222-0.737,1.953-6.602,1.953-6.602h0.579
		L9.255,30.167h3.116c0,3.8,0.005,7.882,0.005,8.369c0,0.627,0.506,1.133,1.133,1.133c0.623,0,1.129-0.506,1.129-1.133v-8.369
		H15.184z M14.914,15.257c1.323,0,2.401-1.078,2.401-2.408c0-1.319-1.078-2.395-2.401-2.395c-1.33,0-2.401,1.076-2.401,2.395
		C12.512,14.179,13.584,15.257,14.914,15.257 M37.435,15.873h-5.304c-1.699,0-3.09,1.367-3.09,3.074v7.445
		c0,0.579,0.456,1.058,1.042,1.058c0.579,0,1.046-0.478,1.046-1.058v-6.714h0.543v18.556c0,0.783,0.634,1.417,1.41,1.417
		c0.781,0,1.41-0.634,1.41-1.417V27.493h0.579v10.741c0,0.783,0.634,1.417,1.41,1.417c0.776,0,1.417-0.634,1.417-1.417V19.678h0.54
		v6.714c0,0.579,0.467,1.058,1.048,1.058c0.584,0,1.039-0.478,1.039-1.058v-7.445C40.526,17.24,39.134,15.873,37.435,15.873
		 M34.786,15.257c1.323,0,2.397-1.078,2.397-2.408c0-1.319-1.074-2.395-2.397-2.395c-1.33,0-2.401,1.076-2.401,2.395
		C32.385,14.179,33.456,15.257,34.786,15.257"/>
</g>
</svg>
