<svg xmlns="http://www.w3.org/2000/svg" width="30" height="30" viewBox="0 0 49.844 49.844" enable-background="new 0 0 49.844 49.844"><g><path d="M.172 24.928c0 13.642 11.105 24.744 24.751 24.744s24.749-11.103 24.749-24.744c0-13.653-11.103-24.756-24.749-24.756s-24.751 11.103-24.751 24.756" fill="#fff"/><path d="M.172 24.928c0 13.642 11.105 24.744 24.751 24.744s24.749-11.103 24.749-24.744c0-13.653-11.103-24.756-24.749-24.756s-24.751 11.103-24.751 24.756z" stroke="#232020" stroke-width=".344" fill="none"/><path d="M24.922 46.311c11.812 0 21.395-9.576 21.395-21.384 0-11.815-9.583-21.393-21.395-21.393-11.817 0-21.4 9.578-21.4 21.393.001 11.808 9.583 21.384 21.4 21.384" fill="#37251F"/><path d="M26.222 10.443h-2.587v29.147h2.587v-29.147zm-11.116 19.646v8.369c0 .627.504 1.133 1.133 1.133.623 0 1.126-.506 1.126-1.133 0-.488 0-4.569.007-8.369h3.116l-3.251-11.043h.554s1.731 5.865 1.946 6.602c.149.488.664.778 1.17.63.499-.142.728-.659.579-1.165-.11-.382-1.145-4.07-2.033-7.076-.332-1.108-1.52-2.234-2.715-2.234h-3.837c-1.195 0-2.383 1.126-2.715 2.234-.893 3.006-1.978 6.694-2.088 7.076-.153.506.128 1.023.634 1.165.497.149 1.016-.142 1.163-.63.222-.737 1.953-6.602 1.953-6.602h.579l-3.25 11.043h3.116c0 3.8.005 7.882.005 8.369 0 .627.506 1.133 1.133 1.133.623 0 1.129-.506 1.129-1.133v-8.369h.546zm-.27-14.91c1.323 0 2.401-1.078 2.401-2.408 0-1.319-1.078-2.395-2.401-2.395-1.33 0-2.401 1.076-2.401 2.395-.001 1.33 1.071 2.408 2.401 2.408m22.521.616h-5.304c-1.699 0-3.09 1.367-3.09 3.074v7.445c0 .579.456 1.058 1.042 1.058.579 0 1.046-.478 1.046-1.058v-6.714h.543v18.556c0 .783.634 1.417 1.41 1.417.781 0 1.41-.634 1.41-1.417v-10.741h.579v10.741c0 .783.634 1.417 1.41 1.417s1.417-.634 1.417-1.417v-18.556h.54v6.714c0 .579.467 1.058 1.048 1.058.584 0 1.039-.478 1.039-1.058v-7.444c.001-1.708-1.391-3.075-3.09-3.075m-2.649-.616c1.323 0 2.397-1.078 2.397-2.408 0-1.319-1.074-2.395-2.397-2.395-1.33 0-2.401 1.076-2.401 2.395 0 1.33 1.071 2.408 2.401 2.408" fill="#fff"/></g></svg>