<?xml version="1.0" encoding="iso-8859-1"?>
<!-- Generator: Adobe Illustrator 17.0.0, SVG Export Plug-In . SVG Version: 6.00 Build 0)  -->
<!DOCTYPE svg PUBLIC "-//W3C//DTD SVG 1.1//EN" "http://www.w3.org/Graphics/SVG/1.1/DTD/svg11.dtd">
<svg version="1.1" xmlns="http://www.w3.org/2000/svg" xmlns:xlink="http://www.w3.org/1999/xlink" x="0px" y="0px"
	 width="30px" height="30px" viewBox="0 0 49.839 49.839" style="enable-background:new 0 0 49.839 49.839;"
	 xml:space="preserve">
<g id="stairs">
	<g>
		<path style="fill:#FFFFFF;" d="M0.172,24.926c0,13.64,11.103,24.741,24.748,24.741c13.651,0,24.748-11.101,24.748-24.741
			c0-13.651-11.097-24.754-24.748-24.754C11.275,0.172,0.172,11.275,0.172,24.926"/>
		<path style="fill:none;stroke:#232020;stroke-width:0.344;" d="M0.172,24.926c0,13.64,11.103,24.741,24.748,24.741
			c13.651,0,24.748-11.101,24.748-24.741c0-13.651-11.097-24.754-24.748-24.754C11.275,0.172,0.172,11.275,0.172,24.926z"/>
		<path style="fill:#372620;" d="M24.919,46.304c11.815,0,21.392-9.572,21.392-21.378c0-11.818-9.577-21.392-21.392-21.392
			c-11.811,0-21.392,9.574-21.392,21.392C3.527,36.732,13.108,46.304,24.919,46.304"/>
		<polyline style="fill:none;stroke:#FFFFFF;stroke-width:2.066;stroke-linecap:round;" points="11.003,34.106 20.461,34.106 
			20.461,25.045 29.525,25.045 29.525,15.978 38.392,15.978 		"/>
	</g>
</g>
<g id="Layer_1">
</g>
</svg>
