<svg xmlns="http://www.w3.org/2000/svg" width="30" height="30" viewBox="0 0 49.839 49.839" enable-background="new 0 0 49.839 49.839"><g><path d="M.172 24.926c0 13.64 11.103 24.741 24.748 24.741 13.651 0 24.748-11.101 24.748-24.741 0-13.651-11.097-24.754-24.748-24.754-13.645 0-24.748 11.103-24.748 24.754" fill="#fff"/><path d="M.172 24.926c0 13.64 11.103 24.741 24.748 24.741 13.651 0 24.748-11.101 24.748-24.741 0-13.651-11.097-24.754-24.748-24.754-13.645 0-24.748 11.103-24.748 24.754z" stroke="#232020" stroke-width=".344" fill="none"/><path d="M24.919 46.304c11.815 0 21.392-9.572 21.392-21.378 0-11.818-9.577-21.392-21.392-21.392-11.811 0-21.392 9.574-21.392 21.392 0 11.806 9.581 21.378 21.392 21.378" fill="#372620"/><polyline points="11.003,34.106 20.461,34.106 20.461,25.045 29.525,25.045 29.525,15.978 38.392,15.978" stroke="#fff" stroke-width="2.066" stroke-linecap="round" fill="none"/></g></svg>