<?xml version="1.0" encoding="utf-8"?>
<!-- Generator: Adobe Illustrator 17.0.0, SVG Export Plug-In . SVG Version: 6.00 Build 0)  -->
<!DOCTYPE svg PUBLIC "-//W3C//DTD SVG 1.1//EN" "http://www.w3.org/Graphics/SVG/1.1/DTD/svg11.dtd" [
	<!ENTITY ns_flows "http://ns.adobe.com/Flows/1.0/">
	<!ENTITY ns_extend "http://ns.adobe.com/Extensibility/1.0/">
	<!ENTITY ns_ai "http://ns.adobe.com/AdobeIllustrator/10.0/">
	<!ENTITY ns_graphs "http://ns.adobe.com/Graphs/1.0/">
]>
<svg version="1.1" id="Layer_1" xmlns:x="&ns_extend;" xmlns:i="&ns_ai;" xmlns:graph="&ns_graphs;"
	 xmlns="http://www.w3.org/2000/svg" xmlns:xlink="http://www.w3.org/1999/xlink" xmlns:a="http://ns.adobe.com/AdobeSVGViewerExtensions/3.0/"
	 x="0px" y="0px" width="50px" height="50px" viewBox="0 0 50 50" enable-background="new 0 0 50 50" xml:space="preserve">
<g>
	<path fill="#FFFFFF" d="M0.25,25.011c0,13.634,11.104,24.736,24.75,24.736s24.75-11.102,24.75-24.736
		C49.75,11.352,38.645,0.25,25,0.25S0.25,11.352,0.25,25.011"/>
	<path fill="none" stroke="#232020" stroke-width="0.344" d="M0.25,25.011c0,13.634,11.104,24.736,24.75,24.736
		s24.75-11.102,24.75-24.736C49.75,11.352,38.645,0.25,25,0.25S0.25,11.352,0.25,25.011z"/>
	<path fill="#362620" d="M24.999,46.397c11.814,0,21.392-9.582,21.392-21.385c0-11.826-9.578-21.401-21.392-21.401
		c-11.817,0-21.392,9.575-21.392,21.401C3.607,36.815,13.182,46.397,24.999,46.397"/>
	<path fill="#FFFFFF" d="M22.874,13.057c-0.421,0-0.842,0.476-0.842,0.845v1.687h-3.42c-1.721,0-2.626,0.849-3.138,2.056
		c-0.348,0.842-2.575,6.153-2.575,6.153c-1.383,0.364-2.406,1.618-2.406,3.113v7.595h2.514c0,0-0.03,1.964-0.03,2.605
		c0,1.165,0.941,2.106,2.104,2.106c1.16,0,2.101-0.941,2.101-2.106v-2.605h15.616v2.605c0,1.165,0.941,2.106,2.104,2.106
		c1.161,0,2.095-0.941,2.095-2.106c0-0.641-0.03-2.605-0.03-2.605h2.518v-7.595c0-1.495-1.023-2.749-2.406-3.113
		c0,0-2.223-5.311-2.575-6.153c-0.506-1.206-1.421-2.056-3.141-2.056h-3.413v-1.687c0-0.369-0.423-0.845-0.84-0.845H22.874z
		 M12.948,27.989c0-1.156,0.943-2.104,2.106-2.104c1.158,0,2.101,0.948,2.101,2.104c0,1.167-0.943,2.101-2.101,2.101
		C13.891,30.091,12.948,29.157,12.948,27.989 M32.797,27.989c0-1.156,0.941-2.104,2.104-2.104c1.161,0,2.095,0.948,2.095,2.104
		c0,1.167-0.934,2.101-2.095,2.101C33.738,30.091,32.797,29.157,32.797,27.989 M31.256,17.787c0.71,0,1.096,0.291,1.424,1.067
		c0.332,0.817,2.001,4.777,2.001,4.777H15.297c0,0,1.676-3.96,2.005-4.777c0.327-0.776,0.714-1.067,1.428-1.067H31.256"/>
</g>
</svg>
