<?xml version="1.0" encoding="utf-8"?>
<!-- Generator: Adobe Illustrator 17.0.0, SVG Export Plug-In . SVG Version: 6.00 Build 0)  -->
<!DOCTYPE svg PUBLIC "-//W3C//DTD SVG 1.1//EN" "http://www.w3.org/Graphics/SVG/1.1/DTD/svg11.dtd" [
	<!ENTITY ns_flows "http://ns.adobe.com/Flows/1.0/">
	<!ENTITY ns_extend "http://ns.adobe.com/Extensibility/1.0/">
	<!ENTITY ns_ai "http://ns.adobe.com/AdobeIllustrator/10.0/">
	<!ENTITY ns_graphs "http://ns.adobe.com/Graphs/1.0/">
]>
<svg version="1.1" id="Layer_1" xmlns:x="&ns_extend;" xmlns:i="&ns_ai;" xmlns:graph="&ns_graphs;"
	 xmlns="http://www.w3.org/2000/svg" xmlns:xlink="http://www.w3.org/1999/xlink" xmlns:a="http://ns.adobe.com/AdobeSVGViewerExtensions/3.0/"
	 x="0px" y="0px" width="30px" height="30px" viewBox="0 0 30 30" enable-background="new 0 0 30 30" xml:space="preserve">
<g>
	<path fill="#FFFFFF" d="M0,14.902C0,23.108,6.683,29.79,14.895,29.79s14.896-6.682,14.896-14.887C29.791,6.682,23.108,0,14.895,0
		S0,6.682,0,14.902"/>
	<path fill="none" stroke="#232020" stroke-width="0.344" d="M0,14.902C0,23.108,6.683,29.79,14.895,29.79
		s14.896-6.682,14.896-14.887C29.791,6.682,23.108,0,14.895,0S0,6.682,0,14.902z"/>
	<path fill="#362620" d="M14.895,27.773c7.11,0,12.874-5.767,12.874-12.87c0-7.117-5.764-12.88-12.874-12.88
		c-7.112,0-12.875,5.763-12.875,12.88C2.02,22.006,7.783,27.773,14.895,27.773"/>
	<path fill="#FFFFFF" d="M13.616,7.708c-0.253,0-0.507,0.287-0.507,0.508v1.015H11.05c-1.036,0-1.58,0.511-1.889,1.237
		c-0.209,0.507-1.55,3.703-1.55,3.703c-0.832,0.219-1.448,0.974-1.448,1.874v4.571h1.513c0,0-0.018,1.182-0.018,1.568
		c0,0.701,0.566,1.267,1.266,1.267c0.698,0,1.265-0.566,1.265-1.267v-1.568h9.399v1.568c0,0.701,0.566,1.267,1.266,1.267
		c0.699,0,1.261-0.566,1.261-1.267c0-0.386-0.018-1.568-0.018-1.568h1.516v-4.571c0-0.9-0.616-1.655-1.448-1.874
		c0,0-1.338-3.196-1.55-3.703c-0.304-0.726-0.856-1.237-1.89-1.237H16.67V8.216c0-0.222-0.255-0.508-0.506-0.508H13.616z
		 M7.642,16.695c0-0.696,0.568-1.266,1.268-1.266c0.697,0,1.265,0.57,1.265,1.266c0,0.703-0.568,1.265-1.265,1.265
		C8.21,17.959,7.642,17.397,7.642,16.695 M19.588,16.695c0-0.696,0.566-1.266,1.266-1.266c0.699,0,1.261,0.57,1.261,1.266
		c0,0.703-0.562,1.265-1.261,1.265C20.154,17.959,19.588,17.397,19.588,16.695 M18.661,10.554c0.427,0,0.66,0.175,0.857,0.642
		c0.2,0.492,1.204,2.875,1.204,2.875H9.056c0,0,1.008-2.383,1.207-2.875c0.197-0.467,0.43-0.642,0.86-0.642H18.661"/>
</g>
</svg>
