<svg xmlns="http://www.w3.org/2000/svg" width="30" height="30" viewBox="0 0 49.844 49.842" enable-background="new 0 0 49.844 49.842"><g><path d="M.172 24.933c0 13.634 11.104 24.736 24.75 24.736s24.75-11.102 24.75-24.736c0-13.659-11.105-24.761-24.75-24.761s-24.75 11.102-24.75 24.761" fill="#fff"/><path d="M.172 24.933c0 13.634 11.104 24.736 24.75 24.736s24.75-11.102 24.75-24.736c0-13.659-11.105-24.761-24.75-24.761s-24.75 11.102-24.75 24.761z" stroke="#232020" stroke-width=".344" fill="none"/><path d="M24.921 46.319c11.814 0 21.392-9.582 21.392-21.385 0-11.826-9.578-21.401-21.392-21.401-11.817 0-21.392 9.575-21.392 21.401 0 11.803 9.575 21.385 21.392 21.385" fill="#372620"/><path d="M22.796 12.979c-.421 0-.842.476-.842.845v1.687h-3.42c-1.721 0-2.626.849-3.138 2.056-.348.842-2.575 6.153-2.575 6.153-1.383.364-2.406 1.618-2.406 3.113v7.595h2.514s-.03 1.964-.03 2.605c0 1.165.941 2.106 2.104 2.106 1.16 0 2.101-.941 2.101-2.106v-2.605h15.616v2.605c0 1.165.941 2.106 2.104 2.106 1.161 0 2.095-.941 2.095-2.106 0-.641-.03-2.605-.03-2.605h2.518v-7.595c0-1.495-1.023-2.749-2.406-3.113l-2.575-6.153c-.506-1.206-1.421-2.056-3.141-2.056h-3.413v-1.687c0-.369-.423-.845-.84-.845h-4.236zm-9.926 14.932c0-1.156.943-2.104 2.106-2.104 1.158 0 2.101.948 2.101 2.104 0 1.167-.943 2.101-2.101 2.101-1.163.001-2.106-.933-2.106-2.101m19.849 0c0-1.156.941-2.104 2.104-2.104 1.161 0 2.095.948 2.095 2.104 0 1.167-.934 2.101-2.095 2.101-1.163.001-2.104-.933-2.104-2.101m-1.541-10.202c.71 0 1.096.291 1.424 1.067.332.817 2.001 4.777 2.001 4.777h-19.384s1.676-3.96 2.005-4.777c.327-.776.714-1.067 1.428-1.067h12.526" fill="#fff"/></g></svg>