<?xml version="1.0" encoding="iso-8859-1"?>
<!-- Generator: Adobe Illustrator 17.0.0, SVG Export Plug-In . SVG Version: 6.00 Build 0)  -->
<!DOCTYPE svg PUBLIC "-//W3C//DTD SVG 1.1//EN" "http://www.w3.org/Graphics/SVG/1.1/DTD/svg11.dtd">
<svg version="1.1" xmlns="http://www.w3.org/2000/svg" xmlns:xlink="http://www.w3.org/1999/xlink" x="0px" y="0px"
	 width="30px" height="30px" viewBox="0 0 49.844 49.842" style="enable-background:new 0 0 49.844 49.842;"
	 xml:space="preserve">
<g id="taxi">
	<g>
		<path style="fill:#FFFFFF;" d="M0.172,24.933c0,13.634,11.104,24.736,24.75,24.736s24.75-11.102,24.75-24.736
			c0-13.659-11.105-24.761-24.75-24.761S0.172,11.274,0.172,24.933"/>
		<path style="fill:none;stroke:#232020;stroke-width:0.344;" d="M0.172,24.933c0,13.634,11.104,24.736,24.75,24.736
			s24.75-11.102,24.75-24.736c0-13.659-11.105-24.761-24.75-24.761S0.172,11.274,0.172,24.933z"/>
		<path style="fill:#372620;" d="M24.921,46.319c11.814,0,21.392-9.582,21.392-21.385c0-11.826-9.578-21.401-21.392-21.401
			c-11.817,0-21.392,9.575-21.392,21.401C3.529,36.737,13.104,46.319,24.921,46.319"/>
		<path style="fill:#FFFFFF;" d="M22.796,12.979c-0.421,0-0.842,0.476-0.842,0.845v1.687h-3.42c-1.721,0-2.626,0.849-3.138,2.056
			c-0.348,0.842-2.575,6.153-2.575,6.153c-1.383,0.364-2.406,1.618-2.406,3.113v7.595h2.514c0,0-0.03,1.964-0.03,2.605
			c0,1.165,0.941,2.106,2.104,2.106c1.16,0,2.101-0.941,2.101-2.106v-2.605h15.616v2.605c0,1.165,0.941,2.106,2.104,2.106
			c1.161,0,2.095-0.941,2.095-2.106c0-0.641-0.03-2.605-0.03-2.605h2.518v-7.595c0-1.495-1.023-2.749-2.406-3.113
			c0,0-2.223-5.311-2.575-6.153c-0.506-1.206-1.421-2.056-3.141-2.056h-3.413v-1.687c0-0.369-0.423-0.845-0.84-0.845H22.796z
			 M12.87,27.911c0-1.156,0.943-2.104,2.106-2.104c1.158,0,2.101,0.948,2.101,2.104c0,1.167-0.943,2.101-2.101,2.101
			C13.813,30.013,12.87,29.079,12.87,27.911 M32.719,27.911c0-1.156,0.941-2.104,2.104-2.104c1.161,0,2.095,0.948,2.095,2.104
			c0,1.167-0.934,2.101-2.095,2.101C33.66,30.013,32.719,29.079,32.719,27.911 M31.178,17.709c0.71,0,1.096,0.291,1.424,1.067
			c0.332,0.817,2.001,4.777,2.001,4.777H15.219c0,0,1.676-3.96,2.005-4.777c0.327-0.776,0.714-1.067,1.428-1.067H31.178"/>
	</g>
</g>
<g id="Layer_1">
</g>
</svg>
