<?xml version="1.0" encoding="iso-8859-1"?>
<!-- Generator: Adobe Illustrator 17.0.0, SVG Export Plug-In . SVG Version: 6.00 Build 0)  -->
<!DOCTYPE svg PUBLIC "-//W3C//DTD SVG 1.1//EN" "http://www.w3.org/Graphics/SVG/1.1/DTD/svg11.dtd">
<svg version="1.1" xmlns="http://www.w3.org/2000/svg" xmlns:xlink="http://www.w3.org/1999/xlink" x="0px" y="0px"
	 width="30px" height="30px" viewBox="0 0 49.844 49.835" style="enable-background:new 0 0 49.844 49.835;"
	 xml:space="preserve">
<g id="telephones">
	<g>
		<path style="fill:#FFFFFF;" d="M0.172,24.923c0,13.639,11.103,24.74,24.747,24.74c13.65,0,24.753-11.101,24.753-24.74
			c0-13.65-11.103-24.751-24.753-24.751C11.275,0.172,0.172,11.273,0.172,24.923"/>
		<path style="fill:none;stroke:#232020;stroke-width:0.344;" d="M0.172,24.923c0,13.639,11.103,24.74,24.747,24.74
			c13.65,0,24.753-11.101,24.753-24.74c0-13.65-11.103-24.751-24.753-24.751C11.275,0.172,0.172,11.273,0.172,24.923"/>
		<path style="fill:none;stroke:#010101;stroke-width:0.153;" d="M0.172,24.923c0,13.639,11.103,24.74,24.747,24.74
			c13.65,0,24.753-11.101,24.753-24.74c0-13.65-11.103-24.751-24.753-24.751C11.275,0.172,0.172,11.273,0.172,24.923z"/>
		<path style="fill:#372620;" d="M24.919,46.314c11.822,0,21.396-9.581,21.396-21.391c0-11.815-9.574-21.389-21.396-21.389
			c-11.81,0-21.382,9.574-21.382,21.389C3.537,36.733,13.109,46.314,24.919,46.314"/>
		<path style="fill:#FFFFFF;" d="M22.359,25.316c-0.014-6.741,1.261-7.349,1.98-7.349h0.204V8.052h-0.252
			c-1.293,0-7.578,2.337-7.578,17.264c0,14.946,6.285,17.26,7.578,17.26h0.252v-9.901h-0.204
			C23.62,32.675,22.382,32.066,22.359,25.316 M25.332,32.675v9.901h2.479c0.698,0,1.263-0.561,1.263-1.25v-7.388
			c0-0.703-0.565-1.263-1.263-1.263H25.332z M25.332,17.953h2.479c0.698,0,1.263-0.561,1.263-1.261V9.315
			c0-0.696-0.565-1.263-1.263-1.263h-2.479V17.953"/>
	</g>
</g>
<g id="Layer_1">
</g>
</svg>
