<?xml version="1.0" encoding="iso-8859-1"?>
<!-- Generator: Adobe Illustrator 17.0.0, SVG Export Plug-In . SVG Version: 6.00 Build 0)  -->
<!DOCTYPE svg PUBLIC "-//W3C//DTD SVG 1.1//EN" "http://www.w3.org/Graphics/SVG/1.1/DTD/svg11.dtd">
<svg version="1.1" id="Layer_1" xmlns="http://www.w3.org/2000/svg" xmlns:xlink="http://www.w3.org/1999/xlink" x="0px" y="0px"
	 width="50px" height="50px" viewBox="0 0 50 50" style="enable-background:new 0 0 50 50;" xml:space="preserve">
<g>
	<path style="fill:#FFFFFF;" d="M0.25,25.001c0,13.639,11.103,24.74,24.747,24.74c13.65,0,24.753-11.101,24.753-24.74
		c0-13.65-11.103-24.751-24.753-24.751C11.353,0.25,0.25,11.351,0.25,25.001"/>
	<path style="fill:none;stroke:#232020;stroke-width:0.344;" d="M0.25,25.001c0,13.639,11.103,24.74,24.747,24.74
		c13.65,0,24.753-11.101,24.753-24.74c0-13.65-11.103-24.751-24.753-24.751C11.353,0.25,0.25,11.351,0.25,25.001"/>
	<path style="fill:none;stroke:#010101;stroke-width:0.153;" d="M0.25,25.001c0,13.639,11.103,24.74,24.747,24.74
		c13.65,0,24.753-11.101,24.753-24.74c0-13.65-11.103-24.751-24.753-24.751C11.353,0.25,0.25,11.351,0.25,25.001z"/>
	<path style="fill:#372620;" d="M24.997,46.392c11.822,0,21.396-9.581,21.396-21.391c0-11.815-9.574-21.389-21.396-21.389
		c-11.81,0-21.382,9.574-21.382,21.389C3.615,36.811,13.187,46.392,24.997,46.392"/>
	<path style="fill:#FFFFFF;" d="M22.437,25.394c-0.014-6.741,1.261-7.349,1.98-7.349h0.204V8.13h-0.252
		c-1.293,0-7.578,2.337-7.578,17.264c0,14.946,6.285,17.26,7.578,17.26h0.252v-9.901h-0.204
		C23.698,32.753,22.46,32.144,22.437,25.394 M25.41,32.753v9.901h2.479c0.698,0,1.263-0.561,1.263-1.25v-7.388
		c0-0.703-0.565-1.263-1.263-1.263H25.41z M25.41,18.031h2.479c0.698,0,1.263-0.561,1.263-1.261V9.393
		c0-0.696-0.565-1.263-1.263-1.263H25.41V18.031"/>
</g>
</svg>
