<svg xmlns="http://www.w3.org/2000/svg" width="30" height="30" viewBox="0 0 49.993 49.993" enable-background="new 0 0 49.993 49.993"><g><path d="M.25 25.009c0 13.633 11.101 24.734 24.748 24.734 13.637 0 24.746-11.101 24.746-24.734 0-13.656-11.108-24.759-24.746-24.759-13.647 0-24.748 11.104-24.748 24.759" fill="#fff"/><path d="M.25 25.009c0 13.633 11.101 24.734 24.748 24.734 13.637 0 24.746-11.101 24.746-24.734 0-13.656-11.108-24.759-24.746-24.759-13.647 0-24.748 11.104-24.748 24.759z" stroke="#232020" stroke-width=".5" fill="none"/><path d="M24.997 46.38c11.811 0 21.39-9.565 21.39-21.372 0-11.82-9.579-21.399-21.39-21.399-11.818 0-21.392 9.579-21.392 21.399 0 11.807 9.574 21.372 21.392 21.372" fill="#372620"/><path d="M30.607 27.981v1.637c0 .762.613 1.369 1.376 1.369.751 0 1.366-.607 1.366-1.369 0-.421-.023-1.637-.023-1.637h1.813v-9.73s-.501-4.912-.703-6.881c-.233-2.176-.736-2.813-2.263-3.54-2.204-1.03-4.658-1.465-7.263-1.465-2.593 0-5.052.435-7.258 1.465-1.536.728-2.035 1.364-2.264 3.541-.206 1.968-.705 6.881-.705 6.881v9.73h1.815s-.021 1.215-.021 1.637c0 .762.607 1.369 1.366 1.369.764 0 1.373-.607 1.373-1.369v-1.637h11.391zm-13.177-9.652c-.554 0-.966-.444-.922-1 .16-2.191.284-3.415.552-5.622.06-.458.19-1.678 1.069-1.678h13.589c.9 0 1.01 1.257 1.074 1.721.288 2.305.391 3.326.558 5.564.044.636-.389 1.014-.874 1.014h-15.046" fill="#fff"/><line x1="17.778" y1="32.501" x2="16.049" y2="42.092" stroke="#fff" stroke-width=".5" fill="none"/><line x1="31.973" y1="32.501" x2="33.699" y2="42.092" stroke="#fff" stroke-width=".5" fill="none"/><line x1="17.888" y1="41.712" x2="31.993" y2="41.712" stroke="#fff" stroke-width=".5" fill="none"/><line x1="18.67" y1="38.759" x2="31.21" y2="38.759" stroke="#fff" stroke-width=".5" fill="none"/><line x1="19.34" y1="36.029" x2="30.535" y2="36.029" stroke="#fff" stroke-width=".5" fill="none"/><line x1="20.04" y1="33.519" x2="29.834" y2="33.519" stroke="#fff" stroke-width=".5" fill="none"/></g></svg>