<?xml version="1.0" encoding="utf-8"?>
<!-- Generator: Adobe Illustrator 17.0.0, SVG Export Plug-In . SVG Version: 6.00 Build 0)  -->
<!DOCTYPE svg PUBLIC "-//W3C//DTD SVG 1.1//EN" "http://www.w3.org/Graphics/SVG/1.1/DTD/svg11.dtd" [
	<!ENTITY ns_flows "http://ns.adobe.com/Flows/1.0/">
	<!ENTITY ns_extend "http://ns.adobe.com/Extensibility/1.0/">
	<!ENTITY ns_ai "http://ns.adobe.com/AdobeIllustrator/10.0/">
	<!ENTITY ns_graphs "http://ns.adobe.com/Graphs/1.0/">
]>
<svg version="1.1" id="Layer_1" xmlns:x="&ns_extend;" xmlns:i="&ns_ai;" xmlns:graph="&ns_graphs;"
	 xmlns="http://www.w3.org/2000/svg" xmlns:xlink="http://www.w3.org/1999/xlink" xmlns:a="http://ns.adobe.com/AdobeSVGViewerExtensions/3.0/"
	 x="0px" y="0px" width="50px" height="50px" viewBox="0 0 50 50" enable-background="new 0 0 50 50" xml:space="preserve">
<g>
	<path fill="#FFFFFF" d="M0.25,25.009c0,13.633,11.101,24.734,24.748,24.734c13.637,0,24.746-11.101,24.746-24.734
		c0-13.656-11.108-24.759-24.746-24.759C11.351,0.25,0.25,11.354,0.25,25.009"/>
	<path fill="none" stroke="#232020" stroke-width="0.344" d="M0.25,25.009c0,13.633,11.101,24.734,24.748,24.734
		c13.637,0,24.746-11.101,24.746-24.734c0-13.656-11.108-24.759-24.746-24.759C11.351,0.25,0.25,11.354,0.25,25.009z"/>
	<path fill="#362620" d="M24.997,46.38c11.811,0,21.39-9.565,21.39-21.372c0-11.82-9.579-21.399-21.39-21.399
		c-11.818,0-21.392,9.579-21.392,21.399C3.605,36.815,13.179,46.38,24.997,46.38"/>
	<path fill="#FFFFFF" d="M30.607,27.981v1.637c0,0.762,0.613,1.369,1.376,1.369c0.751,0,1.366-0.607,1.366-1.369
		c0-0.421-0.023-1.637-0.023-1.637h1.813v-9.73c0,0-0.501-4.912-0.703-6.881C34.203,9.194,33.7,8.557,32.173,7.83
		c-2.204-1.03-4.658-1.465-7.263-1.465c-2.593,0-5.052,0.435-7.258,1.465c-1.536,0.728-2.035,1.364-2.264,3.541
		c-0.206,1.968-0.705,6.881-0.705,6.881v9.73h1.815c0,0-0.021,1.215-0.021,1.637c0,0.762,0.607,1.369,1.366,1.369
		c0.764,0,1.373-0.607,1.373-1.369v-1.637H30.607z M17.43,18.329c-0.554,0-0.966-0.444-0.922-1c0.16-2.191,0.284-3.415,0.552-5.622
		c0.06-0.458,0.19-1.678,1.069-1.678h13.589c0.9,0,1.01,1.257,1.074,1.721c0.288,2.305,0.391,3.326,0.558,5.564
		c0.044,0.636-0.389,1.014-0.874,1.014H17.43"/>
	<line fill="none" stroke="#FFFFFF" stroke-width="0.482" x1="17.778" y1="32.501" x2="16.049" y2="42.092"/>
	<line fill="none" stroke="#FFFFFF" stroke-width="0.482" x1="31.973" y1="32.501" x2="33.699" y2="42.092"/>
	<line fill="none" stroke="#FFFFFF" stroke-width="0.624" x1="17.888" y1="41.712" x2="31.993" y2="41.712"/>
	<line fill="none" stroke="#FFFFFF" stroke-width="0.555" x1="18.67" y1="38.759" x2="31.21" y2="38.759"/>
	<line fill="none" stroke="#FFFFFF" stroke-width="0.495" x1="19.34" y1="36.029" x2="30.535" y2="36.029"/>
	<line fill="none" stroke="#FFFFFF" stroke-width="0.433" x1="20.04" y1="33.519" x2="29.834" y2="33.519"/>
</g>
</svg>
