<?xml version="1.0" encoding="utf-8"?>
<!-- Generator: Adobe Illustrator 17.0.0, SVG Export Plug-In . SVG Version: 6.00 Build 0)  -->
<!DOCTYPE svg PUBLIC "-//W3C//DTD SVG 1.1//EN" "http://www.w3.org/Graphics/SVG/1.1/DTD/svg11.dtd" [
	<!ENTITY ns_flows "http://ns.adobe.com/Flows/1.0/">
	<!ENTITY ns_extend "http://ns.adobe.com/Extensibility/1.0/">
	<!ENTITY ns_ai "http://ns.adobe.com/AdobeIllustrator/10.0/">
	<!ENTITY ns_graphs "http://ns.adobe.com/Graphs/1.0/">
]>
<svg version="1.1" id="Layer_1" xmlns:x="&ns_extend;" xmlns:i="&ns_ai;" xmlns:graph="&ns_graphs;"
	 xmlns="http://www.w3.org/2000/svg" xmlns:xlink="http://www.w3.org/1999/xlink" xmlns:a="http://ns.adobe.com/AdobeSVGViewerExtensions/3.0/"
	 x="0px" y="0px" width="30px" height="30px" viewBox="0 0 30 30" enable-background="new 0 0 30 30" xml:space="preserve">
<g>
	<path fill="#FFFFFF" d="M0,14.986c0,8.251,6.719,14.971,14.979,14.971c8.254,0,14.978-6.719,14.978-14.971
		C29.956,6.721,23.233,0,14.979,0C6.719,0,0,6.721,0,14.986"/>
	<path fill="none" stroke="#232020" stroke-width="0.344" d="M0,14.986c0,8.251,6.719,14.971,14.979,14.971
		c8.254,0,14.978-6.719,14.978-14.971C29.956,6.721,23.233,0,14.979,0C6.719,0,0,6.721,0,14.986z"/>
	<path fill="#362620" d="M14.978,27.921c7.149,0,12.946-5.79,12.946-12.935c0-7.154-5.798-12.952-12.946-12.952
		C7.826,2.033,2.03,7.831,2.03,14.985C2.03,22.131,7.826,27.921,14.978,27.921"/>
	<path fill="#FFFFFF" d="M18.374,16.785v0.991c0,0.461,0.371,0.828,0.833,0.828c0.454,0,0.827-0.367,0.827-0.828
		c0-0.255-0.014-0.991-0.014-0.991h1.097v-5.889c0,0-0.303-2.973-0.425-4.164c-0.141-1.318-0.446-1.703-1.37-2.143
		c-1.334-0.623-2.819-0.887-4.396-0.887c-1.57,0-3.058,0.263-4.393,0.887c-0.93,0.441-1.232,0.826-1.37,2.143
		c-0.125,1.191-0.427,4.164-0.427,4.164v5.889h1.099c0,0-0.012,0.736-0.012,0.991c0,0.461,0.367,0.828,0.827,0.828
		c0.463,0,0.831-0.367,0.831-0.828v-0.991H18.374z M10.398,10.942c-0.335,0-0.585-0.269-0.558-0.605
		c0.097-1.326,0.172-2.067,0.334-3.403c0.036-0.277,0.115-1.015,0.647-1.015h8.225c0.544,0,0.611,0.761,0.65,1.042
		c0.175,1.395,0.237,2.013,0.338,3.368c0.026,0.385-0.235,0.614-0.529,0.614H10.398"/>
	<line fill="none" stroke="#FFFFFF" stroke-width="0.482" x1="10.609" y1="19.52" x2="9.563" y2="25.325"/>
	<line fill="none" stroke="#FFFFFF" stroke-width="0.482" x1="19.201" y1="19.52" x2="20.245" y2="25.325"/>
	<line fill="none" stroke="#FFFFFF" stroke-width="0.624" x1="10.676" y1="25.095" x2="19.213" y2="25.095"/>
	<line fill="none" stroke="#FFFFFF" stroke-width="0.555" x1="11.149" y1="23.308" x2="18.739" y2="23.308"/>
	<line fill="none" stroke="#FFFFFF" stroke-width="0.495" x1="11.554" y1="21.656" x2="18.33" y2="21.656"/>
	<line fill="none" stroke="#FFFFFF" stroke-width="0.433" x1="11.978" y1="20.137" x2="17.906" y2="20.137"/>
</g>
</svg>
