<?xml version="1.0" encoding="iso-8859-1"?>
<!-- Generator: Adobe Illustrator 17.0.0, SVG Export Plug-In . SVG Version: 6.00 Build 0)  -->
<!DOCTYPE svg PUBLIC "-//W3C//DTD SVG 1.1//EN" "http://www.w3.org/Graphics/SVG/1.1/DTD/svg11.dtd">
<svg version="1.1" xmlns="http://www.w3.org/2000/svg" xmlns:xlink="http://www.w3.org/1999/xlink" x="0px" y="0px"
	 width="30px" height="30px" viewBox="0 0 49.837 49.839" style="enable-background:new 0 0 49.837 49.839;"
	 xml:space="preserve">
<g id="travelator">
	<g>
		<path style="fill:#FFFFFF;" d="M0.172,24.926c0,13.637,11.103,24.741,24.748,24.741s24.745-11.103,24.745-24.741
			c0-13.653-11.101-24.754-24.745-24.754S0.172,11.273,0.172,24.926"/>
		<path style="fill:none;stroke:#232020;stroke-width:0.344;" d="M0.172,24.926c0,13.637,11.103,24.741,24.748,24.741
			s24.745-11.103,24.745-24.741c0-13.653-11.101-24.754-24.745-24.754S0.172,11.273,0.172,24.926z"/>
		<path style="fill:#372620;" d="M24.919,46.305c11.811,0,21.39-9.574,21.39-21.378c0-11.818-9.579-21.392-21.39-21.392
			c-11.811,0-21.392,9.574-21.392,21.392C3.527,36.73,13.109,46.305,24.919,46.305"/>
		<path style="fill:#FFFFFF;" d="M39.795,16.491h-5.109c-1.245,0-1.879,0.487-3.117,1.236l-11.367,6.327v-2.891
			c0-1.083-0.881-1.968-1.964-1.968c-1.085,0-1.959,0.886-1.959,1.968v5.075l-0.904,0.506c-0.506,0.282-0.611,0.357-0.943,0.357
			c-0.405,0-1.859,0.007-2.74,0.007c-2.426,0-4.39,1.964-4.39,4.397c0,2.419,1.971,4.388,4.39,4.388h5.111
			c1.25,0,2.138-0.677,3.122-1.243c1.373-0.801,15.436-8.602,15.924-8.879c0.332-0.192,0.792-0.499,1.206-0.499h2.74
			c2.426,0,4.39-1.964,4.39-4.39S42.217,16.491,39.795,16.491 M39.795,23.122h-2.74c-0.936,0-1.687,0.437-2.131,0.696l-0.128,0.08
			l-2.458,1.373l-13.495,7.517l-0.462,0.279c-0.71,0.426-1.133,0.664-1.577,0.664h-5.111c-1.236,0-2.241-0.996-2.241-2.227
			c0-1.241,1.005-2.243,2.241-2.243l2.735-0.011c0.872,0,1.371-0.277,1.865-0.561c0,0,0.135-0.073,0.128-0.073
			c0,0,16.194-9.009,16.256-9.053l0.426-0.252c0.936-0.586,1.119-0.678,1.584-0.678h5.109c1.238,0,2.243,1.016,2.243,2.248
			C42.038,22.119,41.034,23.122,39.795,23.122"/>
		<path style="fill:#FFFFFF;" d="M18.238,18.824c1.083,0,1.964-0.881,1.964-1.971c0-1.092-0.881-1.964-1.964-1.964
			c-1.083,0-1.964,0.872-1.964,1.964C16.274,17.943,17.155,18.824,18.238,18.824"/>
		<path style="fill:#FFFFFF;" d="M22.942,20.561l-1.261-1.41c-0.217-0.24-0.593-0.259-0.838-0.05
			c-0.247,0.222-0.263,0.593-0.05,0.831l1.083,1.227l0.739,0.831l1.06-0.591l8.029-4.459v-1.236
			C27.333,18.123,25.048,19.391,22.942,20.561"/>
	</g>
</g>
<g id="Layer_1">
</g>
</svg>
