<svg xmlns="http://www.w3.org/2000/svg" width="30" height="30" viewBox="0 0 49.837 49.839" enable-background="new 0 0 49.837 49.839"><g><path d="M.172 24.926c0 13.637 11.103 24.741 24.748 24.741s24.745-11.103 24.745-24.741c0-13.653-11.101-24.754-24.745-24.754s-24.748 11.101-24.748 24.754" fill="#fff"/><path d="M.172 24.926c0 13.637 11.103 24.741 24.748 24.741s24.745-11.103 24.745-24.741c0-13.653-11.101-24.754-24.745-24.754s-24.748 11.101-24.748 24.754z" stroke="#232020" stroke-width=".344" fill="none"/><path d="M24.919 46.305c11.811 0 21.39-9.574 21.39-21.378 0-11.818-9.579-21.392-21.39-21.392s-21.392 9.574-21.392 21.392c0 11.803 9.582 21.378 21.392 21.378" fill="#372620"/><path d="M39.795 16.491h-5.109c-1.245 0-1.879.487-3.117 1.236l-11.367 6.327v-2.891c0-1.083-.881-1.968-1.964-1.968-1.085 0-1.959.886-1.959 1.968v5.075l-.904.506c-.506.282-.611.357-.943.357l-2.74.007c-2.426 0-4.39 1.964-4.39 4.397 0 2.419 1.971 4.388 4.39 4.388h5.111c1.25 0 2.138-.677 3.122-1.243 1.373-.801 15.436-8.602 15.924-8.879.332-.192.792-.499 1.206-.499h2.74c2.426 0 4.39-1.964 4.39-4.39s-1.968-4.391-4.39-4.391m0 6.631h-2.74c-.936 0-1.687.437-2.131.696l-.128.08-2.458 1.373-13.495 7.517-.462.279c-.71.426-1.133.664-1.577.664h-5.111c-1.236 0-2.241-.996-2.241-2.227 0-1.241 1.005-2.243 2.241-2.243l2.735-.011c.872 0 1.371-.277 1.865-.561l.128-.073s16.194-9.009 16.256-9.053l.426-.252c.936-.586 1.119-.678 1.584-.678h5.109c1.238 0 2.243 1.016 2.243 2.248-.001 1.238-1.005 2.241-2.244 2.241" fill="#fff"/><path d="M18.238 18.824c1.083 0 1.964-.881 1.964-1.971 0-1.092-.881-1.964-1.964-1.964s-1.964.872-1.964 1.964c0 1.09.881 1.971 1.964 1.971" fill="#fff"/><path d="M22.942 20.561l-1.261-1.41c-.217-.24-.593-.259-.838-.05-.247.222-.263.593-.05.831l1.083 1.227.739.831 1.06-.591 8.029-4.459v-1.236c-4.371 2.419-6.656 3.687-8.762 4.857" fill="#fff"/></g></svg>